<mxfile host="app.diagrams.net" modified="2023-05-11T00:39:59.567Z" agent="Mozilla/5.0 (Windows NT 10.0; Win64; x64) AppleWebKit/537.36 (KHTML, like Gecko) Chrome/112.0.0.0 Safari/537.36 Edg/112.0.1722.68" etag="NSenH_ycOKLLokeGKTUw" version="21.2.9" type="github">
  <diagram id="4_XCW6oBCm1cpU5HytLm" name="Page-1">
    <mxGraphModel dx="776" dy="486" grid="1" gridSize="6" guides="1" tooltips="1" connect="1" arrows="1" fold="1" page="1" pageScale="1" pageWidth="1600" pageHeight="900" math="0" shadow="0">
      <root>
        <mxCell id="0" />
        <mxCell id="1" parent="0" />
        <mxCell id="uX3nckn37POY2VgG7rPa-2" value="" style="rounded=1;whiteSpace=wrap;html=1;dashed=1;verticalAlign=top;fillColor=#647687;strokeColor=#314354;fontColor=#ffffff;fontStyle=1;gradientColor=none;" parent="1" vertex="1">
          <mxGeometry x="48" y="261" width="450" height="444" as="geometry" />
        </mxCell>
        <mxCell id="_SaHxXhYvdPaZlUhFqMO-24" value="" style="edgeStyle=orthogonalEdgeStyle;rounded=0;orthogonalLoop=1;jettySize=auto;html=1;" parent="1" edge="1">
          <mxGeometry relative="1" as="geometry">
            <mxPoint x="388" y="833.3636363636363" as="targetPoint" />
          </mxGeometry>
        </mxCell>
        <mxCell id="_SaHxXhYvdPaZlUhFqMO-3" value="Sales Force" style="rounded=1;whiteSpace=wrap;html=1;strokeColor=none;fontStyle=1" parent="1" vertex="1">
          <mxGeometry x="192" y="216" width="150" height="30" as="geometry" />
        </mxCell>
        <mxCell id="_SaHxXhYvdPaZlUhFqMO-8" value="" style="endArrow=none;dashed=1;html=1;rounded=0;strokeColor=none;entryX=0.5;entryY=1;entryDx=0;entryDy=0;" parent="1" edge="1">
          <mxGeometry width="50" height="50" relative="1" as="geometry">
            <mxPoint x="527" y="470" as="sourcePoint" />
            <mxPoint x="293" y="342" as="targetPoint" />
          </mxGeometry>
        </mxCell>
        <mxCell id="_SaHxXhYvdPaZlUhFqMO-15" value="" style="rounded=1;whiteSpace=wrap;html=1;fillColor=#dae8fc;strokeColor=#000000;gradientColor=none;glass=0;shadow=1;strokeWidth=3;" parent="1" vertex="1">
          <mxGeometry x="84" y="294" width="378" height="390" as="geometry" />
        </mxCell>
        <mxCell id="_SaHxXhYvdPaZlUhFqMO-25" value="" style="endArrow=none;dashed=1;html=1;dashPattern=12 12;strokeWidth=2;rounded=0;entryX=0.5;entryY=1;entryDx=0;entryDy=0;exitX=0.811;exitY=1.001;exitDx=0;exitDy=0;exitPerimeter=0;strokeColor=#FFFFFF;" parent="1" edge="1">
          <mxGeometry width="50" height="50" relative="1" as="geometry">
            <mxPoint x="756" y="754" as="sourcePoint" />
            <mxPoint x="754" y="338" as="targetPoint" />
          </mxGeometry>
        </mxCell>
        <mxCell id="_SaHxXhYvdPaZlUhFqMO-53" value="" style="endArrow=none;dashed=1;html=1;dashPattern=12 12;strokeWidth=2;rounded=0;entryX=0.5;entryY=1;entryDx=0;entryDy=0;strokeColor=#FFFFFF;" parent="1" edge="1">
          <mxGeometry width="50" height="50" relative="1" as="geometry">
            <mxPoint x="566" y="750" as="sourcePoint" />
            <mxPoint x="566" y="690.0000000000002" as="targetPoint" />
          </mxGeometry>
        </mxCell>
        <mxCell id="pYpf6Nf2uUUaodTvFNSU-2" value="" style="rounded=1;whiteSpace=wrap;html=1;fillColor=#dae8fc;strokeColor=#000000;gradientColor=none;glass=0;shadow=1;strokeWidth=3;" vertex="1" parent="1">
          <mxGeometry x="129" y="344" width="288" height="150" as="geometry" />
        </mxCell>
        <mxCell id="pYpf6Nf2uUUaodTvFNSU-3" value="" style="rounded=1;whiteSpace=wrap;html=1;fillColor=#dae8fc;strokeColor=#000000;gradientColor=none;glass=0;shadow=1;strokeWidth=3;" vertex="1" parent="1">
          <mxGeometry x="166.5" y="376" width="213" height="96" as="geometry" />
        </mxCell>
        <mxCell id="pYpf6Nf2uUUaodTvFNSU-4" value="" style="rounded=1;whiteSpace=wrap;html=1;fillColor=#dae8fc;strokeColor=#000000;gradientColor=none;glass=0;shadow=1;strokeWidth=3;" vertex="1" parent="1">
          <mxGeometry x="135" y="517" width="288" height="150" as="geometry" />
        </mxCell>
        <mxCell id="pYpf6Nf2uUUaodTvFNSU-5" value="Component" style="rounded=0;whiteSpace=wrap;html=1;fillColor=#dae8fc;strokeColor=default;" vertex="1" parent="1">
          <mxGeometry x="270" y="330" width="120" height="30" as="geometry" />
        </mxCell>
        <mxCell id="pYpf6Nf2uUUaodTvFNSU-6" value="Component" style="rounded=0;whiteSpace=wrap;html=1;fillColor=#dae8fc;strokeColor=default;" vertex="1" parent="1">
          <mxGeometry x="246" y="366" width="120" height="30" as="geometry" />
        </mxCell>
        <mxCell id="pYpf6Nf2uUUaodTvFNSU-7" value="Component" style="rounded=0;whiteSpace=wrap;html=1;fillColor=#dae8fc;strokeColor=default;" vertex="1" parent="1">
          <mxGeometry x="288" y="504" width="120" height="30" as="geometry" />
        </mxCell>
        <mxCell id="pYpf6Nf2uUUaodTvFNSU-8" value="" style="endArrow=classic;html=1;rounded=0;exitX=0;exitY=0.5;exitDx=0;exitDy=0;entryX=0;entryY=0.5;entryDx=0;entryDy=0;edgeStyle=orthogonalEdgeStyle;strokeWidth=3;" edge="1" parent="1" source="pYpf6Nf2uUUaodTvFNSU-4" target="pYpf6Nf2uUUaodTvFNSU-3">
          <mxGeometry width="50" height="50" relative="1" as="geometry">
            <mxPoint x="372" y="530" as="sourcePoint" />
            <mxPoint x="422" y="480" as="targetPoint" />
            <Array as="points">
              <mxPoint x="108" y="592" />
              <mxPoint x="108" y="424" />
            </Array>
          </mxGeometry>
        </mxCell>
        <mxCell id="pYpf6Nf2uUUaodTvFNSU-12" value="Application" style="rounded=0;whiteSpace=wrap;html=1;fillColor=#dae8fc;strokeColor=default;" vertex="1" parent="1">
          <mxGeometry x="294" y="282" width="120" height="30" as="geometry" />
        </mxCell>
        <mxCell id="pYpf6Nf2uUUaodTvFNSU-14" value="" style="shape=image;verticalLabelPosition=bottom;labelBackgroundColor=default;verticalAlign=top;aspect=fixed;imageAspect=0;image=data:image/png,iVBORw0KGgoAAAANSUhEUgAAAgAAAAIACAYAAAD0eNT6AAAABHNCSVQICAgIfAhkiAAAAAlwSFlzAAAOxAAADsQBlSsOGwAAABl0RVh0U29mdHdhcmUAd3d3Lmlua3NjYXBlLm9yZ5vuPBoAACAASURBVHic7N15fFxV/f/x1+dO0qRAy1qgSyZNoaCsfhVUQERExAUVv2JVoEkKKG5fFH5+VVzr16/7jmvZkkkKahVcUED0yyK4YVHZRCg0yUxakH3vksz9/P6YFlpIMndm7sydSd7Px6MP2uTMOR+SmbmfOfeczwERERERERERERERERERERERERERERERERERERERERERERERERERERERERERERERERERERERERERERERERERERERERERERERERERERERERERERERERERERERERERERERERERERERERERERERERERERERERERERERERERERERERERERERERERERERERERERERERERERERERERERERERERERERERERERERERERERERERERERERERERERERERERERERERERERERERERERERERERERERERERERERERERERERERERERERERERERERERERERERERERERERERERERERERERERERERERERERERERERERERERERERERERERERERERERERERERERERERERERERERERqUeWdACSsPNyOxGEOwDQ5C2Ets1W308FjzIShrTmn8RTG5mTfpwjbTSJUEVEJD5KACarnoFWmoMFjHoHQTAfZz7YfPDdgZ3BdwbbBQhK79zvA7t/03/vAbsf9yECuwPjTubNG1SSICJS35QATAbnZ+eQ4iAC9sc5AOwA8IVAKqGINoIPgP0L7O8Yf6UpdQMnzHkgoXhERORZlAA0mqUesMea/QnDwzA/FLfDgPlJhxWJsZqQGzD/M87v6G6/LemQRESmKiUAjSAzvDOWfyUEr8L9WGBO0iHFw++D4Fo8/B1Nqcs4ad5w0hGJiEwVSgDqVd/aNIy+Fed44MWUda++oTjwF5wVhKmfcvLcXNIBiYhMZkoA6kn/4Gzc3oazCOylTN3fj4P9CcIVjNpPOCW9NumAREQmm6l6gakfSz2gI/tKCN4FfhzQnHRIdSYErsL8HNrSP9PuAhGReCgBSErPwO4EwbvBTgHmJR1OY7Ah8PMZ5XzNCoiIVEYJQK315BaS4v24vxOYnnQ4DWoE7Ed4+CXtJBARKY8SgFrpzb4c42PAq9HPPS4OXArBF+ma96ekgxERaSS6EFVbZvgQCP8HeFXSoUxy1xLwSRanr0s6kClvqQcstTDpMERkYkoAqqV/8IWEwf8Cr006lCnFuRT8LN0aiMnZq1rYfno7FnYQsgCzdtx3w2wXCDeXk96ZwnvJdmy9iNWBRwDHeAQnBB4E/o2TA+7FPIfbPXg+y/z5d2mRp0jtKAGIW//gbPLB5zE6mfx79+tVHsiQCj6t4kIl6FubJhx9AcaBmB+I2wuADmr3PN4I/k/gVjy4BeMW4Ga62tbUaHyRKUUJQFx6BloJUmcCZ1H4JCTJW4fxOVof/wqL9t2YdDB1xd3oz+1LyOEYLwNeTv3uRrkbuBb3a2nOX8uJC4aSDkhkMlACEIf+oaNx+wHOgqRDkTHdjtl76Gy7NulAEnX+/TNoXn807q8HXgfsnnRIZRrE+T8If8ZjI7/j9IUbkg5IpBEpAahEZnhnCL8GdCUdihTlQB/55v/m5Nn3Jx1MzSy7e3umN78Z5x3AK4BpCUcUt8dwLiPwS2idfjmLdn0i6YBEGoUSgHJlsm8DPxts16RDkZI8gNlpdLZdknQgVbPitmk8NfMNmJ9A4ZN+a9Ih1cg64Je4n0tX+irMPOmAROqZEoBSLV81k7D1K7i/K+lQpBL2E8LRd7Gk45GkI4nN+dk5NPlisPdTv/fza2UY7ELywXd1sJTI2JQAlKI/ezih9YO3Jx2KxGIA8046269POpCK9ORegfmZGK8DUkmHU2dGwH4BfIWuthuSDkaknigBiGKFp3gq+ynMPo7eYCebPNhnGZj32YYqXrPUAzqG3wT+EeAlSYfTGOz/sPzn6Zx/VdKRiNQDJQDFFBb6XQgck3QoUkVmvyY/elLd3xJY6gHzc2/D7FPgz0s6nAb1Z8w/z+L0r7ROQKYyJQAT6Rl+AUF4CYViKDL53QX2Frrabk46kDFlhl6F25cwXph0KJPESgLOVPlomaqUAIwnkzsJ/FymzgpqKXgS41Q60z9KOpCnFcpKf4NCsR6JlwM/wcKP0jl/IOlgRGpJCcCzuRv9w5/EfSn6+UxVDnyCrvTnE43ivNxONPnnMN6J1p5U2wbcv0XTxs9x0sLHkg5GpBZ0gdvSitumsX7GuTidSYcidWEZ09vexyLL13TUQhJ6Ku5foHDQjtTOGszfQ2f7pUkHIlJtSgA2W75qJvlpPwc7MulQpI44lxJMeweduz9Zk/H6BjtwO1/Pw8T9kHzzB6ZU1UiZcpQAwOaV/lcAByUditSlGxix13Jq20NVG8HdyOTejfFldJhUvbgf5wN0p3+YdCAi1aAEoGdgd1KpK3H2TzoUqWf2d7Cj6Zr3YOxd9wzsjqX6MI6OvW+Jgf2E9RvfyWl7PJp0JCJxmtoJwAVr2kjlfwfslXQo0gj8HzQ3H80Jcx6Ircve7KuBPozdYutTquFugnARi+f/LelAROIydROA/sHZhMG1wMKkQ5GGcjP55ldVfG/4am8iO/xZ8A8DQTyhSZVtAPsQXW3fSToQkThMzQTgorW7MDJ6DbBv0qFIQ7qVETui7DUBmeGdwX8MflTMcUlN2E8ZbT2ZU2Y9nnQkIpWYegnAsru3p7X5d2jBn1TmL9i0o0reHdC/Zm/C0V+A7V2luKQWjFug6Vg652STDkWkXFNr6nFFbjqtzb9GF3+p3EvwjRdxtTdFfkTf0BsIR/+qi/8k4OyPj/6J3qEXJR2KSLmmTgLgbqzz84DDkg5FJo03kh2+APfiM2l92W7cLgGbUYO4pDbmYHYt/dnjkg5EpBxTJwHoy30ZOCHpMGSy8cVksksnbJIZWorTA0SfLZBGsS0hF9M7dHrSgYiUamqsAejNvgfje0mHIZOWgy+iq/2nW311qQd05L4HnJZMWFJT5mfR2f7FpMMQiWryJwC9Q4dhdjXQnHQoMqk9QWiHsqTtFqBw8Z+fOx+jO9mwpLbsS3S1fTTpKESimNwJQGGv/43A7KRDkSlhkOamg7lz9kN05C4AupIOSBLg/mW62z+SdBgixUzeBODsVS1s33It8JKkQ5Ep5UqMe3Wi5BTnfI3u9IeSDkNkIpM3AejNfh/j3UmHISJT1sfpSn8+6SBExjM5E4BM7s3glyQdhohMaY7ZO+lsOz/pQETGMvkSgExuLvhNwM5JhyIiU14es0V0tukDidSdyVUHYKkHQAZd/EWkPqRwX07f0MuSDkTk2SZXAtCR+6AOWBGROjMdt5/RMzA/6UBEtjR5bgH0DXbgwS3AtkmHIiIyhptY33Qop815KulARGCyzAC4Gx6cgy7+IlK/DqR19NykgxDZbHIkAH3DpwCvSjoMEZEiTqBv6INJByECk+EWQM/A7gSp24Edkg5FRCSCUcxeRWfbtUkHIlNb4ycAmez5wMlJhyEiUoJhmvwATmx/OOlAnuPsVS3s0DwHT83C2IUw3AWzXYCdMdsOaAUg9JmYpZ55oIeYPbrprxswewJ4sPDHH8RTDwAPMt1zLGpbV+P/KxlDYycAvUMvwuwGJsutDBGZSn5IVzqZI8qXrWxmm933Ie/7YewJ3oGzAKMDmEu1rw3OvzEGcAYxGwTuBm5mfepWLZKsncZNANyNvtzvAe2vFZHGZLyDzvSPqjrG2ata2GHawcBBhHYgZgeC7wtMq+q45QmBu8Buxv0m4Aby0//EKbMeTzqwyahxE4BM9m1AdV84IiLV9TCp4ABOmjccW4/n3z+D5nWHAi/DeTnwYjZP2zemPNjNEF4P9geaR6/hhAX/TjqoyaAxE4CrvYls7p/AwqRDERGpiPNbutqOwczL7qNv8Pl46ljwY4FDgabY4qs/jvN34HLwy9km/WcWWT7poBpRYyYAmezJgA7YEJFJwhbT1bY8cvOlHtCx5gjMjwM/FmdBFYOrdw8BVwAreHTDFZy+cEPSATWKxksAlq1sZvqu/5riT3gRmUycf+P557Gk45EJ2/UO7YvxVrBOoKM2wTUQ41HcfomFP6H1id+waN+NSYdUzxovAejNvgfje0mHISISL/82Xe2nP+fL/YOz8eBknBOB59c+roZ1P04fqdS5LJ57R9LB1KPGSgCu9iayw3eBtycdiohIzPIQHkzX/L8Dm7Y5Bx8AfzvQnGxoDe9G3M9hQ/NybTN8RmMlAH3Zt+P8MOkwRESq5M84fRjvBfZLOphJ6AHcv0c47TucPPv+pINJWmMlAJnsXyhsaRERESnXBrAVWP4LdM6/PelgktI4CUBf7gjcr0k6DBERmTRCsEvwcCnd7bclHUytNU4JXfczkg5BREQmlQD8eMxupm9oOT25KVVbpjFmADK5ueCDTO7iFiIikqxRnAxh6jOcPDeXdDDV1iAzAH4yuviLiEh1NWGcQip/B5ncF1lx33ZJB1RN9T8DsNQDOnJ3A/OTDkVERKaUNbh/jK50f0WlmutU/ScAfdljcK5IOgwREZmyfo+F755sOwbq/xaA05l0CCIiMqW9HA9uKtwWuK0ej1EuS33PAPQMtBKk/g3MTDoUERERjFtwO5WuthuSDqVS9T0DEDS9Fl38RUSkXjj7g/+BvuznWbayoUs013cCUKiBLSIiUk+acM6iddc/khneK+lgylW/twBW5Kazzu8Htk06FBERkXE8gXM63emepAMpVf3OADzJEejiLyIi9W07jAvozf6w0eoG1G8CkOK1SYcgIiISifF21q1bSd/g85MOJar6TQDclQCIiEgDsb1x+wuZ3JuTjiSK+kwAerN7AFPqUAYREZkMbAb4T8nkPo17/a6zo14TgICjkw5BRESkTAH4Uvqz/Zy9qiXpYMZTnwkA/rKkIxAREamI24ls33oVF63dJelQxlKfCYDbYUmHICIiUjk/lJHRP9Gf2zPpSJ6t/u5P9A/OJgzWJh2GiIhIjO7BeDWd6VuTDmSz+psBCPXpX0REJp3ZOL8nk3tx0oFsVn8JAMFBSUcgIiJSBTuC/4ae4ZcmHQjUZQLgByQdgYiISJXsQJC/kr7cEUkHUocJAAcmHYCIiEj12AzcL6M/e3iiUSQ5+HNkhneG8IGkwxAREak641FCP4ru9huTGL7eZgA0/S8iIlODsz1ml9Mz8Lwkhq+zBCDfsOcqi4iIlGEWQeq39AzMr/XAdZYABB1JRyAiIlJj8wiaLufCoR1rOWidJQA+P+kIREREas+fx6j9vJZnB9RZAsD8pAMQERFJyMuZ2fKDWg1WXwmAKwEQEZEpzOgmk/1YLYaqnwTgam/C2DXpMERERBL2v/Rnj6v2IPWTAOTu3ol6q0sgIiJSe0bIBfRm96jmIPWTAATNdXlesoiISAJ2xLiEZWu3qdYA9ZMAjJoSABERkWccwPSRc6rVef0kACl2SjoEERGRuuJ2Ir1DndXoun4SgLzPTDoEERGRumP2Xfpze8bdbf0kABZMSzoEERGROrQdofeywlNxdlo/CQCuBEBERGRsh7E+99E4O6ynBKA56QhERETqlvNp+gdfGFd3dZQA0Jp0ACIiInWsmTC4gGUrY/nAXE8JgIiIiEzsQFp2/UAcHdVRAmAjSUcgIiJS94zPxFElsH4SAGND0iGIiIg0gG0wvldpJ/WTAISuGQAREZFoXk1v7i2VdFA/CUBgG5MOQUREpGGYf4WegbIX0NdPAuD+RNIhiIiINJAOgqDsBYH1kwCQejDpCERERBrMx+kfnF3OA+soAXAlACIiIiWxGYT2mXIeWT8JwKg/kHQIIiIijcdOJjO8V6mPqp8E4MkNmgEQEREpXQrCj5X6IKtGJGXLZB8Gdkg6DBERkQaTJ0jty+K5d0R9QP3MAADgg0lHICIi0oBS+OgnS3lAnSUANpB0BCIiIg3J7R30r9k7avP6SgCMwaRDEBERaVABYf6M6I3riWsGQEREpAJdXLR6tygN6ysBCFmVdAgiIiINrJXR5tOiNKyvBCDglqRDEBERaWgevo8VuenFmtVXAtDVtgZQPQAREZGy2a6s97cVa1VfCQAAfnPSEYiIiDQ059RiTeovAXC7KekQREREGtxhLB/aZ6IG9ZcA4H9POgIREZGGl7dTJvp2HSYA9oekIxAREZkEujh7Vct436y/BKA7fTdwb9JhiIiINLidmdl67HjfrL8EAAC7PukIREREGp75ovG+VZ8JgIW6DSAiIlK5Y+m7d9uxvlGfCUA+dU3SIYhIXVgPrAFuxvknMAhsSDQikcayDeGG14/1Dat1JJG4G325YWBO0qFITeWBP1F40x/P84B5tQlHaux+4Fe4/R8+eiMbW7KcNuepMVtmcnMJ/GCcl+McBRxQ00hFGon5xXS2H/+cLycRSyS92fMwJtzCIJONfYmuto9O2OTCoR0ZtQeo19krKZ3zNwL/Iuvu/zmnHTRS+uPd6MutAvaIPziRSeEp1jfNenZCXb9vooFdlnQIUmPuDxRtc2L7w8Bo9YORGngMOIXBtoPpbP9JWRd/gB8O7Aq0xxqZyOSyDS0bj3z2F5uSiCSSYP3vyLeMAM1JhyIisbsT53Wbtv1WZjT1Dur5vUykHljwGuDXW36pfmcATlr4GHBV0mGISNzsX9jGw2O5+AOEtjiWfkQmt2Oe/YX6TQAAjB8lHYKIxMnvo2nkNXTueV8s3fUO7Yvxwlj6EpncFtKb3WqdTH0nAOtGfoa2/IhMFo4FSzhxwVBsPVqgT/8iUQW8Zut/1rPT9ngU5/KkwxCRWPyMzrbSF/e6GxcO7Yj71ruWlnoAfmJcwYlMem5HbPnP+l84U7gNcFzSYYhIRUYJUh+L3Lovux/Yf+H+Cvpye4FBX26ETPY+4DbgesjOAFNNCJHI/LAt/1X/CcB0+yXr/CFgp6RDEZEymV3A4rl3FG3nbvQPfxL3T4M/e4ayGZi76c+r67mMiUidmkPPwHyWdAxCvd8CAFjUtg4jk3QYIlKBMDw7UrtMdinun6ER3ptEGpE1PT0L0BgvMkstAzzpMESkLDfS3X5b0Va9g6/H7JM1iEdk6jI/dPNfGyMBWDz3DvBrkg5DRMpgvrxoG3fDgq+geX2RanvJ5r80RgIA4KaiQCKNx8mHxet59K15KfD86ocjMuXtwwpPQSMsAuwZ2IFU05dwf2fSoYhIqewOlnTcW7ydv7H6sYgIMJ0Na/cE7qjvGYDe3IkEwR24vwtNDYo0IP9TtHbha4q3EZFY+OgBUK8zABesaSOVPxf8GF33RRqY+5+Ltlm+aiZ5278G0YgIQMh+wE/qLwHI5N4M+fPQvn+RxudB8RmA0WkHY6RqEI2IAFgh4a6fBGBFbjrr/Wu4vyfpUKrgMYwHcB4AHsNpwdiRQpKzE9CabHhPc+AR4HHgSeApYCb49mDbAy1JBpeQEHgUeApjA84MYFtgm2TDeo6NwINb/BkBWnF22uK5Vuvf33rmz7u9aCuzA2sQy3gew1mH0UzhdVhvv9d6th64B+MJnI2FL1mA+fY4rcBukFhit25TfI+ABeAzgZkJxlNv9oB6SQB6h/Zlnf8I2C/pUGJyE/iVuF/Lhvz1nLbHoxO2Xnb39rQ0HUTAwbgdDBwK7F7F+DYCN4BdD76K0FaTSq1m9exhllo47qN6Blqh+Xmk8vvjvBzs1UC6inHW2lM4f8C4Bmclod9FRzrLkTb6nJbLh+cxmt8bC14GfiTwMmr75rIR5zeFWP1atkn/g0WWn/AR52fn0MTBOAdjHAwcRiGZqcQDwNiH+zirxvzZPZsxHefGCGPNB3YuJbgtgnkcgmvBr8b9Jprzd7GqI/ec5/uK26axYYcOfHSvTa/FV1LYNlWN98pB4K7xQ2anCU46HMH5MwHXgw3gDGMegs/EbQZGB3gHbgcC+1D5jq8Q+CNwNYFfx0jTv1gyZxiz8euzXO1NZId3I/AFuL8It4MxXoqzoMJYni2HcTXY78nbbXjqbk6eff9zWq24bRobt9uT0A4g5AiMo9l0IZx6vAPq4QZ7b/aNGBcC2yUdSoVC4BcEfIPF6esq6mmpB3SsOQLy7wB7C/HcDhnG+TFBeBmtqT+xqG1dxT26G5nsoZi9F1hEpW+Szn/Tnf5q0XaZ7AZgWkVjbe1GzJYx0vojTpn1eFk99A/OJh+ciHE60BZjbM/2ENg5jPq3OSW9tqKe+u7dlnDjG4F3YBxD6T9TJ59q5+S5uYriiCozfCSEJW4Htj9i4Q9oDX5a9nP+otW7sbG5C/N3Ax1l9fFcIWF+Z5Z0PDJhq0z2r8BBW3zlHrBvkG/qHfMiN5YLh3Zk1C5ni/3fJViD8X1GU32x/Z4zw3uBvwl8CeVv/RwB+xHG+Sye9/sJE5GJ9A8eShicAiymUGp6Cgl2STYB6Bv6KG6fo5HqEYztTrDFdLXdEHvPK26bxvoZJ+B8itLffEYx/zEE57J63nUTfrqvVP+avQnz3wFeVXYfNU8A/A4s+BiL5/2s7DeQZzt7VQs7TDsDt6XEP+X+Y5r8PZzY/nDM/UJmeGcIzwROJ2oybqymM127T1C92XdgXBSx9U2E9lGWtF0R2/jLVjbTsuupwKcxdquwtxG60sWfw33Zy3FeA2zA7PO08pWyEplM9joKs1RRPYj7/+DhOSzpWF/yeJFiyr0Y/C8lPsqBH+F8ku703bHF0jfYgQffB46Jrc96535QMglAz0ArQXAu2EmJjB+vC7Bpp9O5+5NVHWXZymZaZi3B7DNEuz1wPUHq1EgHsMTF3egb/hD4FyhnOrx2CUAe/OuE4aeq9ubWP3wgYfhzCtPWlXoK7DS62opX1KvUBffMIjXyYeAMiv0OnZ/TnX5z1WPaLJP7AvhHi7QaAT5Luu0LkW4/lBXH8M4Qfhd4WwW9lJIA7A12HF1tN5c1Us/AfILUaqLP+K7ANv4XnXveV9Z4UWWyHwM+V8Ij1oC9k6626hwR7270587E+RJTYa2A2/G1XwNwXm4ngvBXYIfUfOzY2RfpajurJkOddtAIcA692UGM3xRp7di017C4yknJsxU+RX+FvmwOp596WWOyFX+cMFjEknR8nwzHsnjeTVy0+qVsbLpsgvu4UTyF81q6234fW2wTKUwr/zeZ7DbAeydu7OVdkMoWHlDkGvYAAf9Z8S24YrrmPQi8nUzuD+DfoJoXC+cumke7OWHBv8vuI5U6EY908R/BOIPO9HfLHqs0JXwAtD+Sbzou8m2PchTev75Gb3YVxo+pn8XZ1RGEbbWdeu8Z2J1pfs3kuPjzQzrnRT/fPD77Rmhj2MZKLjqV6Uz/CKPYJ7UkPECQOjzWaeGJnLDg34za0Th/K7MHx62T7nRtLv5bj1x8X75xSw0i2XLAiWJaQ2iHVv3iv6Wutm8TcDyFWYfqeHTDhyq6+AM4J0ZotR7n2Jpd/HuHXkTU+//OpYSjR1X14r+l7vQvwf4T2FCT8ZIS2i61SwD61qYJUr+P9MZS92yI1IZ3x3bfuKSh6YrULh+xXbUsbvs61NP5Df44Ia9j8bybajrsqW0PkQqPBcpYsOfn0912cewxFXPB0AIsyv3iVO1mAC4c2pHxF1c+iPsxLGlbVbN4Nluc/jlm3RQWAcfv9IWVXYSiXWhHwP6T7vSVFY1VCgsWR2vHNXh+UdVu1Y2nq+1yjHfXdMza27k2U7SZ4b3w0d8yWbaMuZ/FSQsfi9z+wqEd2RgcSCqchdtGAh7C/EHWB/dyattDkfvpGX4BhNH2TBtvZdna0zltzlOR+99s+aqZ2LQUD258quw3IDOnJ/dBAv5BPSzyNE5hSfqvJT9u2d3bs23TXPKp3fAwT8rW0jJvoOiWuy0tnn8PfYOL8eB3RL4P64/T3Fza7aWe3ELMn09ha9+T4A/i4YOkpudKWqOSojNCnE8xMHf8LWxxywcHjHMieEhoJ7EkXfy44fGcvaqF3fccLel3uqXOtovoy+6HU5vbgSWJsM7KOIPOKt1XH8vV3sRQ7u0RXglZNtpbOLXEi/8KT/F4bjeamYP7DljwOE2puzlhzgMl9dOZ7iWTeyV4tGSl0ZjtXP1FgP25PQn9Oqq7r712jNWsblsYaUV939DL8GAp+CsZ/w11AGwlzkpS+d+xeP7408W92W9gfDByrG4n0d124Zjfu9qbyA2/CMJDCG0/jOdhzMaZw9b3vkZwVmHchNmvoPkXJV1MMtnLgNdGi7dqiwCX0ZWOns33rU0Tjp6O2fHg7WO0eATzX4N9k870ysj9ZobOBTs1UlvjG3SmzyzabqkHLMi9B+cMxt/TnMf4J85KjBug6TI652THbFlYCHVXhL3aG3AWga8Z87vhtGzRKdsVt03jqe2KzwgGQRPuHwPGODDIv0JX+4eL9vH0mJ5iXe5YsLfg/iKM3Slssw1x7sdsLYTXY8GFdLZFX6F+tTeRzV0HvDTiI6ItAoyi8AFjHil2wllHPriHjjn3cPfwTJr9X8CsCR79Q7rSJ5Q03lIPaB9+OSl/IyEHFXZE+GywGZtaPAY8CpbDPYv5P4AbmR78gUVt68gMHQt2aZFR8hAcTte8iGdJAH3ZY3DeQ2En0hj1Lexf4BcxYt+N/MGrsODzdib+GTYou6q6CcDy4Xnkw+uIZyV0nbCldLV9pmizTO6/wL9F6bUWBoFLcL+I7vZniqMsW9lM66xhsF0j9+T8lu70q5/+d89AK9b0eoy3FQ5fefoFW4oHMTuLzrZzI7Xuzb0F859GjDf+BMD5NxtG9i5ajAm2XAX8WWB6pN7h+0x//AwW7buxaOv+wdmEwd3R+rYDi676PntVCzu0Xoz76yPEuiUHbsT8Yjzop6vtmYt4f/ZwQuJYc3AcXelfTNiiZ/ilBGH0N/jnyrK+6fmRZ7kyw4dAeC7R1tGAcQU0nTZusvRsPcMvIAhXEm1RYGUJIddX9gAAIABJREFUwAVDC0gFp4O/FthrjBabK+HtOEEvD5Jvfn5J99b7cv+J8znw55UWMBTisT+A7wPMnrCl8X0600UWoW5ywT2zaBrp27RdMor7MT+FzvZiSUhBb/YMjK9H7LuR3FS9qdmL1u5CPrySSXXxB0IrtgJ/8/7Wb1JeoaX5wJmYrSQzdBWZ3GtxN1p2e2NJF38A4yh6Buaz7O7t6R06C0sNFi7G/tYyL/4AO+N+Dpns1yK1zrdeSZKLacw+EeniD9CX+yrOV4l28YfC7/e9PDXjp5vP157Q4vn3YPwgQr9r6ZxXfIHd9tPOKuPiD4W4D8LtC+Cr6c320DtUuCiGnFJGf2OMEBZfH2D5Ayoaw+1jkS/+vUOLILyGqBd/AOc1+OiNZAb/I1L7JfP+gdMbuf9yLFvZTG/2G6TsTvAPMPbFHwrP4Yku/uB8MvLFf8Vt0+jLZnC/uMyLP0Ar+FEUu/jDI2y0T0TqMTO8M6mRP5Zw8QeYhdvP6Rt6a6TW29gPgAhHWjcYY0Z1EoDlq2YyMnoF5Vd5qld5GPlH0VaF8wxi+NnakeCX0ZdbReDnl9FBQJD6E9ObhzD7fAzFS7Z0Jr3ZVxdtVais9/cYxy3FMNMf64vUsi/bDRSfch+L8QbWZb8QqW3g5xXvz/5edIGpu4FF+4Q0sWkY3ZjdQiZ7K9AZQ5+Psbh9sGgrq6j09wDt834cqWVf7iWYLae82hG74MHl9A8Wu2gVWPBlqrUgcPmqmbTs+n+bbgNWuvUwxzaPR3tPWeEp1s+8BI/luRGBLYs0Rb9sZTPkfwLsWcYgAW6Zwoe1IgqFl6pfg6PWnGnxJwBXexP5louBF8Xed/LuibQa1WJPfPbA2b7Mx+5ewWMnZkWLshREq/MeP7dvR5qa7xvswPl+ZYPZf9OXO6Jos5Pa/wk2cULkPlC0n557dyHe+5JG4dNxDLcF7dZIO2SsgiOAnW9HKvSz1APcz6OSMq/GboTBNyO17Zp3J9hlZY81HncjP+2HGIfH1OM3I702ANbnlpY501SOUUb97Egtp+/64cKHpLJNh7CPq734YvggmHwJALTEnwBks1+nknKw9cyJtvLfiL9Ua12yQzh7VZRyt/GV7IwupMkilo21zxJH0Q/nk9GG818XaVH8efbEE48B1al0VymPWCCo/C3BIXmiffpfkD2ReA4Ze2ukT4sA5mMvvK1EZvgEsNfF1NsItjHaBa13aF+c6IssK3dVpDMuMsM74/6RyoezvRkaLl7RcfG8m8DGPvSqccWcAPTl3gn2X7H2WU8s6qcju6S6gdSNVmZMLz7bEfhwDWJ5tj9y0rzi415wzyzcjo9nSH8lfWujbHW9fuJvW/HX5ekLN+D8KlpcNVc8Acjk5lL2yX5cH/kgJA/iKtZlEPWCM+1SINqn6yjcjSCOi90mZldGLvMb2HeI9+CtYqIldh4uqWAd09Ys6ja/sHZFpmojxlsA/dnDcf9ObP3Vpx0itWqddwGworqh1AnLF38TNyY+8aw6ohU1SY2+nfgO7TE8X3xdRD4/8fYy82i3bPK8D6h98ZtiAi++gDGsoCCY89tI7Xpy+1ewYG0sr+f8+4tfdDp3fxKn1ENuxtc7fEysBdTco92iyOQOwHlFbONGEmGRNYB5lOqGUb2SFbkIC3+D+H6n9SGmBGD58DxC/ym1zRSTsHukN4BFlmd62wmYn0VhO87kFQTFL1aewM/APVoVQvO4plU39cfBRdsUjoC9Z9zvu423sntrp6TXQnAIcBHjVMlJgLNutHgCEFRyQfOrIzUL/LjyxxhTC81PRVttHnBtbKOaV3Lo0HN50bNENgmj1ayIz51bbUkdT//gbLBoBdGiaebJKP2F/4pxzHqQr7wS4FIPyGf7St6i1piM1LpDiPLpslBV7ItctPY8Rkbfg/O+mFfhx+khnBsxVoM9AuHDwCM4TsA2OC2YNREym8Dm4z4fPA02g9CLf3rOp0YJqncS8Vgjsk1QvP6+u9GXOzTWkd33idhyFeNuh/KDWXHbtEiLtAoH05zI8qHPkeeMTZXfkjzEZCjStkvz/cpMWUKCluI7cQqDvCL2vCi0VwI/KdrO7W+xjW28Mp6OAHiohGN04008ijGPVqnT7WXEslh1y7HD5wN/nrhN8514fS67KdOGyhOA+dmPVLgSs7EE9haiTi8Dm8pPfpazV32ZmS3/WSjCwzEk+yb9CNilePgrPLyBJR2DZfVy4dCONE+v3kEo5bs70pnpy4f3AGbGPPa8iO0enOB7M3lq26OBYosFn3FS+z+Bd9J318fx5ndAsAj8EOJ+oywu4gJAL3ay39iMwciVKN33rcL/fbQ6AiG3xlIAe/mqmeTHPQOhDEV2oGx2wdCCBD7U3RqpldsLYh85sOI/49amh1inBOAZfbmX4F68Kt5k4n4SF63+VMkndBVq6v8Q+CHL7t6elqY3gR2P8WriuwddzF1gX2J96qKyzgh4thPb63O3g3NHpHaL2+6i9hfIAufRCUc2+3+UkgBsVljc9S3gW4UFiaNvxTkeeAm1+H/1CCcEFsrmlrdV1ol2/sCFQzsyWoUZNyPaDM/8eQNkc3kq3a+fb96DOH9v7tHWjDTZi2t+U8mDaK/brvTHgY9XN5gxvHXWk/TlRqnLY87LsrH8HHX5qpm4X0gl+2sb0zaMNH+loh5O2+NRutv76E6/kdSGXXE7CedSqret6wmw01l/3z50tZ0Xy8W/FCmv7VuJlXPyXo0FVmSrnx0ZuVLZeDrnZOlMf42u9CHkU+2YnwFEP7ugLBG2AK7J7kW5Sa9H/N1utHKKw0Sx86aTCSdWqFEQbaX9hJqiLTyOKiDqjpzKqjSWp/j9/yQVals8nnQYMdpQfgIQtnyR8Q8fmeR8cWHLYwxOWvgY3W0X0p1+I6O0U8hsY7yA+T/I+4F0tX2b0w6qx+n6KrDxF9jVC/cnirexc+gZiGcV+8lzc3S2f5Ou9MEEwQuA7wHxJ4IeoQRwvoICQGbRZt7M476184x8c8TtZ17aLOGYwnj/P3yCxadbt9sp1nGjyAf1/7qF4q/bxrGuvASgZ/ilOKfFHExjcf8Bfdn3xdrnKem1dKU/z6MbFgDvg8jZ+niuZH3zYZzcvjqG6BqHRbi4Ji/KGpAdCFK/33Sme3wWz7uJrvT7aB5dAP4V4tupso5t5xefYq5kS5tFTFrMtit7jGKCkYh9W/RTM8ftIuZEJurPL+qW5zi1jE6W122jeKj0BGDZymaCcBn1cMZ7sgKc75DJfi3aHtISnL5wA13p7zE6fR8Kn9TKmEK3PzLdjqv5dH99KO388ER41CImszCupjf7jthDOGHBv+lq/zCBHQCxbFv756bdLxOzSmoAhNEOljIb4zjYmIRBxN+dxfA8tLgTgKgx1T4BaA4a4HVLPMWH6sODpV/EW3Y7g2TuD9WrM1nnN0c6GKdUp8x6nK70+wonXXkJ9578PoL88ZFWwo9n2d3bc+HQjpyX24lla7cpu58khFU6jCVWQQlvsDYD4yIyQ7+mNxv/bbfFbXfR2XYk8KkKe4q2A4CKZgCSWbS5pbxHfX5VHmsY4ZTJUniEKpMAFuGchbjdu76+X7c9A61MrhmAB0tbzdgzMB/zT1cpmEa2J8ZvyAz9CbcvMtj2K5ZafE/m7vSV9GVfiXM5sEvxBwT/j8Vt0e+nrchNZ134eiw4Gg9fDOwBNoNRoNmheRQy2RB4FONhnBzGEKEPkgr6N62mrycN8CL1BaU/xl6H8Woy2RVgX6KrLeoFN0LX5sBn6cvej/Ndypnhi7ID4Pz7Z8C6+SX3/cwY0X63oT9RtVShKRXtTJB6fB6GUY+6Dh+p+QaZlqCVJI8OL6Y5WEDx+a1GUmICEKQ+BzTWp8GaskMwfkFHLkdfdjmBL9+0P7tynemV9A2+DQ9+y4Rvzv4POtsupCtCn2evamGHaWewzs8Em4U7E7zoA2BHnB2BBThgBmF4C0TcmlUrFvFNrnfoMCz4QJWjeRYfAbYDXlhmB03ACeAn0Jf9K2792IYfR67tXkxn+gf0ZXfG+d/SHxxhB0DThv2o7MoS7f0nCJ/Aq3SXcmM+4mycV28dQrmCiD8/t+LFnOK2TWoboPi4vUNnYcF/VD+gLbg/SZ6X1HTMajMvIQHoH3whIW+vYjiTSRvOWeTtLDLZVcAvCPglLW1/jHSPdDyd868ik/068KEJWn0z0lGs5+V2oplLcY+3Et5YvMY7is2i7f9OsQ2hV7bVLknOweAH49O+SSb3Zwh/SRj+giUdlZUsXd32BTpyb4AS3/DCacUTAM/vj1X0yXKc6onPYjxStWdd87SIF0ffPakyE+Ny5kRqZzxU++LSTbsyUYnszQJ7Hl7j122d/Rpj4dwTPUXOB19EC//KsRD4ECG/Z112LZmhc+jJvYYVt5V3boJNW8r4VeRGWD/686J9uBvNfgnU4OKfiHBupGajwb1VDqRWgsLv0r5IkLqdTPaf9Gb/l/7B8mYZllqIhaWeoncPJ8++v2grq2ALIABBxAvYyF1U53yE4UiVCFfcNg1sVhXGr1AYrVJlaBHLLcfIPdrrNvTJ8rpNlgWD0S7o/UNHYxxd5XCmANsV7J0EfjnrZvybTPYHZAZLm8rq3P1JsHHO8vaVkeqw9+UWAUeUNG4j8SDi/fXRHPVziE6cno/xccLgRvqyd9OX+1ThAJUSdM6/itJOGix+/7+gwgTAox2UdNLCx6h8G+1Yot3Se2q7hdTl58aIB03l/U9VDuS5PGJdGQtyVY5kikgNFE8A3I28fbEG0Uw1OwCnQfA3+nK/oj8XvXLZeMd5WhDtTdgn+60c34dlK4tXqCycyndb9eNJkLMA988QBqvJZL9G373Rt8eZXV7CSNXfAVAwj56BaDsorAq/26h9BpXOdFSJcSDuxROTU9JrwYZqENEWwoi7y/J/qG4cU8IIrbPXFE8AeoePwcpesCRRuL+e0G8iM3RspPbTRm8a8+uhR8uMJ//vs4Vpu0c7tAWuqWYgdaQVOBPf+DeWD0ebBnYf+3k2FouwADCTmwsxVJgLgoMitXN+W/FYzxZyRcSx4y3eFBdne5avjTYLYPyiytFszS3a+9JA+01AfZ5D0iiMHIssXzwBCPjvGoQjsA3YT+gZmF+05Ts67oOxNqR41O1JdXhvMmYWRjuhMrSLqxxJvdmLfHhxpE+BZtHvteZTUWafYqofEvH0UY/5AmY8yjaPXxOx9StiHTtO+dFjorXjPGp5i8w4kPNyxRPEwhbrn1U/oEnMbQCKLerryx4EHudZ1DKxVix1atFWhVX+zy3yE71ISuUlSutdQLTCTEvargFuqGos9efF9OeKf0LNRy4bO8Lj624v2qqSEsBbi/a77U7fjfO3mMYE5xIW7buxaLsL7pkF1HabWinMXhep3ZK2W4CfVDeYraSYFh4VqaWFX4VGKPhVpzbdypo4AXB9+q85o/gCtsKntzH280Yuf1rb0/LCGp8GCOAcRd9d0c4zD/wTTLU3kzBCISLLR30+3bHpuOsi/bFfxP6KOShyRUSzMuoZjClPkPpSpJbByPFUegxwdR0VeVHoKGcAD1U3nC24RVuf1Dn/dqC/usFMarfCRAlA32AH8JZaRdM47O8QvhDnfKoyPWbFC7r03LsLY/3ujIj3dvlrqVE1oGZoPiFSy8XtvwX/bJXjKY3xDSw8CvhLVfoPgggn1QXREqjIOwDC+BbGmZ0UqV3nvJ9jcTzfvYfFc6OdV2++uPLxqqoJtyilwgqLAd0XUbsKfcdy0doI1U4Bm/Y+LPLuE9lS3m6BiRIAD06lvrPYZLh/m675f6c7fSoBRxQSghhFWWTUvGHh2LHZ3pHGcPsWMPmPBvbgg5HrLQyk/wfnm1WOKKoRmpo+T+f8qxhoOxTnvcADMfb/MI+s/3PRVhZxy1iUBYDLVjaDPT9Sf5GE7410CFfhdtnJVHL0sbGaJj4cqW1m+BCwQ8oeq1bcTo98iFl3+//hfhR4PNUmJzaNjaMfjNSyc/cnSY2+Abz2NQsam7PttAlmAFZ4CiIVk51q1tG04ZlFY4vT1zEw7yCck4GByru3/6N73m+KNgtTh439DX9JpAvekrZbcH8/Yy4knEy8nfUzTo7UdKmFdKfPAN6OE8M57k+7C/cvg0f79AiA/YYT5jywRVzfJ8wv3NRPCYdCjesTkabs3cd5nj1bUDwBaJm1F9ASrb8obFfWUXy9DEBn+lacN1PW2hcbIuTVnNgecdW5l1pAKSmzWe/vjdy6u/0PNOVfjHMp1V4YaPxX5FmAExcMMT04FFgGxHWAUR64ctNR2bU/FKnajAEW7foEjJcArB8+BohWlWlquXRTgZFnFN6ge5jethC344HfUc6F1bmOcPT4SGV88deP841tWTcz2iKa7vZz8PBNwGDUEBuS8zkuWh2tNDBAV/rHbGMdGO9n032yEoXAzRhfIAwOobNtL7rbP4KVsp7Gn1voaUnHI3S3f4T1o22b1uaUGZstpSv9vaItL1q7C8ZLI/U6GqH+RFX2xfvSyBeK7vSVuL8E7I9ROwcuAnsR3em7Iz2iJ/ca8GhbeeuB86nIW0KhcLHtTr8R94OBi4DilR83j+T8E/gqxsE0jc4vksjOZCT/9chxLWpbR1f63eR9bwqJQDmzZU8BlwPvA2unK30MXe0fBpt8uw3cnl4YO/ZZAM6SmgXTSGyMN+bNCjX+LwYupu+uXfFpx4K9AvwgYAFjf/oJgZUY32egrS/SCYKFxU+Hj9/A303hiVxc9/xfs8KvYN3wGzE/DucQYA/GTAz9cbBhzFYDd4PfjoU305KK9xZI/HZipOn7uL8lWnIFm45R/i7wXS5avRsjTa/AfR/MdimUdw23heBJjIfBn8R5AmM1cCtMu32rUrGbX0nr7r+C1l0foPhpjo8x3X457ncLlR6/CnyV5UP7ENprCTli0wK7NGPftnsC+DXGV+lsWxnpZzAyciJY8WJK8DAnzy1efyJkvyrUxdtp04WiM1Lr7vbbgMPozb4c463AwRQ+6OxKIWlfC6zBuQ7PLy/pTIXz759BsO47pf4PJGwm+fwy3I+N/NoA6G6/ETgRd6N3zYGk8vsDOxPaLpg1YR4S2iMQ3kvgw3jTTXTP27p8eSb7U5joOuOLyWQvpisdfSvnye2rgXez1N9Lx/B+mB+OezvYLsDOOCGBP4nbE2CPYOEjmP0L7Fbunrd67PdfvxBo3PNCxmLh04WUnvuSvGjtLoyMrgHKq1U/eT3A+vvmcNpBpd87X+oBCwfayKfanj7ONLRHad5wx3NmFIrJZM+ncE9zPA72UrraytvadvaqFrZv3YWA6YyEIS35PM3N9226KJanL3tQpIWHzn/Tnf5q0XaZ7AZKfX4an6Az/bmSHhO3vuz3cN4zYRunl+50eQn4itumsW77+cDOkN+WwDbg4QO0tt9Z0iFUPQOtBKlVEGlR6bV0pV9RtFVv9pcYb4gcQymMJXSme6vSd1SZ7IVAtEWnBSN0pYs/h3uHTsfsW2XHFYXZp+ls+5+qjvFsmeEjIbyqSKvHSPkhsZ2oWo4Vt01j3Yx7iKOAVb0IeTFL0n+FsWYANo78J2a6+D+H/6ysiz9sLlwxtOlP+foHDyWku0grAz+HnoGXsqRjfcljFO4NryknvLrm/A+Z7D10pS9ILIbQL8Rs4gQgsPL3XRf2qN9Z9uOfjqHp0+ARp4YjLAAEsNhqAIwRAt8nMzxE17yrqzbGRPpyn8K9lIt/fXH/NJncarraxp/hjNvA3GvpyGUpzFqNZyZ5+zUXDB216dN97S3adyN9uZ/i/q5Exo/fU2y87+lFk2NtJXtTTcNpFMZOkerLV8sF98wiDJYT7UTGAwlSP4hU7W3qCIDz6B06PbEIutJ/pOhiUZ/oDbH6Cvexo69XiHL+xPJVM4H2CqIqphXyv6A3+/IqjjG23tyHcf9MzceNVwDeS1+2u2YjLrUQ48IILeeTsmvpHYpa2jt+oUeJszEYN2z5QXbri8mK+7YDU+W/sbi9hZZd/0FP7hU1H/u83E6kRi4DOkp4VBd92WVc7WOv85iaDLNv0Te0vPBcr/Xo5hg/mrCN830y2Z9HKgkdt76hlxH4jylt+2/xGQBv3o+qn4xnMzCuJDNUm91Ly1Y2k8n+APNoxYHqXwqnh97sN2r3QSeMWshnHmZ/oXco2lqPuHW1XUd1TpZMwvVb/mPrBOCpDcfApnvU8lzGPgR+FZnsRfTkxt6LH7flQ/vQ7NcD0Q5A2Yq9k2zud1wwFPF43CoJqc3PKiq3E1m3/jZ6hxbVfOwwUsXBNxGkbiMztDTyyXeV6htajNsVwMwSHhVCc/HdCGHNTsZrAeslk72IzPDOVRslkzuA1lk3AKdVbYykGB+kdbe/0DsUcQtoBTrn315CIZ9tMcuQyV1as/fezc65Zzr45Cifbly59T+3lMn1Qd1XsaoXeZyfEPh36Wy/vnjzEhUWYp0JfAKIVrBjfE+BfZt809c4eXbUrTvl6xvsgNR/4H4IxhE4LyTKp8pqLgIc31/Av8r09M9KWihXimUrm2nZ9bUYHwZKfWN9DPcfgJ0TeTtaKXoG5hOkvg68uYxH30VXuvibcW/2OxjvK6P/SjwAfIHp9v2KFrBu6fzsHJr5BM6pQKWfkkfpbJtWdPV9ZugDYEkUqHLgZ7h/ne72+I/fPXtVC9u3vAY4Hyg1WduI0w/+jU07O6rjgntm0bTxFNw+AOxetXFqxXiUtrZdONJGn/nSZks9oCN3H6X/MsT5J2a/xP1y2tv+uOUPuGTLh+cRhl047yf+J90GsEtxv4Sw+XcVJwNLPWCPtQvJ519YOGLY/gP8hcCO5XVovyIcfSfTgvGL1OSDQ3D/dXn9TyiHczEpLuGp+/5c9oLPzTK5uRgvwTlu097wMn8mTwuB68B+jfnldKbLqQPwjP7BQ8kH78Q4kfIvZivoSr+taKve7O+xibauVpPfB7acIOhj8bzoxxtvVkjejsToppAkxTdD6v6xicsUB83gnwZeEtuYZfF/gF0C9gsG5t0aabvyWHpyCwnCQzGOxu0NlDbbNGZgwB8wv5hRflnxQsFlK5uZvuveuB+F2XE4hzOZquGaX0xn+/Fbfenpv/Xk9ieIuKJXJvIIcC3GP3G/Awv+heWzBLZ+q2piffduy2h+J1Iju+C2P9ghGIcC+xFtoV8choF/gd8OwZ0QPo7xFM7DGOtxWnHbhsBbCNkRgh0IfD7OfHj6T6WzE/VoXaHEs/8NZzXmOYx7CVmHh0/iwUYs2BYLpxUOYPLdsWA3CjUU9gc/kOon0lngD5j9C/c7ILyT0eDftPq6p59nKzzFE/fuRHO4E/n8bhgHUZiBOASIdhjMhOzDdLV9ZcImV3sT2dwjQNSDharpXpxrCPwmnLsgyGL5xxm1QsKZCrYjyG9H3vbEbE/gxcDLqI/Y64PxaGFLr92G+xD4GoyHcNu4aZp8B7BtCdiG0NIE7IGzR+EcCIt6tkS57qVwsuet4Fnch/HgvkJdAh4mMAMv3FKzYFc8nIUxu1Ci2g4A35fJvP3d7F10tp271Zee/lsm+14KxU+kutZRuMDHWBZV5Dk2Uu03s9CO3HSc8vh6hl9AENZ7sSiRyc7Jp9qfXbSraYtvH17tdboCTM5PzFJ/qv1JJqR5/d+KtrKw/g/GEZn8/jpWxc5nppqt5MVJIjJ1/S1SFUtL+v61iOCMWWCskAAUtom11TIeEWlg7pdFa2hKAESS5Xj+p2N9o5AANPGimoYjIo3NU8UPnMrk5oLvXYNoRGR8N7CkY3CsbxQSACe5Mosi0mhyDM2NcNiUv4mqVwAUkQnZ2NP/sDkBKBwlKiISxbkR94KXU1xIROIzygg/HO+bm2YAAs0AiEgUGxjl/KKtLhzaETii+uGIyAQu45T02vG+GXD2qhbwPWsZkYg0KOMrE72hPG2EN1B5uVwRqYT5eRN9O2BG615sWQ9ARGQsxi202uejtQ0m30E5Io1lLW3pCRfrBlg+2fPHRaQR3I6Fx0Q6WKcvexD4oTWISUTG11vsXJqAIDWnVtGISJ1x/klor8X4As7fgAe3+O6DwG9w/wDT7UUsnn9PpD5DPlWNUEUkslGaRs8p1qgJRwmAyJTl32JJ+grgCuBjAKzITYd5G8s6HjkzfCSEx8Ybo4iUxPkpJy4YKtasCTyGU8FEpAFtoHmMPcJRpvnH0nfvtvjGc9Def5FkOV+P0iwAm1vtWESkHtmlWx1RXQl3I9x4HqAdRSLJupYl6b9GaRhgvlu1oxGROuTeH1tf/bnPYbw9tv5EpDwRP/0DNBGyrSbsRKacB9hwX/F6/sWs8BTrcl/GOTOGmESkMjcz2ParqI2bMJ1PLzLlOD/mtINGKupj+fA81uXOB14dT1AiUhlbGrFMN1AoANRaxWhEpD6Vf/G/4J5ZpEbfSz78ELBdfCGJSPns73TO+zld0R+hBEBkKjI+SCZ7LNivCbmC0G8et8TvhUM7MsI+GAdh9hp85EigpbYBi8iELPw0Zl7SQ8hk16EkQETwxzG7H2cDeIBZM87uwDZJRyYiE7qBzraXlpoANAHTqhSQiDQUm4EzY9PfoaS3EhFJTMCHSr34Fx4GE9YKFhERkbq1gsXp68p5YABsjDkYERERqb71hPmPlPtgJQAiIiKN6ess6Rgs98EBsCG+WERERKQG1jA6/YuVdBCAPxZXNCIiIlIDAe/nlFmPV9YFwYPFm4mIiEiduITF6Z9X2kmAuxIAERGRxvAY2OlxdBQASgBEREQagfNRutrWxNFVAH5fHB2JiIhIVf2OrrYfxNVZgNlQXJ2JiIhIVTxMPnVyORX/xhNgNhhXZyIiIlIF7u/m5Lm5OLsMCMLBODsUERGRWF1Ad/uKuDsNeLJ5EB37ISIiUof8Dkanf7AaPQecNucpjIFqdC4iIiJlewJZy0P+AAARw0lEQVTnLZUW/BlPAIBzSzU6FxERkTKZv5fu9tuq1X2w6b83V2sAERERKZHxDTrb+6s5RCEBMNcMgIiISH34PevuK/uY36gKCUA+/Gu1BxIREZEijNXkm4/ntINGqj/UZpnsMDC32gOKiIjImB6E4FC65t1Zi8GCZ/5qf6rFgCIiIvIcGyF4a60u/rBlAuD+x1oNKiIiIk8Lcbrpmnd1LQd9JgGw8JpaDvz/27v7KLnKwo7j32d2l2QjYpUEMWRmNxqsFRQ1UqoFK6D1pYL0xVUgmck2COVINSpaq1TAF045R6CAR41KYBdEG5S2FhMEbaJgKRYoirwoCSG7mwQDISW8JNmduU//iCkBkrCbzMwzL9/Pvwtzv3uSk/vbu/fOSJIkAP6WeYVv1/ugT98DEGNgcHgN8LJ6R0iS1JZC/HuKPf+Y4tA7XAEIkcCNKSIkSWpD56U6+cMzbgIEMq5P1CFJUhsJF1MqfCZlwTMHQDn8EKj5s4eSJLWvcD6lfE0+4GcinjkATsk/CvwoTYokSa0unE8p/6nUFfDsAQAQuSZBhyRJrSwSOLNRTv6wswHQFf8VGK1/iiRJLWkMOIVi4YLUITt67gA4uWcjsLT+KZIktZxNRN5DqbAodcizPXcAAIR4WZ07JElqNesgeyvzCjekDtmZnQ+AfGEpsKa+KZIktYp4Jx25P6TU+z+pS3Zl5wPg6FAmckV9UyRJagnfJkw6kjkzRlKH7E7Y5VcG1xaI5ZVAZ/1yJElqWmVC/ATFnn9KHTIeO78CAFCcPgR8r34pkiQ1q7ieEN7WLCd/2N0AAAh8qU4dkiQ1qfBjyuH1FPM/SV0yEbv+FcB2A0M3AUfWPkWSpKaylcBnmJu/kBBi6piJ2v0VAADCebXPkCSpmYT7IHsTxcIFzXjyh/EMgFJ+KcRb6tAiSVKjqwBfYkvH7EZ+xG88xneHf46zyWjINzKQJKkuAncRwymU8j9PnVIN4/gVADC350bgp7VNkSSpIW0hcBab189ulZM/TOgZ/2wB5G5jvKNBkqSmF64jxgWUCitTl1Tb8z8FsKOB4UGIc2vUIklSg4i/htxHt90H15om9tN8R/g08FRtUiRJSu5hCB+mUDi0lU/+MNErAACDQ58h8oUatEiSlMpG4Et0T76EvgOeSB1TDxMfAMtiJ0PDtwGHVT9HkqS6ehLCl+nMzufkno2pY+pp4gMAYGDkTZDdjDcESpKaUlwP4cuQ+wqlGRtS16SwZwMAYGDoUuCM6qVIklRz9xO4kMlhgL785tQxKe35ABh86AXErbdD+P0q9kiSVG0ZgRsILGRl/vucE7LUQY1gzwcAwBWrZxPCLUBXdXIkSaqadRAGCZWFFHtXpY5pNHs3AACuGDqLwOer0CJJ0l6KjxP4Pln8NlN6rqcvVFIXNaq9HwCLYwebR26AeEwVeiRJmqjNEH5A5DtMYUm7/25/vPZ+AAAMrjiAuM/twIyqvJ4kSbv3IIGlEJfCpP+geOCTqYOaTXUGAGx/NHA5sE/VXlOSpG0ehfCfEJcRsqUUe+9NHdTsqjcAAK4YOp3AV6r6mpKkahgDOmiO92/JgBUQbiVmNwM/o1S4hxBi6rBWUt0BAHDF0EUEFlT9dSVJeyHOY0vXNXSXX03Ga4BDCLxm26PccQbbxkG9ZcAaiCsIubuI3EUWf8Fo592cNt3Pnamx6g+AxbGDzcPXAsdX/bUlSXviZor5t+zyJ+iFt3XRPXUGsbOXmPUSYg8xTAX2JzAV4lQI+wP7QuyE8MJdHyo+DqHMtg+O2wBxA4SHgUeADcQ4QgerILeKSZuG6DtktOrfrcal+gMAfvcmQaPLgTfW5PUlSeNVJgtvoD9/V9VfeeHaKew7NonKpFFvwms+tRkAAFevncpYeTlwSM2OIUnavcgFzCucmTpDjad2N4OcNP0RyvwpsLJmx5Ak7UZYTaX73NQVaky1vRt0fmEtIXs7MFTT40iSni0jYx7zpz2eOkSNqfaPgxR7VxE6jwJW1PxYkqTfiRfQn1+eukKNqz7PgxanD5FVjgLursvxJKm93U2WfTZ1hBpb7W4C3JmrH3gpY11LIb6+rseVpPaxBcIRlPK/TB2ixlbfd4Q66eW/JXQdRQg/qOtxJaldhHCGJ3+NR/3fErJ44JNMnvFeIl+r+7ElqaXFSynmL0tdoeaQ5j2h+0KFeYXTCZwJlJM0SFJr+SlbHv546gg1j/reA7Azgw8eQ8x9B5iWOkWSmtQwYfSNFGetTx2i5pF+AAAMri1A+btEDk+dIklNZiOBt1As/Cp1iJpLYwwAgGWxk6GhsyD8A83xcZWSlNpmcryDuYWbUoeo+TTOANhuYORoyK4EDkqdIkkNrEIIfRTz16YOUXNqvJ+0SzOWQe4wCFemTpGkBhWJfNCTv/ZG410B2NHlw+8kFxcChdQpktQgKsCplAqLUoeouTXeFYAd9eevp9x9KIGLgLHUOZKUWJnIXE/+qobGvgKwo4GRVxLihcT4Z6lTJCmBUUI40cv+qpbmGQDbDa4+jhjOAw5NnSJJ9REfJ8v10Z+/PnWJWkfzDQCAc2KOlw/9JTF8AXhl6hxJqqE15LLjmdt7R+oQtZbmHADbLYudDA/PIeMTBF6dOkeSquznZJX30j/zodQhaj3NPQC2izEwsPrdhNwngD9JnSNJey9cQzcl+vKbU5eoNbXGANjR5SOvoyM7lcjJwH6pcyRpgkYhfpJi4RJCiKlj1LpabwBsN/jQC4ij7wdKwJE0+iOPkgQrCXyAYuG21CFqfa07AHY0MHwQIXsfMbwfOIJ2+b4lNZPFdGz9IHMO3pQ6RO2h/U6Ei9ZNo3P0rcTccRDfA7w4dZKktraRGD/FvJ6vpw5Re2m/AbCjZbGToTWHE7M/JnAU8GZgauosSW0ixG/R2bWAk6Y/kjpF7ae9B8CzxRi4auQVVDgMstdCeC2BQ4EeoKuGR94CrATuJsY7If6SrOuXdFT+HTishseVlMYQIZxOMb8kdYjalwNgPBbHDsZWzWC0aya5rAc4EMJUYH8iUwl0Ay8EOoEuAvsSw2MQMwhbIT5F5AlgAznWAxuI4bfEbBUd8QHm9q7b6XEHVp8G4Wv1+jYl1dwm4Hy6w0U+3qfUHACNbPH6fdmyZYTIi1KnSNorZUJYRKV8tm/qo0bhAGh0A0OXAmekzpC0RypEriGXfY5i772pY6Qd+Wx8o+uIX02dID2PewnhFCL3pA5pIFshfoNceBXzCid68lcj8gpAMxgYWo5vcaxGFeinWLiCGANXjryLyMchHpM6K5GNRBYRwkWU8mtSx0i705k6QOMQw6WE6ABQIxpi8/pvAfzubWuXAEsYHDqUjPkE5tD6j9ZG4CZC/CaTc9/15j41C68ANINzYo6Zw78ADk2dIj1TXECp5+Jdfnnx3fuwed/jCbl5xPh2YJ/6tdXcELCYXMc3mXvQr1PHSBPlAGgWA6v/CsI1qTOkHWyge3IvfQc8Ma7/euHaKXSPHUvMvQ+yEyC8sMZ91Rd4AMJ1kF3D3MLP/LAeNTMHQLOIMTA4fCfw2tQpEgAhnE0x/7k9+n8Xrp1Cd/kosngMIRwDvB7oqGpfdTwC3ATxJ3RwI3N6vNFRLcMB0EwGh/+CGL+XOkMCHqUzzuLkno1VebVvrX4xFY4kMpsY3kBgNjC9Kq89fqMQ7gZ+RYi3ksXllAr3+FO+WpUDoJnEGBgcugPC61KnqN09z+/+q+HyVQdC56vIMQuYRchmEUMP8FJgGjB5D151I7AWGCGyjhBXE7mHXLyLfM/9HB3KVfwOpIbmAGg2VwwdT+DfUmeorf2GLesP5bQ3jiWtWLx+X7Y8NY0svASAjjCFLE76/69HNhJiRiU8RmdXmcmVh71DX3qaA6AZDQwtAd6VOkNt6wRKBUeo1OR8J8BmlIWPAFtTZ6gNBZZ78pdagwOgGfXn7ydwYeoMtZ2MLJ6ZOkJSdTgAmtXk8HngwdQZaitfYV7P7akjJFWHA6BZ9eU3E8LHU2eobTxIufvTqSMkVY8DoJkV89dCXJI6Qy0vEuMpzJ/2eOoQSdXjAGh2YayfyG9TZ6iFRRYyr+fHqTMkVZcDoNkVZ60ncFrqDLWsISrdn0wdIan6HACtYNtjWQtTZ6jlZOS89C+1KgdAq9jS+TEI96XOUEv5InN7bkwdIak2HACt4rTpT5GrnAyMpk5RK4jL6M6fm7pCUu04AFrJ3N47IPr7Wu2tNYSxD9AXKqlDJNWOA6DVbPuENu8H0J4qE+IHKM5anzpEUm05AFpR9+MfBn6aOkNNKPJJij03p86QVHt+GmCrGhjZH7JbgVekTlGTCOHrFPM+Uiq1Ca8AtKrSjA2E7DgCj6VOUTMI15Gf8aHUFZLqxwHQyoq99xLjHKCcOkWNLN5CN30cHfx7IrURB0CrK/VcB/FEHAHauRWEsRPoy29OHSKpvhwA7aDU810ipwIxdYoaylqyytu9419qT94E2E4Gh+cT4zfwz13wEB3xWOb03JM6RFIaXgFoJ8X8ZRA/mjpDyQ2RC0d58pfamwOg3ZR6Lob4Kfx1QHsKPEBn+S3Mza9InSIpLS8Ft6uB1SUI3wC6Uqeobn5DR+5Y5swYSR0iKT2vALSrUs8AMftz4MnUKaqDyB3ksrd68pe0nQOgnc3r/QEZR0P0LvCWFpfQufVo5vauS10iqXE4ANpdf+G/qfAm4P7UKaqBEC5hVeE45hy8KXWKpMbiPQDaZnDFAcRJV0M8NnWKqmIUOJ1SYVHqEEmNyQGgpy2OHTw1fC6BT+PfjSYW15Pl3k9/fnnqEkmNy3/k9VyDw+8mxiuBl6RO0UTFZZTDHOYX1qYukdTYvAdAz1XML6HS8Trgv1KnaNzKEM9lVeFtnvwljYdXALRrl9w/if0mfZHAAqAjdY52aRVZ7iT6ZzjYJI2bA0DPb3D4CGK8DDgkdYqeLV7FlvIZnPaKx1KXSGouDgCNz8Lbupg87WMQPgfskzpHrCTwIYqFH6YOkdScHACamMuHX0NHvIzI4alT2tQYhAvJyufQP3NL6hhJzcsBoIlbFjsZGj4V4tkQDkid00Z+Qlb5G/pn3pc6RFLzcwBoz111/35UJv0dsACYkjqndYX7iJxFaca1hOCnOEqqCgeA9t7A8EEEPkuM8/FpgWoaIcbP01NYxNGhnDpGUmtxAKh6rhw5jCz7LHACvsfE3niYEM/jf0e/yocP3po6RlJrcgCo+i4fPpgQP0agBHSnzmkagQcgXsrYlMuYP+3x1DmSWpsDQLWzaN00Okb/GsJHgJelzmlgPyPEi8kX/sVL/ZLqxQGg2lu4dgrdlZOJsQS8Gf/eAWwm8s/E3MX0z7gzdYyk9uM/xKqvwbUF4tiJEE4BZqXOqbMMuIUYB+kc/Q5zDt6UOkhS+3IAKI0YA1cNH0kWixDeC0xLnVRDtxLj1cRsMf0zH0odI0ngAFAjOCfmePnwG8h4J4F3AkcAnamz9sKjEH5MzH5EzG6gf+aDqYMk6dkcAGo8l6/6PXK5twHvgPBHwB/Q2O8v8BSBnxO5kYwbeUH+DvpCJXWUJO2OA0CNb+FtXUya9kpgNrncbGKcDRxOmg8l2gTcRQi3k2W3A3cz5Ym76DtkNEGLJO0xB4Ca0+LhbkazmVRyPZAViCFPCAVi7CWQJ/BiIi/ag1d+FFgHcTUhN0IWhyEOETqGCeUHKfauqva3IkkpOADU2i5fNZl9ct1Q2Y+sq4tKtm0UhJhRCY/RkdtKZ/YUXU886U/xkiRJkiRJkiRJkiRJkiRJkiRJkiRJkiRJkiRJkiRJkiRJkiRJkiRJkiRJkiRJkiRJkiRJkiRJkiRJkiRJkiRJkiRJkiRJkiRJkiRJkiRJkiRJkiRJkiRJkiRJkiRJkiRJkiRJkiRJkiRJkiRJkiRJkiRJkiRJkiRJkiRJkiRJkiRJkiRJkiRJkiRJkiRJkiRJkiRJkiRJkiRJkiRJkiRJkiRJkiRJkiRJkiRJkiRJkiRJkiRJkiRJkiRJkiRJkiRJkiRJkiRJkiRJkiRJkiRJkiRJkiRJkiRJkiRJkiRJkiRJkiQptf8D4ym3QFzF3fAAAAAASUVORK5CYII=;" vertex="1" parent="1">
          <mxGeometry x="42" y="261" width="60" height="60" as="geometry" />
        </mxCell>
        <mxCell id="pYpf6Nf2uUUaodTvFNSU-19" value="" style="shape=image;verticalLabelPosition=bottom;labelBackgroundColor=default;verticalAlign=top;aspect=fixed;imageAspect=0;image=data:image/png,iVBORw0KGgoAAAANSUhEUgAAAgAAAAIACAYAAAD0eNT6AAAABHNCSVQICAgIfAhkiAAAAAlwSFlzAAAOxAAADsQBlSsOGwAAABl0RVh0U29mdHdhcmUAd3d3Lmlua3NjYXBlLm9yZ5vuPBoAACAASURBVHic7d13nJxVof/x73lmdrYnu+mFhCQm9FCjkoQiiBRRxKt4m+iV37WhohcLiMgFG4iiF7lcFS4igohYQJHmRVEhBBAREloIZFM32/vs1Oc5vz+CCpi2m5k5M3M+7/8Eds7XvGDms880I1Qte6tibbO0MB7TvjbSPBnNt0ZzZDVF0hRJkyXVSqqR1OR0LDAGNQ0Hro2ZnqNmHNLZ5XoLUKmM6wEonE0PaWEkLZO0zEpHSDpAUoPjWUDB1TYvk4KaNfnBF5fNWba5z/UeoBIRABVswwNqjeI6MYh0sjU6SdJM15uAUqhtXqYgPlk2Glo9PLz6qEVH9g253gRUGgKgwrTdr5agVqdZ6QxJJ2nb5XvAK38JAEmyYf8TgVlz9LQDu0cczwIqCgFQAayV2bhSx0fSB4x0uqSE602ASy8PAEmy4cCK4Y0PvHHRm5VxOAuoKARAGeu6X02phM6yRh+TtND1HqBcvDoAJCkK+347o3vFSeY45R3NAioKAVCG2h/TlFxW51rpQ5JaXe8Bys32AkCSovzAXTOefeA08y6FDmYBFYUAKCPPPajmeqOzrdFnJU10vQcoVzsKAEkKcz23z1y88h3GKCrxLKCiBK4HQHrsMdVsWKFz6gKtt0aXiQd/YNxiNVNO37p62Q2udwDljgBwbMNKnTAlqyet0ZWSJrneA1SDWM3kd7c/ddR3Xe8AyhkB4Ejb/Wppe0jftVa/lrS/6z1AtYnFWj+w9allV7jeAZQrAsCBthV6m6nVc0b6gHgdBlA0QWzyuR2rj/qS6x1AOSIASmjTQ6pvW6krjdFtkqa73gP4IIi3XNCxevkFrncA5YYAKJEND+uAUHrcWJ0jfusHSsbKGBNv/VL7U0d/wvUWoJwQACWwcaVOs5EekrSf6y2An4yJxSZe0b56+YdcLwHKBQFQRNbKrF+pL0ZWt4u39gGOmSAeb72q85ljz3S9BCgHBECRPP20Ehse1g9kdaG45A+UBSsTl5q+1/HM8n90vQVwjQAoguceVHPjoO6V1btdbwHwKiaIG9N6Q/fq4051PQVwiQAosLb71VIX6F5Jb3C9BcCOmNoo1njr5iePfqPrJYArBEABbX5Ek02t7pe01PUWALtgTENNYuJtnU8dt9z1FMAFAqBA1j6sCblQd0s61PUWALvLNJtYw51bnzr2ta6XAKVGABRAx5NqrIl0l5G4EwEqjFUwMYg139X37AmLXW8BSokA2EPWKkgndZMkLiMCFctMyan2N+2rj+F7OeANAmAPrX9Y35R0uusdAPZUMDUWn3Bf56pTF7heApQCAbAH1q/Q2S99tC+AqmBmKWHu61nzltmulwDFRgCM0/oVWiqjb7reAaDArJkfWfP7rqffPMP1FKCYCIBxaHtUM2T0M0kJ11sAFJ61eo0NgvsGnz5jkustQLEQAGNkrYwJdZ2kma63ACgmc2A6SP+uv+30FtdLgGIgAMZo/Up9XFZvdr0DQEkszqXzv+548sxG10OAQiMAxmDDwzrASJe63gGgdKzMa4PE4J227eI611uAQiIAdpO1CmykayRxJwB4xsoe25V57E772AdqXG8BCoUA2E0bH9JHxYf9AP6y5vjuxs7brL047noKUAgEwG5oe1QzrNGXXO8A4JZVdGr380/cZK3lvhMVj3+Jd0OQ06WSml3vAOCejcJ/7Fnz9huttcb1FmBPEAC7sOFhHWGN3uN6B4DyEdnwX7qfP+O/iQBUMgJgF6JQl4o/JwCvYqPM2T1rz/iG6x3AePHAthMbHtZRxuhNrncAKE82yny86/l3fdH1DmA8CICdsBEv/AOwY9bK2DD1uZ61//pZ11uAsSIAdmDjCr1W0rGudwAoeyYMh7/UueYfz3U9BBgLAmAHokDnud4AoEJYG5godXn38+/+oOspwO4iALZjwwNaIKvTXe8AUDmsbCyKhr/Vv+4s3jWEikAAbE9M75cUcz0DQIWxUSKb7b2ma+173+V6CrArBMCr2PsVt9J7Xe8AUKFsVKtw8Prute8/zfUUYGcIgFfZUKfTJM10vQNA5bI2bLBh9009L77/BNdbgB0hAF7N6l9dTwBQ+awNm22+56fdbR96g+stwPYQAC/z3INqlnSK6x0AqkMU5SdGmc6f9qz72OtcbwFejQB4mbpAb5VU73oHgCpi85OjzJZf9rd9+lDXU4CXIwBexljxoh0ABWeVm57LvHhn74bzDnS9BfgLAuAl9lbFrBEv2AFQFNbmZoXpdb8a3PTFRa63ABIB8FcbZut1kia73gGgetkoPS+TWnVnX/tlc11vAQiAvwh0vOsJAKqfDdOLwpHH70luvGqW6y3wGwHwF1bLXU8A4IcoTO0/mn7wzuGOb09zvQX+IgC07Ss9Jb3e9Q4A/ojC0UPTQ7+/a2jzDTz1CCcIAEltK7SPpEmudwDwSxQmj8ikf32b7b1rgust8A8BIMnExPtzATgR5YaO7um9+efWPt3kegv8QgBIMpEWu94AwF9ROPjGnhcu/Ym1m/ggMpQMASBJRnw4BwCnovzgyb0vfP5Ga22t6y3wAwGwzQLXAwAgzPe+o/fFf7/WWptwvQXVjwDYZm/XAwBAksJc15l9bR++2lpb43oLqpv3AbDpIU2SNNH1DgD4i3xmy7/3tp19hbU27noLqpf3ARAFmuF6AwC8WpTd/NG+to9dSgSgWLwPAJPn8/8BlB9rZcLshk/2t330Emut9/fVKDzv/6WKAk1xvQEAtsdamVx20/m9Gz51ARGAQvP+XygjNbveAAA7ZG0Qpdb+Z9/6C86x1hrXc1A9vA8AWfGeWwBlzcrGw/TTXxvY/LmPEgEoFO8DwEq81QZA2bOy8Wzy6a8NbLrofUQACsH7ADCGAABQIWxUm02uvmqo/bJ/cj0Flc/7AIgkShpABQkbMsOPXDuw4UtnuF6CyuZ9AABApbE2bMymHr92qOMbb3W9BZWLAACACmRtbmJ68KHvjWy+8o2ut6AyEQAAUKFslJkymnzgR/1br3qD6y2oPAQAAFQwG2Wm5oYe+OFgx/VHut6CykIAAECFs1FqVnrw3luSXT86zPUWVA4CAACqQZTce3Tglz8d6bh1sespqAwEAABUiSgcWZAauv3WdPed+7jegvJHAABAFYnC4f2G+2+5NTXwyHzXW1DeCAAAqDJROHDISPd//3R09NE5rregfBEAAFCFovzA4aPt377FJp+b5XoLyhMBAABVKsz1LOvd+vUbre2Y5noLyg8BAABVLMx1Ht/XdtGN1g5Ndr0F5YUAAIAql89sPbG37TPXWWtbXG9B+SAAAMADYWbL2/rXf+Jqa+1E11tQHggAAPBELr3uX/o2fOqb1tpm11vgHgEAAB7Jp55/X/+GT19hrW1yvQVuEQAA4Jl8es2/D2z83JestQ2ut8AdAgAAPGOtTHZ09TmDmy/5PBHgLwIAAPxkMsnHPzOw5QvnW2vrXI9B6REAAOAra4Pc8J8+O7jl8v+w1ta6noPSIgAAwGNWNp4Zfujioa3/9WFrbcL1HpRO3PUAAIBrUSI99LvLAhsPrbXfMcbkXC9C8REAAADJRrWjQ7+5zMYSKWvt940xedeTUFwEAADgJWFDeuCeKwJTn7HW3myMCV0vQvEQAACAv7I2P2G0//arrAmy1tqfGGMi15tQHAQAAOAVrM1NTPXf/t+xoD5rrf0FEVCdCAAAwN+xUWbKSM8t/2ODhoy19m5jjHW9CYXF2wABANtlbXrGaPf112SG7jvRWmtc70FhEQAAgB2KotTsoY7rvpMeeOAYIqC6EAAAgJ2yUXLecPe3v5cefmS56y0oHAIAALBLNhxZMNJx1bXZwSde53oLCoMAAADsligc2m+g8xvXZJNrD3e9BXuOAAAA7DYb9h8y2P7lazPDLxzkegv2DAEAABiTKN97+HDnpddY27Of6y0YPwIAADBmYa5rae+6C6+2dnCR6y0YHwIAADAuYXbL8b3rzv8fa1PzXW/B2BEAAIBxC7ObT+htO+9Ka+1c11swNgQAAGCPhJm2t/at//RXrbWzXW/B7iMAAAB7LJ9e808DGy/4srV2lust2D0EAACgILKjT713YNOFX7DWTne9BbtGAAAACiY3uuqsoc1fvNBaO831FuwcAQAAKBhrZdIjf/zIYPvln7LWTna9BztGAAAACs1khld8cnjrNz5prZ3kegy2L+56AACgClkbpAd//2lratLW2m8ZYwZcT8IrEQAAgKKwsvH0wG8+Z1SXsdZ+xxgz6HoT/oYAAAAUUZRIDd55SRDE8tbaa4wxw64XYRsCAABQXDaqTfbd8QUTa0hba28wxoy4ngQCAABQEmFDsufWrwSmPmOtvdkYM+p6ke8IAABASVibnzDc/YOvK4iF1tpbjDEp15t8RgAAAErG2tzE4a4bLldQl7HW/twYk3a9yVcEAACgpGyUmTK89ZorgqAha629wxiTcb3JRwQAAKDkrE3PGGq/8r8m7BXPW2vvMsZkXW/yDZ8ECABwIopSswc3f/ObmdEnT7TW1rje4xsCAADgjI2S84Y3X35FJvPCcdZarkqXEAEAAHAqiob3Gd548ZXKbzzWWhtzvccXBAAAwLkoHNqvu+3zV+TzW5dba3lsKgH+kAEAZcGG/YcMbrzw8ny+fykRUHz8AQMAykaY7X794MbPXK7c0Guttcb1nmpGAAAAykqY7VzWu+m8r0ijS4iA4iEAAABlJ8xuOb6/7fz/lHQIEVAcBAAAoCzlMutP7W/7xCWSDna9pRoRAACAspXLrDutf8N551lrD3S9pdoQAACAspZLPfvPAxsv/DQRUFgEAACg7GVHV713YNNF51pr93G9pVoQAACAipAbfeJ9A5u+co61dqHrLdWAAAAAVARrZbKjj3x4sP0bH7TWvsb1nkrHFy8AACqHtUFm+PfnDnfEQmvtt40xG1xPqlQEAACgslgbpAd++0mruoy19jpjzEbXkyoRAQAAqDhWNp4euPt8E6tLW2t/YIzZ4npTpSEAAAAVKkqk+m67KAjiobX2JmNMu+tFlYQAAABULhvVJbt/+p+BqctYa28xxnS6nlQpCAAAQIULG5I9N18SmIastfZnxpgu14sqAQEAAKh4UZSbONT9v19pVCx8KQJ6XW8qdwQAAKAq2CjXkuy69stBvCFnrf2FMabP9aZyRgAAAKqGtZkpw1u/9eXA1mattXcaYwZcbypXfBIgAKCq2Cg9c6jj619NJf98irV2ous95YoAAABUnShKzU62X/7lMLXmTdbaZtd7yhEBAACoSlGYnN+/6QtfDrObjrfWNrneU24IAABA1Yqi4X36N1xwaRhueYO1tsH1nnJCAAAAqloUDu7f3/a5L4aZ7jdYa+td7ykXBAAAoOpF+b5DB7acf1E+P3i0tbbO9Z5yQAAAALwQZrtfP7TxUxcpn15ura11vcc1PgcAQMXJjDwqI+N6BirT8pHum9479/Xn/971ENcIAACVx+ZlXW9A5bK5M9c/dPH9kq53PcUlngIAAPgnUIvrCa4RAAAAeIgAAADAQwQAAAAeIgAAAPAQAQAAgIcIAAAAPEQAAADgIQIAAAAPEQAAAHiIAAAAwEMEAAAAHiIAAADwEAEAAICHCAAAADxEAAAA4CECAAAADxEAAAB4iAAAAMBDBAAAAB4iAAAA8BABAACAhwgAAAA8RAAAAOAhAgAAAA8RAAAAeIgAAADAQwQAAAAeIgAAAPAQAQAAgIcIAAAAPEQAAADgIQIAAAAPEQAAAHiIAAAAwEMEAAAAHiIAAADwEAEAAICHCAAAADxEAAAA4CECAAAADxEAAAB4iAAAAMBDBAAAAB4iAAAA8BABAACAhwgAAAA8RAAAAOAhAgAAAA8RAAAAeIgAAADAQwQAAAAeIgAAAPAQAQAAgIcIAAAAPEQAAADgIQIAAAAPEQAAAHiIAAAAwEMEAAAAHiIAAADwEAEAAICHCAAAADxEAAAA4CECAAAADxEAAAB4iAAAAMBDBAAAAB4iAAAA8BABAACAhwgAAAA8RAAAAOAhAgAAAA8RAAAAeIgAAADAQwQAAAAeIgAAAPAQAQAAgIcIAAAAPEQAAADgIQIAAAAPEQAAAHiIAAAAwEMEAAAAHiIAAADwEAEAAICHCAAAADxEAAAA4CECAAAADxEAAAB4iAAAAMBDBAAAAB4iAAAA8BABAACAhwgAAAA8RAAAAOAhAgAAAA8RAAAAeIgAAADAQwQAAAAeIgAAAPAQAQAAgIcIAAAAPEQAAADgIQIAAAAPEQAAAHiIAAAAwEMEAAAAHiIAAADwEAEAAICHCAAAADxEAAAA4CECAAAAD8VdDwBQXUxQr3hijmKJWQpqpiqIt8rIyMRbJEk2SslGacnmFOZ6FOU6lc+2K8p1ydqs4/WAPwgAYBzqJp6gIN5a1DMyQ79TmOsu6hl7KlYzQ3UT36BEw6GqaTxMicZDFKuZPr4bs6FymXXKjT6tXOpZZUceU2b4QYW5rsKOBiCJAADGpXXupUo0LSnqGZ1PH1uWAVDbvEwNk96muoknKdF4sCRTmBs2MdXULVJN3SJJp//1L+dSzyk99Dul+m5XevB+rhIABUIAANilWGIvNU37NzVOPVM1dfuU9Oya+v1UU7+fmqd/SFF+QKn+OzTS9T2lh34vyZZ0C1BNCAAAO1RTt48mzD5fjVPfLWNqXM9REG9R49Qz1Tj1TOVSz2mk87sa6bpOUTjsehpQcXgXAIC/E0vM1pSFN2rWoc+oadr7yuLB/9Vq6vdT67xvavbh6zRx9vkysSbXk4CKQgAA+CtjEpow+zzNPvQ5NU59t2RiriftUhCfopa5l2qvw9vUPP1D4m4N2D38lwJAklTTcKBmHvyYWudeVpG/TQfxKZq04NuaufgR1Ta9zvUcoOwRAADUOPU9mrn4EdU0LHY9ZY8lmpZoxuKHNWnelTIm4XoOULYIAMBjJqjVlIU3asrCG2SCRtdzCsioeeY5mnHQipK/awGoFAQA4KkgPlnT9v/1tuf6q1SiaYlmHPyY6ltPdT0FKDsEAOCheO1czTz4j6qbcIzrKUUXxJo1bd/b1TT9A66nAGWFAAA8E6uZrmn736t47XzXU0rHxDV5wXc1YfZ5rpcAZYMAADwSxCdp+oH3q6Z+P9dTnGide6maZ3zE9QygLBAAgDcCTVl0k2rq93c9xCGjSfOvUsPkM1wPAZwjAABPtMy5SPUtp7ieUQaMpiy8vire8gjsCQIA8ECi8QhN3OvzrmeUDRM0atq+P1cQa3Y9BXCGAACq3rbL3vzn/krxuoVqmfsV1zMAZ7hHAKpc09T3qLZ5qesZZal5xtmqbV7uegbgBAEAVDXDW992KtCk+d+SZFwPAUqOAACqWH3rqZ6/6n/XEo2Hq2HS21zPAEqOAACqWPOMs11PqAgT51wirgLAN3HXAwAURxBrVt2E413PUBQOKsp1KwoHJWsV1ExREJ9cVq/ATzQcrLoJRys99AfXU4CSIQCAKlXXcqJMUFvyc22UVmrgLo32/kSZ4UeUz7Rt958L4lNUN/FY1U04Tg2TTlcsMbvES1+padq/EwDwCk8BAFWqbuIJJT7RaqTzGm3582vUveYdSvbcssMHf0mK8j0a7f2Z+to+qi2PL1Dvi2cpl3q2hHtfqWHyO2ViTc7OB0qNAACqVKLh4JKdZaOMep7/Z/Wu+6DCbPvYf95mNdJ1vdqfXKyBTRdLNl/4kbtggvqyeMoEKBUCAKhKRjUNB5XstIGNn1Wy98d7fkM21ODmS9Tx9BvGFRJ7qr6Vj0qGPwgAoArFaqYpiE0oyVn59Asa2nplQW8zM7xCnc+coDDXXdDb3ZkoHFaU6yrZeYBrvAgQqEJBbGLJztr2m39U8NvNpZ5V17MnavqBvyvq/59c6lkNd1ytZPeNisKhop0DlBsCAKhCJl6a3/4lKTdavBfuZZNPqK/tHE1ZeEOBbzlSqv8uDW29UunB30iyBb59oPwRAEAVMkF9yc6yNlvU2092/0CNk89Qfetb9vi2wlyHRjqv1XDndxVmtxRgHVC5CACgCtkoVbKzaur2KfoZves+rNmHvWncn2uQGXpAwx1Xa7TvtqIHC1ApeBEgUIVsmCzZWU3T/5+MSRT1jDC7WcmeH47pZ2yUVrL7Rm1ddag6nj5Gyd4f8+APvAwBAFQhG46U7Kx47Xy1zP1i0c8Zar9Cu/NcfS71nPraztHmx2ao54X3KJt8sujbgErEUwBAFQrzvdr2YFmaL7iZMOszkqSBjRfK2lxRzsilnlF66A+qm3Ds3/9Nm9do/x0a7rha6cHfihf1AbvGFQCgCtlotOQvcpsw6zOasXilEk1LinZGqu8Xr/jfYa5Tg1u+rC2PL1D3mn/gFf3AGBAAQJXKpZ4v+ZmJxiM0c/EfNW3/e1TfcrJkYgW9/dH+bQGQGV6hnrX/oi1/mquBjRcqn91U0HMAH/AUAFClcqnnVDfRzWfb17ecpPqWkxRm25XsvUWp/nuUGX5ANkrv0e3m0+vU/sT+yqWeK9BSwF8EAFClMsMPqnnG2U43xBKzNGHmuZow81zZaFTZ5J+VTT6p7OgTyiWfVHb0adlobO9Y4MEfKAwCAKhSf3s+vDQvBNwVEzSotnm5apuXv+yvRsql1iozslKZoT8oPfSA8ukXnG0EfEIAAFUqzHUpm1ylROMhrqfsRKCa+n1VU7+vmqb+m6Rtl/nTg/dptP9XSg/cy3v3gSLhRYBAFRvt/YnrCWMWr1ugpukf0LT9fqm9lnRoyqKb1Tjln0r27YaALwgAoIqNdF1XtPfll0IQb1XjlH/WlEU/0l5LOjVtvzvUMPmMon/yIOADAgCoYmGuQ6m+X7qeURAmqFN961s0dZ9bNfuITWqde5nitfNdzwIqFgEAVLnB9sskRa5nFFSsZpomzD5Psw9bq6n73qbapte7ngRUHAIAqHLZkcc00nWD6xnFYWJqmHS6Zix+WDMOelD1rW91vQioGAQA4IGBjRcoCodczyiq2ublmrbfLzXjoAe2fQohgJ0iAAAPhLkO9a//hOsZJVHbfJSm7X+3Zhz0kGrq9nE9ByhbBADgiZGu65XsucX1jJKpbV6qmYc8oeaZH3c9BShLBADgkb62s736KF0T1GvSvP/S5Nd8r+BfTARUOgIA8EiU71fnMycon9ngekpJNU17n6YuulnG1LieApQNAgDwTJjdoq5nT/HuK3QbJr9LUxb9SNztAdvwXwLgoVzqWW198nClh37nekpJNUx+h1rmfsH1DKAsEACAp6J8j7qeOUlDW7+havugoJ2ZOPsCNUz6B9czAOcIAMBj1mbVv/6TL70uYKPrOSViNHnh9xWve43rIYBTBAAApQfvV/sT+2tw8yWyUcb1nKILYs2avOBaScb1FMAZAgCAJMlGoxrYdLG2rjpMo32/cD2n6OomHqfGqf/qegbgDAEA4BVyqWfVveZ0daw+UqmBeyVZ15OKpnXvbyiIT3I9A3CCAACwXZmRR9T17Mna+uShSnb/oCqfGojVTNWEWZ90PQNwggAAsFPZ0VXqeeG92vL4HPVv+LRy6eddTyqo5hkfUxBvdT0DKDkCAMBuCXPdGmr/utr/vK+2rlqikc5rZKOU61l7LIg1q2nqv7meAZQcAQBgzLLJP6l33Qe1+U97qWftu5Xs/bGi/IDrWePWNO0s1xOAkou7HgCgckX5PiV7fqhkzw9lTI1qJxyt+ta3qr71VNXULXI9b7fVNBykeO085TPrXU8BSoYrAAAKwtqc0oO/Vf/6/1D7n/fRlscXqHfdBzXa+xNF4aDrebtU33KK6wlASREAAIoin2nTSOc16n7+Xdr8x2nqfOaNGt76rbL9JsL61je7ngCUFE8BACg6a7NKD/5W6cHfSus/rkTj4WqY9HY1TH6Haur3dz1P0rYPBpKJSTZ0PQUoCa4AANglE9QX9Payycc1sOnzan/iAG1ddYSGO66WjUYLesZYmaBR8cRcpxuAUiIAAGxHoETTEk3c6/OacdBKzVz8aNFOyiYfV1/bR7Xl8XnbvpnQ5ot21q7U1O/r7Gyg1HgKAIAkKYhPUn3LiapvOUV1LScrVjPtr3/PRhnJxIv64BzmutW//pMa6fq+piy6SYmGg4t21o7E6/eVBu4p+bmACwQA4C2jRONhqm85RfWtp6i26chtz4Fv758MapVoOETZ5J+Kvio3ulodq5dpysLr1TD5jKKf93I1dfuU9DzAJQIA8EgQb1HdxDf99UE/VjNjt3+2bsKxJQkASbJRUt1r/1lTorQap55ZkjMlveKqB1DtCABgHExQ63rCbjJKNB6y7QG/5RTVNi/ddil/HBomv33bc/SlYkP1rnu/Ek2vVU39fiU50sQaS3IOUA4IAGAcSvEVsnacX8MbxCaqruWEvz7oxxKzCrKntnmZ4nULlE+vK8jt7Q4bZTSw8bOauu9tJTkvCJpKcg5QDggAYByC+OTiHzLWr981MU0/4D7VNi+XMTVFGBSoecZH1L++tF+fm+q/S1F+QEG8pehncQUAPuFtgMAYxWvnywR1RT/HRukx/kCoRMMhRXrw36Z5+gcVS8ws2u1vj7VZ5VLPluQsExAA8AcBAIxR3YRjSnJONI6v2g2zW4qw5G9M0KiWOV8s6hnbE+V7S3KOtWO86gJUMAIAGKO6lpNLcs54Phkvn91chCWv1DTtLNW3nFj0c14uKNGr8204XJJzgHJAAABjEK9boMbJ7yzBSVZRrnvMP5UbXV2ELa9mNHnhjYon5pTgLEkmrpq6hSU5KiIA4BECABiDlr0uGffb6MYizHXL2uyYfy4z/HAR1vy9WM00Td3vDgXx1qKfVd9ycknedSFpXNEFVCoCANhNzdM/rMap7y7JWWG2fVw/lxkpTQBIUqLxEE3b/56ifniOMTWauNeFRbv9V8ulnivZWYBr7D5SSQAADh9JREFUBACwG5qnf1Ct868s2XlhduM4f65dudSaAq/Zsdqm12nmwY+rtnl5UW6/Ze/LVdv0+qLc9vYQAPAJAQDsRLxuoabu81NNWvCdor697tWyyVXj/tnR3lsLuGTXYonZmn7g/Zow81wV6i7FmIQmv+Y6TZj5iYLc3u7KjT5V0vMAlwgAeKOm/oDdes46XrdIjVPP1LT97tDsw9aoYfI7SrDulbKjT4z7Z5MlDgBp26X61nlXaObBf1TdxDfu0W3VTTxBMw/+k5qmnVWgdbsnzG5WLv18Sc8EXOKTAOGNafv9QvG6hYryfcpnNslGo7JRUtbmFMQmKIi3KlYzo2QvONuZbHL8AZAbfUrZ5JNKNB5SwEW7J9F4uKYfcJ+yI49ppOt7Gu37qcLdeGFdEGtWw+R3qmnq+1Q74egSLP17qYF7nZwLuEIAwDtBfJISZfAgvyNhdssef97+0Nava8rCGwu0aOwSTUs0qWmJJi24WrnRp5VN/lm59IuK8r2yNqsg1qwg1qJYYrZqm5aopv6AHX4VcamkBu5xej5QagQAUGa2/SY6vi8C+otkzy1qmfNFxWvnFWTT+BnVNBykmoaDHO/YuSjfq1T/r1zPAEqK1wAAZSY98Os9vxGb19CWr+757XhipOv6sX/3AlDhCACgjNgopdRgYZ6LHu66Vtnk4wW5rapmQw13XuN6BVByBABQRkZ7f6ooP1CYG7Ohetd9SFJUmNurUiPd31c+vdb1DKDkCACgjIx0XVfQ28uO/FHDHf9T0NusJjZKamDTRa5nAE4QAECZyCafVHroDwW/3f4Nn+KpgB0Y3HzpuD92Gah0BABQJrb9Jrpnr/7fHhtl1L3mHxTl+wp+25UsO/JHDbVf7noG4AwBAJSBzMijSvXfUbTbz2c2qGftv4zrGwarURQOqfv5f5S1OddTAGcIAMA1G6q/7RwV47f/l0sN3KveF94r718UaEP1vvAe5TNtrpcAThEAgGOD7V9TZuSRkpyV7LlFfes+qmLHRvmy6m37sEb7fuF6COAcAQA4lE0+ocHNF5f0zOHOb6v3hbMkmy/pueVgYOPnNNJ5resZQFkgAABHwuxWda95m2yUKfnZI93fV+ezb5YNR0p+thM2VF/bRzW45VLXS4CyQQAADtgoqa41pymf2ehsQ3rw/9T5zAlON5SCjVLqfv4MDXdc7XoKUFYIAKDEony/Op85SdmRx1xPUWbkEW1ddVjVPieeSz2jjqeWa7TvNtdTgLJDAAAlFGbb1fn0G5QZXuF6yl9F+T51r3m7+trOkY2SrucUiNXw1m9p66olyib/7HoMUJYIAKBE0oP3aeuqw5UdXeV6ynZYDXdcpfYnDtBo3+2ux+yRbPJP6nj6WPWt/7hslHI9ByhbBABQZDYaVf/G89X5zEkKc52u5+xUPrNR3Wverq7nTlNu9GnXc8YkzLar94X3aeuq1ykz9IDrOUDZi7seAFSzVP+v1Nf2MeUz611PGZNU/x1K9f9K9a1vUcucS5RoPMz1pB3KpddquONqjXRew2/8wBgQAECBWZvVaM+PNbT1mxX+/LN9KQTuVH3ryWqa9n7Vt54qY2pcD5ONRjXaf4eSXd9XauBe+fvBRsD4EQBAQUTKDD+i0b6fK9lzc5V9w1ykVP9dSvXfpVjNDDVOPVMNk05TbdNSycRKtyI/oPTQ7zTa9zON9t3uz2cYAEVCAMAbPWv/VYnGw1TTsFg1DQcqXrtA8cTscT2I2Sij3OhqZUYeVmbkEaUHf1tlD/rbF+Y6NNT+NQ21f01BfJLqW05W3cTjlGhcokTDQZIp0F2KDZXLrFMuuWrbn+/Q/duuptiwMLcPgACAPzIjjyoz8ugr/poxNYol9lIsMUNBfJKC+GSZoE5BbKJktr1G1obDslFWUdivMLtV+cx6hdmt8v2yc5TvU7LnZiV7bpYkmaBeiYaDFa9fpHhijmK1cxVPzJEJahXEWiRToyDWrCjsf+nnB2VtXlGuU2GuQ/nsFkXZDuXSLyiXeobn84EiIwDgNWtzymfa+Ga4ArBRSpmRR0r2xUYA9gxvAwQAwEMEAAAAHiIAAADwEAEAAICHCAAAADxEAAAA4CECAAAADxEAAAB4iAAAAMBDBAAAAB4iAAAA8BABAACAhwgAAAA8RAAAAOAhAgAAAA8RAAAAeIgAAADAQwQAAAAeIgAAAPAQAQAAgIcIAAAAPEQAAADgIQIAAAAPEQAAAHiIAAAAwEMEAAAAHiIAAADwEAEAAICHCAAAADxEAAAA4CECAAAADxEAAAB4iAAAAMBDBAAAAB4iAAAA8BABAACAhwgAAAA8RAAAAOAhAgAAAA8RAAAAeIgAAADAQwQAAAAeIgAAAPAQAQAAgIcIAAAAPEQAAADgIQIAAAAPEQAAAHiIAAAAwEMEAAAAHiIAAADwEAEAAICHCAAAADxEAAAA4CECAAAADxEAAAB4iAAAAMBDBAAAAB4iAAAA8BABAACAhwgAAAA8RAAAAOAhAgAAAA8RAAAAeIgAAADAQwQAAAAeIgAAAPAQAQAAgIcIAAAAPEQAAADgIQIAAAAPEQAAAHjI+wAIrCLXGwAApcV9PwGgKFDO9QYAQGlFRhnXG1zzPgCMVdb1BgBAiUUEgPcBIKO06wkAgNIyAb/8EQCRBlxPAACUXJ/rAa55HwDWqtf1BgBAaUXc9xMA8UA9rjcAAEorFnLf730A1GbU4XoDAKC0aieo0/UG17wPgGnHaUSWEgQAj3TNOERJ1yNc8z4AJElG611PAACUhhH3+RIBIEkyVi+63gAAKA1rtM71hnJAAEiy0lOuNwAASma16wHlgACQFARa5XoDAKA0DAEgiQCQJIUiAADAFxEBIEkyrgeUi/UPqV3STNc7AABF1TlvmWa4HlEOuALwNytdDwAAFJnRg64nlAsC4C+MVrieAAAouodcDygXBMBLbKTfut4AACiuKK/fuN5QLngNwEusldmwUpslzXK9BQBQFB17L9UsY2RdDykHXAF4iTGyMrrX9Q4AQJEY3c2D/98QAC9jrX7pegMAoEis7nA9oZwQAC+TH9DdkgZd7wAAFNxwTLrH9YhyQgC8zKI3KyNxFQAAqtDtc5Yp5XpEOSEAXsVKP3S9AQBQYEY/cj2h3BAArzJvqf5PfFUkAFSTzXtv0q9djyg3BMCrGKPISNe73gEAKAxrdZ15l0LXO8oNAbAdJtL/Ssq63gEA2GP5sEbXuR5RjgiA7Zh7lNqNeL4IACqe1Y8Xvk6bXM8oRwTADhirr0t8YAQAVLRA33A9oVwRADswd7meknSX6x0AgPEx0r3zlupx1zvKFQGwM0YXiasAAFCRokgXu95QzgiAnXipHH/hegcAYMx+Nf8oPex6RDkjAHbBBPqcpLzrHQCA3RZG2+67sRMEwC7sfaSekdW3Xe8AAOweI1274Eitcr2j3BEAuyFmdLGkXtc7AAC7NJDN6yLXIyoBAbAb5ixTn6TPuN4BANg5a/TZRceo2/WOSmBcD6gU1sqsf0j3GqM3ud4CANgOo4f3PlLLjVHkekol4ArAbjJGNiZ9WFLS9RYAwN9JSzqLB//dRwCMwdzletFY/YfrHQCAVzJGn5m3VM+63lFJeApgHNoe0o+N9C7XOwAA2z7xb+5SnWIMH9w2FlwBGIf4tqcC1rveAQDQljDQe3nwHzsCYBzmLFNfFOp0SaOutwCAx3Im0D8tOFKdrodUIgJgnBYcrSet0Udc7wAAj/3H3kfqQdcjKhUBsAfmL9X3jXSZ6x0A4BsrXTNvma52vaOSEQB7aO5SXSCjm1zvAACP3D0vwxXYPUUA7CFjZG1a75d0n+stAOCBlXWNOsMcx5e07SneBlgg7Y+pIZfV3VY6xvUWAKhSq2LScS99PDv2EFcACmTWEo3mEzrNSI+63gIAVeipvNWbePAvHK4AFFjHk2pMJ/VLSce73gIAVeLxREInzVqiHtdDqglXAApsxiFKJhJ6q6R7XG8BgEpnpQfChI7nwb/wCIAimLVEo3tn9FYjfcf1FgCoWEY/i0snvWaJBl1PqUY8BVBk61fqAll9SfxZA8Bus0ZfnXekPstH/BYPD0olsP5BvVmBbpLU6noLAJS5lDX68PylusH1kGpHAJTIiw9rURDpZ0Za7HoLAJQlq+djRu+cs0yrXU/xAa8BKJHXHKm1yuh11uirkiLXewCgzNzYkNURPPiXDlcAHFi/UqfI6n8lzXK9BQCcsuoxRmfvvUw/cT3FN1wBcGDeUt0dJnSANfqWuBoAwF8/yYU6gAd/N7gC4Ni6FTomCPQtWR3iegsAlMgaK318/jLd63qIz7gC4NiC5frD3pt0hJU+JKnb9R4AKKIBa3RuT0KLefB3jysAZaTrfjWlEvqINTpPvGUQQPVIWqPrwkhfXrhcXa7HYBsCoAxteECtUaCPG+kjMprieg8AjNOgNfpOPqcrFh3DFc5yQwCUsfbH1JDN6N8kfVxG+7jeAwC7ab2MrkqHuna/ozTsegy2jwCoANbKrH9Yxxqr90v6B0l1rjcBwKtkJf3SSv87b6n+zxje4VTuCIAK0/6YGnJZnWql90g6UVLC9SYA3golPWykn+SsfsTz+5WFAKhgLz6mibGMTpB0spFOskZzXG8CUPW2Gqt7o0D3xK3+b84y9bkehPEhAKpI20rNCyIdZaVlMjpc0kGSGl3vAlCxRq30tKQ/B9IKY7Vi7nK96HoUCoMAqGLWKti8UgtCq31lNF9W863RXkaaZqXJRposqV5STNIEx3MBlM6Qtl2+T1mp10i9krpltckEWi+rtnygNQterxd5Lr96/X9n+9ZvgYT2JwAAAABJRU5ErkJggg==;" vertex="1" parent="1">
          <mxGeometry x="126" y="510" width="36" height="36" as="geometry" />
        </mxCell>
        <mxCell id="pYpf6Nf2uUUaodTvFNSU-20" value="" style="shape=image;verticalLabelPosition=bottom;labelBackgroundColor=default;verticalAlign=top;aspect=fixed;imageAspect=0;image=data:image/png,iVBORw0KGgoAAAANSUhEUgAAAgAAAAIACAYAAAD0eNT6AAAABHNCSVQICAgIfAhkiAAAAAlwSFlzAAAOxAAADsQBlSsOGwAAABl0RVh0U29mdHdhcmUAd3d3Lmlua3NjYXBlLm9yZ5vuPBoAACAASURBVHic7d13nJxVof/x73lmdrYnu+mFhCQm9FCjkoQiiBRRxKt4m+iV37WhohcLiMgFG4iiF7lcFS4igohYQJHmRVEhBBAREloIZFM32/vs1Oc5vz+CCpi2m5k5M3M+7/8Eds7XvGDms880I1Qte6tibbO0MB7TvjbSPBnNt0ZzZDVF0hRJkyXVSqqR1OR0LDAGNQ0Hro2ZnqNmHNLZ5XoLUKmM6wEonE0PaWEkLZO0zEpHSDpAUoPjWUDB1TYvk4KaNfnBF5fNWba5z/UeoBIRABVswwNqjeI6MYh0sjU6SdJM15uAUqhtXqYgPlk2Glo9PLz6qEVH9g253gRUGgKgwrTdr5agVqdZ6QxJJ2nb5XvAK38JAEmyYf8TgVlz9LQDu0cczwIqCgFQAayV2bhSx0fSB4x0uqSE602ASy8PAEmy4cCK4Y0PvHHRm5VxOAuoKARAGeu6X02phM6yRh+TtND1HqBcvDoAJCkK+347o3vFSeY45R3NAioKAVCG2h/TlFxW51rpQ5JaXe8Bys32AkCSovzAXTOefeA08y6FDmYBFYUAKCPPPajmeqOzrdFnJU10vQcoVzsKAEkKcz23z1y88h3GKCrxLKCiBK4HQHrsMdVsWKFz6gKtt0aXiQd/YNxiNVNO37p62Q2udwDljgBwbMNKnTAlqyet0ZWSJrneA1SDWM3kd7c/ddR3Xe8AyhkB4Ejb/Wppe0jftVa/lrS/6z1AtYnFWj+w9allV7jeAZQrAsCBthV6m6nVc0b6gHgdBlA0QWzyuR2rj/qS6x1AOSIASmjTQ6pvW6krjdFtkqa73gP4IIi3XNCxevkFrncA5YYAKJEND+uAUHrcWJ0jfusHSsbKGBNv/VL7U0d/wvUWoJwQACWwcaVOs5EekrSf6y2An4yJxSZe0b56+YdcLwHKBQFQRNbKrF+pL0ZWt4u39gGOmSAeb72q85ljz3S9BCgHBECRPP20Ehse1g9kdaG45A+UBSsTl5q+1/HM8n90vQVwjQAoguceVHPjoO6V1btdbwHwKiaIG9N6Q/fq4051PQVwiQAosLb71VIX6F5Jb3C9BcCOmNoo1njr5iePfqPrJYArBEABbX5Ek02t7pe01PUWALtgTENNYuJtnU8dt9z1FMAFAqBA1j6sCblQd0s61PUWALvLNJtYw51bnzr2ta6XAKVGABRAx5NqrIl0l5G4EwEqjFUwMYg139X37AmLXW8BSokA2EPWKkgndZMkLiMCFctMyan2N+2rj+F7OeANAmAPrX9Y35R0uusdAPZUMDUWn3Bf56pTF7heApQCAbAH1q/Q2S99tC+AqmBmKWHu61nzltmulwDFRgCM0/oVWiqjb7reAaDArJkfWfP7rqffPMP1FKCYCIBxaHtUM2T0M0kJ11sAFJ61eo0NgvsGnz5jkustQLEQAGNkrYwJdZ2kma63ACgmc2A6SP+uv+30FtdLgGIgAMZo/Up9XFZvdr0DQEkszqXzv+548sxG10OAQiMAxmDDwzrASJe63gGgdKzMa4PE4J227eI611uAQiIAdpO1CmykayRxJwB4xsoe25V57E772AdqXG8BCoUA2E0bH9JHxYf9AP6y5vjuxs7brL047noKUAgEwG5oe1QzrNGXXO8A4JZVdGr380/cZK3lvhMVj3+Jd0OQ06WSml3vAOCejcJ/7Fnz9huttcb1FmBPEAC7sOFhHWGN3uN6B4DyEdnwX7qfP+O/iQBUMgJgF6JQl4o/JwCvYqPM2T1rz/iG6x3AePHAthMbHtZRxuhNrncAKE82yny86/l3fdH1DmA8CICdsBEv/AOwY9bK2DD1uZ61//pZ11uAsSIAdmDjCr1W0rGudwAoeyYMh7/UueYfz3U9BBgLAmAHokDnud4AoEJYG5godXn38+/+oOspwO4iALZjwwNaIKvTXe8AUDmsbCyKhr/Vv+4s3jWEikAAbE9M75cUcz0DQIWxUSKb7b2ma+173+V6CrArBMCr2PsVt9J7Xe8AUKFsVKtw8Prute8/zfUUYGcIgFfZUKfTJM10vQNA5bI2bLBh9009L77/BNdbgB0hAF7N6l9dTwBQ+awNm22+56fdbR96g+stwPYQAC/z3INqlnSK6x0AqkMU5SdGmc6f9qz72OtcbwFejQB4mbpAb5VU73oHgCpi85OjzJZf9rd9+lDXU4CXIwBexljxoh0ABWeVm57LvHhn74bzDnS9BfgLAuAl9lbFrBEv2AFQFNbmZoXpdb8a3PTFRa63ABIB8FcbZut1kia73gGgetkoPS+TWnVnX/tlc11vAQiAvwh0vOsJAKqfDdOLwpHH70luvGqW6y3wGwHwF1bLXU8A4IcoTO0/mn7wzuGOb09zvQX+IgC07Ss9Jb3e9Q4A/ojC0UPTQ7+/a2jzDTz1CCcIAEltK7SPpEmudwDwSxQmj8ikf32b7b1rgust8A8BIMnExPtzATgR5YaO7um9+efWPt3kegv8QgBIMpEWu94AwF9ROPjGnhcu/Ym1m/ggMpQMASBJRnw4BwCnovzgyb0vfP5Ga22t6y3wAwGwzQLXAwAgzPe+o/fFf7/WWptwvQXVjwDYZm/XAwBAksJc15l9bR++2lpb43oLqpv3AbDpIU2SNNH1DgD4i3xmy7/3tp19hbU27noLqpf3ARAFmuF6AwC8WpTd/NG+to9dSgSgWLwPAJPn8/8BlB9rZcLshk/2t330Emut9/fVKDzv/6WKAk1xvQEAtsdamVx20/m9Gz51ARGAQvP+XygjNbveAAA7ZG0Qpdb+Z9/6C86x1hrXc1A9vA8AWfGeWwBlzcrGw/TTXxvY/LmPEgEoFO8DwEq81QZA2bOy8Wzy6a8NbLrofUQACsH7ADCGAABQIWxUm02uvmqo/bJ/cj0Flc/7AIgkShpABQkbMsOPXDuw4UtnuF6CyuZ9AABApbE2bMymHr92qOMbb3W9BZWLAACACmRtbmJ68KHvjWy+8o2ut6AyEQAAUKFslJkymnzgR/1br3qD6y2oPAQAAFQwG2Wm5oYe+OFgx/VHut6CykIAAECFs1FqVnrw3luSXT86zPUWVA4CAACqQZTce3Tglz8d6bh1sespqAwEAABUiSgcWZAauv3WdPed+7jegvJHAABAFYnC4f2G+2+5NTXwyHzXW1DeCAAAqDJROHDISPd//3R09NE5rregfBEAAFCFovzA4aPt377FJp+b5XoLyhMBAABVKsz1LOvd+vUbre2Y5noLyg8BAABVLMx1Ht/XdtGN1g5Ndr0F5YUAAIAql89sPbG37TPXWWtbXG9B+SAAAMADYWbL2/rXf+Jqa+1E11tQHggAAPBELr3uX/o2fOqb1tpm11vgHgEAAB7Jp55/X/+GT19hrW1yvQVuEQAA4Jl8es2/D2z83JestQ2ut8AdAgAAPGOtTHZ09TmDmy/5PBHgLwIAAPxkMsnHPzOw5QvnW2vrXI9B6REAAOAra4Pc8J8+O7jl8v+w1ta6noPSIgAAwGNWNp4Zfujioa3/9WFrbcL1HpRO3PUAAIBrUSI99LvLAhsPrbXfMcbkXC9C8REAAADJRrWjQ7+5zMYSKWvt940xedeTUFwEAADgJWFDeuCeKwJTn7HW3myMCV0vQvEQAACAv7I2P2G0//arrAmy1tqfGGMi15tQHAQAAOAVrM1NTPXf/t+xoD5rrf0FEVCdCAAAwN+xUWbKSM8t/2ODhoy19m5jjHW9CYXF2wABANtlbXrGaPf112SG7jvRWmtc70FhEQAAgB2KotTsoY7rvpMeeOAYIqC6EAAAgJ2yUXLecPe3v5cefmS56y0oHAIAALBLNhxZMNJx1bXZwSde53oLCoMAAADsligc2m+g8xvXZJNrD3e9BXuOAAAA7DYb9h8y2P7lazPDLxzkegv2DAEAABiTKN97+HDnpddY27Of6y0YPwIAADBmYa5rae+6C6+2dnCR6y0YHwIAADAuYXbL8b3rzv8fa1PzXW/B2BEAAIBxC7ObT+htO+9Ka+1c11swNgQAAGCPhJm2t/at//RXrbWzXW/B7iMAAAB7LJ9e808DGy/4srV2lust2D0EAACgILKjT713YNOFX7DWTne9BbtGAAAACiY3uuqsoc1fvNBaO831FuwcAQAAKBhrZdIjf/zIYPvln7LWTna9BztGAAAACs1khld8cnjrNz5prZ3kegy2L+56AACgClkbpAd//2lratLW2m8ZYwZcT8IrEQAAgKKwsvH0wG8+Z1SXsdZ+xxgz6HoT/oYAAAAUUZRIDd55SRDE8tbaa4wxw64XYRsCAABQXDaqTfbd8QUTa0hba28wxoy4ngQCAABQEmFDsufWrwSmPmOtvdkYM+p6ke8IAABASVibnzDc/YOvK4iF1tpbjDEp15t8RgAAAErG2tzE4a4bLldQl7HW/twYk3a9yVcEAACgpGyUmTK89ZorgqAha629wxiTcb3JRwQAAKDkrE3PGGq/8r8m7BXPW2vvMsZkXW/yDZ8ECABwIopSswc3f/ObmdEnT7TW1rje4xsCAADgjI2S84Y3X35FJvPCcdZarkqXEAEAAHAqiob3Gd548ZXKbzzWWhtzvccXBAAAwLkoHNqvu+3zV+TzW5dba3lsKgH+kAEAZcGG/YcMbrzw8ny+fykRUHz8AQMAykaY7X794MbPXK7c0Guttcb1nmpGAAAAykqY7VzWu+m8r0ijS4iA4iEAAABlJ8xuOb6/7fz/lHQIEVAcBAAAoCzlMutP7W/7xCWSDna9pRoRAACAspXLrDutf8N551lrD3S9pdoQAACAspZLPfvPAxsv/DQRUFgEAACg7GVHV713YNNF51pr93G9pVoQAACAipAbfeJ9A5u+co61dqHrLdWAAAAAVARrZbKjj3x4sP0bH7TWvsb1nkrHFy8AACqHtUFm+PfnDnfEQmvtt40xG1xPqlQEAACgslgbpAd++0mruoy19jpjzEbXkyoRAQAAqDhWNp4euPt8E6tLW2t/YIzZ4npTpSEAAAAVKkqk+m67KAjiobX2JmNMu+tFlYQAAABULhvVJbt/+p+BqctYa28xxnS6nlQpCAAAQIULG5I9N18SmIastfZnxpgu14sqAQEAAKh4UZSbONT9v19pVCx8KQJ6XW8qdwQAAKAq2CjXkuy69stBvCFnrf2FMabP9aZyRgAAAKqGtZkpw1u/9eXA1mattXcaYwZcbypXfBIgAKCq2Cg9c6jj619NJf98irV2ous95YoAAABUnShKzU62X/7lMLXmTdbaZtd7yhEBAACoSlGYnN+/6QtfDrObjrfWNrneU24IAABA1Yqi4X36N1xwaRhueYO1tsH1nnJCAAAAqloUDu7f3/a5L4aZ7jdYa+td7ykXBAAAoOpF+b5DB7acf1E+P3i0tbbO9Z5yQAAAALwQZrtfP7TxUxcpn15ura11vcc1PgcAQMXJjDwqI+N6BirT8pHum9479/Xn/971ENcIAACVx+ZlXW9A5bK5M9c/dPH9kq53PcUlngIAAPgnUIvrCa4RAAAAeIgAAADAQwQAAAAeIgAAAPAQAQAAgIcIAAAAPEQAAADgIQIAAAAPEQAAAHiIAAAAwEMEAAAAHiIAAADwEAEAAICHCAAAADxEAAAA4CECAAAADxEAAAB4iAAAAMBDBAAAAB4iAAAA8BABAACAhwgAAAA8RAAAAOAhAgAAAA8RAAAAeIgAAADAQwQAAAAeIgAAAPAQAQAAgIcIAAAAPEQAAADgIQIAAAAPEQAAAHiIAAAAwEMEAAAAHiIAAADwEAEAAICHCAAAADxEAAAA4CECAAAADxEAAAB4iAAAAMBDBAAAAB4iAAAA8BABAACAhwgAAAA8RAAAAOAhAgAAAA8RAAAAeIgAAADAQwQAAAAeIgAAAPAQAQAAgIcIAAAAPEQAAADgIQIAAAAPEQAAAHiIAAAAwEMEAAAAHiIAAADwEAEAAICHCAAAADxEAAAA4CECAAAADxEAAAB4iAAAAMBDBAAAAB4iAAAA8BABAACAhwgAAAA8RAAAAOAhAgAAAA8RAAAAeIgAAADAQwQAAAAeIgAAAPAQAQAAgIcIAAAAPEQAAADgIQIAAAAPEQAAAHiIAAAAwEMEAAAAHiIAAADwEAEAAICHCAAAADxEAAAA4CECAAAADxEAAAB4iAAAAMBDBAAAAB4iAAAA8BABAACAhwgAAAA8RAAAAOAhAgAAAA8RAAAAeIgAAADAQwQAAAAeIgAAAPAQAQAAgIcIAAAAPEQAAADgIQIAAAAPEQAAAHiIAAAAwEMEAAAAHiIAAADwEAEAAICHCAAAADxEAAAA4CECAAAAD8VdDwBQXUxQr3hijmKJWQpqpiqIt8rIyMRbJEk2SslGacnmFOZ6FOU6lc+2K8p1ydqs4/WAPwgAYBzqJp6gIN5a1DMyQ79TmOsu6hl7KlYzQ3UT36BEw6GqaTxMicZDFKuZPr4bs6FymXXKjT6tXOpZZUceU2b4QYW5rsKOBiCJAADGpXXupUo0LSnqGZ1PH1uWAVDbvEwNk96muoknKdF4sCRTmBs2MdXULVJN3SJJp//1L+dSzyk99Dul+m5XevB+rhIABUIAANilWGIvNU37NzVOPVM1dfuU9Oya+v1UU7+fmqd/SFF+QKn+OzTS9T2lh34vyZZ0C1BNCAAAO1RTt48mzD5fjVPfLWNqXM9REG9R49Qz1Tj1TOVSz2mk87sa6bpOUTjsehpQcXgXAIC/E0vM1pSFN2rWoc+oadr7yuLB/9Vq6vdT67xvavbh6zRx9vkysSbXk4CKQgAA+CtjEpow+zzNPvQ5NU59t2RiriftUhCfopa5l2qvw9vUPP1D4m4N2D38lwJAklTTcKBmHvyYWudeVpG/TQfxKZq04NuaufgR1Ta9zvUcoOwRAADUOPU9mrn4EdU0LHY9ZY8lmpZoxuKHNWnelTIm4XoOULYIAMBjJqjVlIU3asrCG2SCRtdzCsioeeY5mnHQipK/awGoFAQA4KkgPlnT9v/1tuf6q1SiaYlmHPyY6ltPdT0FKDsEAOCheO1czTz4j6qbcIzrKUUXxJo1bd/b1TT9A66nAGWFAAA8E6uZrmn736t47XzXU0rHxDV5wXc1YfZ5rpcAZYMAADwSxCdp+oH3q6Z+P9dTnGide6maZ3zE9QygLBAAgDcCTVl0k2rq93c9xCGjSfOvUsPkM1wPAZwjAABPtMy5SPUtp7ieUQaMpiy8vire8gjsCQIA8ECi8QhN3OvzrmeUDRM0atq+P1cQa3Y9BXCGAACq3rbL3vzn/krxuoVqmfsV1zMAZ7hHAKpc09T3qLZ5qesZZal5xtmqbV7uegbgBAEAVDXDW992KtCk+d+SZFwPAUqOAACqWH3rqZ6/6n/XEo2Hq2HS21zPAEqOAACqWPOMs11PqAgT51wirgLAN3HXAwAURxBrVt2E413PUBQOKsp1KwoHJWsV1ExREJ9cVq/ATzQcrLoJRys99AfXU4CSIQCAKlXXcqJMUFvyc22UVmrgLo32/kSZ4UeUz7Rt958L4lNUN/FY1U04Tg2TTlcsMbvES1+padq/EwDwCk8BAFWqbuIJJT7RaqTzGm3582vUveYdSvbcssMHf0mK8j0a7f2Z+to+qi2PL1Dvi2cpl3q2hHtfqWHyO2ViTc7OB0qNAACqVKLh4JKdZaOMep7/Z/Wu+6DCbPvYf95mNdJ1vdqfXKyBTRdLNl/4kbtggvqyeMoEKBUCAKhKRjUNB5XstIGNn1Wy98d7fkM21ODmS9Tx9BvGFRJ7qr6Vj0qGPwgAoArFaqYpiE0oyVn59Asa2nplQW8zM7xCnc+coDDXXdDb3ZkoHFaU6yrZeYBrvAgQqEJBbGLJztr2m39U8NvNpZ5V17MnavqBvyvq/59c6lkNd1ytZPeNisKhop0DlBsCAKhCJl6a3/4lKTdavBfuZZNPqK/tHE1ZeEOBbzlSqv8uDW29UunB30iyBb59oPwRAEAVMkF9yc6yNlvU2092/0CNk89Qfetb9vi2wlyHRjqv1XDndxVmtxRgHVC5CACgCtkoVbKzaur2KfoZves+rNmHvWncn2uQGXpAwx1Xa7TvtqIHC1ApeBEgUIVsmCzZWU3T/5+MSRT1jDC7WcmeH47pZ2yUVrL7Rm1ddag6nj5Gyd4f8+APvAwBAFQhG46U7Kx47Xy1zP1i0c8Zar9Cu/NcfS71nPraztHmx2ao54X3KJt8sujbgErEUwBAFQrzvdr2YFmaL7iZMOszkqSBjRfK2lxRzsilnlF66A+qm3Ds3/9Nm9do/x0a7rha6cHfihf1AbvGFQCgCtlotOQvcpsw6zOasXilEk1LinZGqu8Xr/jfYa5Tg1u+rC2PL1D3mn/gFf3AGBAAQJXKpZ4v+ZmJxiM0c/EfNW3/e1TfcrJkYgW9/dH+bQGQGV6hnrX/oi1/mquBjRcqn91U0HMAH/AUAFClcqnnVDfRzWfb17ecpPqWkxRm25XsvUWp/nuUGX5ANkrv0e3m0+vU/sT+yqWeK9BSwF8EAFClMsMPqnnG2U43xBKzNGHmuZow81zZaFTZ5J+VTT6p7OgTyiWfVHb0adlobO9Y4MEfKAwCAKhSf3s+vDQvBNwVEzSotnm5apuXv+yvRsql1iozslKZoT8oPfSA8ukXnG0EfEIAAFUqzHUpm1ylROMhrqfsRKCa+n1VU7+vmqb+m6Rtl/nTg/dptP9XSg/cy3v3gSLhRYBAFRvt/YnrCWMWr1ugpukf0LT9fqm9lnRoyqKb1Tjln0r27YaALwgAoIqNdF1XtPfll0IQb1XjlH/WlEU/0l5LOjVtvzvUMPmMon/yIOADAgCoYmGuQ6m+X7qeURAmqFN961s0dZ9bNfuITWqde5nitfNdzwIqFgEAVLnB9sskRa5nFFSsZpomzD5Psw9bq6n73qbapte7ngRUHAIAqHLZkcc00nWD6xnFYWJqmHS6Zix+WDMOelD1rW91vQioGAQA4IGBjRcoCodczyiq2ublmrbfLzXjoAe2fQohgJ0iAAAPhLkO9a//hOsZJVHbfJSm7X+3Zhz0kGrq9nE9ByhbBADgiZGu65XsucX1jJKpbV6qmYc8oeaZH3c9BShLBADgkb62s736KF0T1GvSvP/S5Nd8r+BfTARUOgIA8EiU71fnMycon9ngekpJNU17n6YuulnG1LieApQNAgDwTJjdoq5nT/HuK3QbJr9LUxb9SNztAdvwXwLgoVzqWW198nClh37nekpJNUx+h1rmfsH1DKAsEACAp6J8j7qeOUlDW7+havugoJ2ZOPsCNUz6B9czAOcIAMBj1mbVv/6TL70uYKPrOSViNHnh9xWve43rIYBTBAAApQfvV/sT+2tw8yWyUcb1nKILYs2avOBaScb1FMAZAgCAJMlGoxrYdLG2rjpMo32/cD2n6OomHqfGqf/qegbgDAEA4BVyqWfVveZ0daw+UqmBeyVZ15OKpnXvbyiIT3I9A3CCAACwXZmRR9T17Mna+uShSnb/oCqfGojVTNWEWZ90PQNwggAAsFPZ0VXqeeG92vL4HPVv+LRy6eddTyqo5hkfUxBvdT0DKDkCAMBuCXPdGmr/utr/vK+2rlqikc5rZKOU61l7LIg1q2nqv7meAZQcAQBgzLLJP6l33Qe1+U97qWftu5Xs/bGi/IDrWePWNO0s1xOAkou7HgCgckX5PiV7fqhkzw9lTI1qJxyt+ta3qr71VNXULXI9b7fVNBykeO085TPrXU8BSoYrAAAKwtqc0oO/Vf/6/1D7n/fRlscXqHfdBzXa+xNF4aDrebtU33KK6wlASREAAIoin2nTSOc16n7+Xdr8x2nqfOaNGt76rbL9JsL61je7ngCUFE8BACg6a7NKD/5W6cHfSus/rkTj4WqY9HY1TH6Haur3dz1P0rYPBpKJSTZ0PQUoCa4AANglE9QX9Payycc1sOnzan/iAG1ddYSGO66WjUYLesZYmaBR8cRcpxuAUiIAAGxHoETTEk3c6/OacdBKzVz8aNFOyiYfV1/bR7Xl8XnbvpnQ5ot21q7U1O/r7Gyg1HgKAIAkKYhPUn3LiapvOUV1LScrVjPtr3/PRhnJxIv64BzmutW//pMa6fq+piy6SYmGg4t21o7E6/eVBu4p+bmACwQA4C2jRONhqm85RfWtp6i26chtz4Fv758MapVoOETZ5J+Kvio3ulodq5dpysLr1TD5jKKf93I1dfuU9DzAJQIA8EgQb1HdxDf99UE/VjNjt3+2bsKxJQkASbJRUt1r/1lTorQap55ZkjMlveKqB1DtCABgHExQ63rCbjJKNB6y7QG/5RTVNi/ddil/HBomv33bc/SlYkP1rnu/Ek2vVU39fiU50sQaS3IOUA4IAGAcSvEVsnacX8MbxCaqruWEvz7oxxKzCrKntnmZ4nULlE+vK8jt7Q4bZTSw8bOauu9tJTkvCJpKcg5QDggAYByC+OTiHzLWr981MU0/4D7VNi+XMTVFGBSoecZH1L++tF+fm+q/S1F+QEG8pehncQUAPuFtgMAYxWvnywR1RT/HRukx/kCoRMMhRXrw36Z5+gcVS8ws2u1vj7VZ5VLPluQsExAA8AcBAIxR3YRjSnJONI6v2g2zW4qw5G9M0KiWOV8s6hnbE+V7S3KOtWO86gJUMAIAGKO6lpNLcs54Phkvn91chCWv1DTtLNW3nFj0c14uKNGr8204XJJzgHJAAABjEK9boMbJ7yzBSVZRrnvMP5UbXV2ELa9mNHnhjYon5pTgLEkmrpq6hSU5KiIA4BECABiDlr0uGffb6MYizHXL2uyYfy4z/HAR1vy9WM00Td3vDgXx1qKfVd9ycknedSFpXNEFVCoCANhNzdM/rMap7y7JWWG2fVw/lxkpTQBIUqLxEE3b/56ifniOMTWauNeFRbv9V8ulnivZWYBr7D5SSQAADh9JREFUBACwG5qnf1Ct868s2XlhduM4f65dudSaAq/Zsdqm12nmwY+rtnl5UW6/Ze/LVdv0+qLc9vYQAPAJAQDsRLxuoabu81NNWvCdor697tWyyVXj/tnR3lsLuGTXYonZmn7g/Zow81wV6i7FmIQmv+Y6TZj5iYLc3u7KjT5V0vMAlwgAeKOm/oDdes46XrdIjVPP1LT97tDsw9aoYfI7SrDulbKjT4z7Z5MlDgBp26X61nlXaObBf1TdxDfu0W3VTTxBMw/+k5qmnVWgdbsnzG5WLv18Sc8EXOKTAOGNafv9QvG6hYryfcpnNslGo7JRUtbmFMQmKIi3KlYzo2QvONuZbHL8AZAbfUrZ5JNKNB5SwEW7J9F4uKYfcJ+yI49ppOt7Gu37qcLdeGFdEGtWw+R3qmnq+1Q74egSLP17qYF7nZwLuEIAwDtBfJISZfAgvyNhdssef97+0Nava8rCGwu0aOwSTUs0qWmJJi24WrnRp5VN/lm59IuK8r2yNqsg1qwg1qJYYrZqm5aopv6AHX4VcamkBu5xej5QagQAUGa2/SY6vi8C+otkzy1qmfNFxWvnFWTT+BnVNBykmoaDHO/YuSjfq1T/r1zPAEqK1wAAZSY98Os9vxGb19CWr+757XhipOv6sX/3AlDhCACgjNgopdRgYZ6LHu66Vtnk4wW5rapmQw13XuN6BVByBABQRkZ7f6ooP1CYG7Ohetd9SFJUmNurUiPd31c+vdb1DKDkCACgjIx0XVfQ28uO/FHDHf9T0NusJjZKamDTRa5nAE4QAECZyCafVHroDwW/3f4Nn+KpgB0Y3HzpuD92Gah0BABQJrb9Jrpnr/7fHhtl1L3mHxTl+wp+25UsO/JHDbVf7noG4AwBAJSBzMijSvXfUbTbz2c2qGftv4zrGwarURQOqfv5f5S1OddTAGcIAMA1G6q/7RwV47f/l0sN3KveF94r718UaEP1vvAe5TNtrpcAThEAgGOD7V9TZuSRkpyV7LlFfes+qmLHRvmy6m37sEb7fuF6COAcAQA4lE0+ocHNF5f0zOHOb6v3hbMkmy/pueVgYOPnNNJ5resZQFkgAABHwuxWda95m2yUKfnZI93fV+ezb5YNR0p+thM2VF/bRzW45VLXS4CyQQAADtgoqa41pymf2ehsQ3rw/9T5zAlON5SCjVLqfv4MDXdc7XoKUFYIAKDEony/Op85SdmRx1xPUWbkEW1ddVjVPieeSz2jjqeWa7TvNtdTgLJDAAAlFGbb1fn0G5QZXuF6yl9F+T51r3m7+trOkY2SrucUiNXw1m9p66olyib/7HoMUJYIAKBE0oP3aeuqw5UdXeV6ynZYDXdcpfYnDtBo3+2ux+yRbPJP6nj6WPWt/7hslHI9ByhbBABQZDYaVf/G89X5zEkKc52u5+xUPrNR3Wverq7nTlNu9GnXc8YkzLar94X3aeuq1ykz9IDrOUDZi7seAFSzVP+v1Nf2MeUz611PGZNU/x1K9f9K9a1vUcucS5RoPMz1pB3KpddquONqjXRew2/8wBgQAECBWZvVaM+PNbT1mxX+/LN9KQTuVH3ryWqa9n7Vt54qY2pcD5ONRjXaf4eSXd9XauBe+fvBRsD4EQBAQUTKDD+i0b6fK9lzc5V9w1ykVP9dSvXfpVjNDDVOPVMNk05TbdNSycRKtyI/oPTQ7zTa9zON9t3uz2cYAEVCAMAbPWv/VYnGw1TTsFg1DQcqXrtA8cTscT2I2Sij3OhqZUYeVmbkEaUHf1tlD/rbF+Y6NNT+NQ21f01BfJLqW05W3cTjlGhcokTDQZIp0F2KDZXLrFMuuWrbn+/Q/duuptiwMLcPgACAPzIjjyoz8ugr/poxNYol9lIsMUNBfJKC+GSZoE5BbKJktr1G1obDslFWUdivMLtV+cx6hdmt8v2yc5TvU7LnZiV7bpYkmaBeiYaDFa9fpHhijmK1cxVPzJEJahXEWiRToyDWrCjsf+nnB2VtXlGuU2GuQ/nsFkXZDuXSLyiXeobn84EiIwDgNWtzymfa+Ga4ArBRSpmRR0r2xUYA9gxvAwQAwEMEAAAAHiIAAADwEAEAAICHCAAAADxEAAAA4CECAAAADxEAAAB4iAAAAMBDBAAAAB4iAAAA8BABAACAhwgAAAA8RAAAAOAhAgAAAA8RAAAAeIgAAADAQwQAAAAeIgAAAPAQAQAAgIcIAAAAPEQAAADgIQIAAAAPEQAAAHiIAAAAwEMEAAAAHiIAAADwEAEAAICHCAAAADxEAAAA4CECAAAADxEAAAB4iAAAAMBDBAAAAB4iAAAA8BABAACAhwgAAAA8RAAAAOAhAgAAAA8RAAAAeIgAAADAQwQAAAAeIgAAAPAQAQAAgIcIAAAAPEQAAADgIQIAAAAPEQAAAHiIAAAAwEMEAAAAHiIAAADwEAEAAICHCAAAADxEAAAA4CECAAAADxEAAAB4iAAAAMBDBAAAAB4iAAAA8BABAACAhwgAAAA8RAAAAOAhAgAAAA8RAAAAeIgAAADAQwQAAAAeIgAAAPAQAQAAgIcIAAAAPEQAAADgIQIAAAAPEQAAAHjI+wAIrCLXGwAApcV9PwGgKFDO9QYAQGlFRhnXG1zzPgCMVdb1BgBAiUUEgPcBIKO06wkAgNIyAb/8EQCRBlxPAACUXJ/rAa55HwDWqtf1BgBAaUXc9xMA8UA9rjcAAEorFnLf730A1GbU4XoDAKC0aieo0/UG17wPgGnHaUSWEgQAj3TNOERJ1yNc8z4AJElG611PAACUhhH3+RIBIEkyVi+63gAAKA1rtM71hnJAAEiy0lOuNwAASma16wHlgACQFARa5XoDAKA0DAEgiQCQJIUiAADAFxEBIEkyrgeUi/UPqV3STNc7AABF1TlvmWa4HlEOuALwNytdDwAAFJnRg64nlAsC4C+MVrieAAAouodcDygXBMBLbKTfut4AACiuKK/fuN5QLngNwEusldmwUpslzXK9BQBQFB17L9UsY2RdDykHXAF4iTGyMrrX9Q4AQJEY3c2D/98QAC9jrX7pegMAoEis7nA9oZwQAC+TH9DdkgZd7wAAFNxwTLrH9YhyQgC8zKI3KyNxFQAAqtDtc5Yp5XpEOSEAXsVKP3S9AQBQYEY/cj2h3BAArzJvqf5PfFUkAFSTzXtv0q9djyg3BMCrGKPISNe73gEAKAxrdZ15l0LXO8oNAbAdJtL/Ssq63gEA2GP5sEbXuR5RjgiA7Zh7lNqNeL4IACqe1Y8Xvk6bXM8oRwTADhirr0t8YAQAVLRA33A9oVwRADswd7meknSX6x0AgPEx0r3zlupx1zvKFQGwM0YXiasAAFCRokgXu95QzgiAnXipHH/hegcAYMx+Nf8oPex6RDkjAHbBBPqcpLzrHQCA3RZG2+67sRMEwC7sfaSekdW3Xe8AAOweI1274Eitcr2j3BEAuyFmdLGkXtc7AAC7NJDN6yLXIyoBAbAb5ixTn6TPuN4BANg5a/TZRceo2/WOSmBcD6gU1sqsf0j3GqM3ud4CANgOo4f3PlLLjVHkekol4ArAbjJGNiZ9WFLS9RYAwN9JSzqLB//dRwCMwdzletFY/YfrHQCAVzJGn5m3VM+63lFJeApgHNoe0o+N9C7XOwAA2z7xb+5SnWIMH9w2FlwBGIf4tqcC1rveAQDQljDQe3nwHzsCYBzmLFNfFOp0SaOutwCAx3Im0D8tOFKdrodUIgJgnBYcrSet0Udc7wAAj/3H3kfqQdcjKhUBsAfmL9X3jXSZ6x0A4BsrXTNvma52vaOSEQB7aO5SXSCjm1zvAACP3D0vwxXYPUUA7CFjZG1a75d0n+stAOCBlXWNOsMcx5e07SneBlgg7Y+pIZfV3VY6xvUWAKhSq2LScS99PDv2EFcACmTWEo3mEzrNSI+63gIAVeipvNWbePAvHK4AFFjHk2pMJ/VLSce73gIAVeLxREInzVqiHtdDqglXAApsxiFKJhJ6q6R7XG8BgEpnpQfChI7nwb/wCIAimLVEo3tn9FYjfcf1FgCoWEY/i0snvWaJBl1PqUY8BVBk61fqAll9SfxZA8Bus0ZfnXekPstH/BYPD0olsP5BvVmBbpLU6noLAJS5lDX68PylusH1kGpHAJTIiw9rURDpZ0Za7HoLAJQlq+djRu+cs0yrXU/xAa8BKJHXHKm1yuh11uirkiLXewCgzNzYkNURPPiXDlcAHFi/UqfI6n8lzXK9BQCcsuoxRmfvvUw/cT3FN1wBcGDeUt0dJnSANfqWuBoAwF8/yYU6gAd/N7gC4Ni6FTomCPQtWR3iegsAlMgaK318/jLd63qIz7gC4NiC5frD3pt0hJU+JKnb9R4AKKIBa3RuT0KLefB3jysAZaTrfjWlEvqINTpPvGUQQPVIWqPrwkhfXrhcXa7HYBsCoAxteECtUaCPG+kjMprieg8AjNOgNfpOPqcrFh3DFc5yQwCUsfbH1JDN6N8kfVxG+7jeAwC7ab2MrkqHuna/ozTsegy2jwCoANbKrH9Yxxqr90v6B0l1rjcBwKtkJf3SSv87b6n+zxje4VTuCIAK0/6YGnJZnWql90g6UVLC9SYA3golPWykn+SsfsTz+5WFAKhgLz6mibGMTpB0spFOskZzXG8CUPW2Gqt7o0D3xK3+b84y9bkehPEhAKpI20rNCyIdZaVlMjpc0kGSGl3vAlCxRq30tKQ/B9IKY7Vi7nK96HoUCoMAqGLWKti8UgtCq31lNF9W863RXkaaZqXJRposqV5STNIEx3MBlM6Qtl2+T1mp10i9krpltckEWi+rtnygNQterxd5Lr96/X9n+9ZvgYT2JwAAAABJRU5ErkJggg==;" vertex="1" parent="1">
          <mxGeometry x="150" y="372" width="36" height="36" as="geometry" />
        </mxCell>
        <mxCell id="pYpf6Nf2uUUaodTvFNSU-22" value="" style="shape=image;verticalLabelPosition=bottom;labelBackgroundColor=default;verticalAlign=top;aspect=fixed;imageAspect=0;image=data:image/png,iVBORw0KGgoAAAANSUhEUgAAAgAAAAIACAYAAAD0eNT6AAAACXBIWXMAAA7DAAAOwwHHb6hkAAAAGXRFWHRTb2Z0d2FyZQB3d3cuaW5rc2NhcGUub3Jnm+48GgAAIABJREFUeJzt3XuQlfWd5/HP71z6atNcmosoBkyEaLzGSxSDIwIaUIM0sVO1yabK0TAmmUxqaqoyk6pMhd3NVHZnZ3ZnN9GMm8Sk5pKKJHSDbFCjgjeCQlZFQYkGBRGQm0B3Q1/O6fPbPw5E5SJ9zvmd83ue5/d+VaUmNXCe59vpbp73eS6/YwTU2COP2OYjR3KfsNaeJ6UmG2unGGMnWGvaJI2R0Zijf7VFUsbjqEDJCgVp92778Fe/Vj/X9yzAhzG+B0Cy3XefzY4bl7tMBU03xky31l4mo3MlpXzPBlRDoSD94XWrlhEiAhBpBACce/DBvimFXHquNXaurJkpo2bfMwG1ciwAJBEBiDQCAE4sXdr3EWMyHUb285Iu9z0P4Mv7A0AiAhBdBADKtmSJrctkBucb6UuSmSsp7XsmwLfjA0CSRrSYR7/y53U3ehoJOCkCACVbscK25QfzX5GxX5M03vc8QJScLAAkzgQgeggADNuKJUfOGspkvmWlOyQ1+Z4HiKJTBYBEBCBaCACcVmenHWdM7lvG6m4rNfieB4iyDwsAiQhAdBAAOKWjj/B9VVb/SVKr73mAODhdAEjcE4Bo4FlsnNSyX+VuGteWe0VW/yQO/oBT3T12zg++P/Cw7zkQNs4A4AO6uuxIFXL/TUZfFj8fQMmGcwbgmDPOMI997et1c6o8EnBSnAHAHy1bmpstm9sso0Xi4A9UXW+vnc2ZAPjCP/LQkiU2nU0P/q2M+bZ4lh+oSClnAI7hTAB84AxA4Do77bhsJveQjPmOOPgDXvT22tn3fH/wUd9zICwEQMCWLc3NNsq9LIl3HoBnXA5ArREAgVrWOfgla+xKSeN8zwKg6HCvbuJMAGqFAAhQV9fgN6z0M0lZ37MA+CAuB6BWCICAWGvNss6Bvz/6bD83gAIRRQSgFjgIBGL1aps5eCB3n6Q/9T0LkGTlPAVwKjwdgGriDEAAFi+2qUMH8j8XB38gVnp77ex7f8CNgagOAiAAl16c+59W9nbfcwAoXU8PNwaiOgiAhOtaOrDYSn/hew4A5eOeAFQDAZBgnZ2Ddx9d4AdAzBEBcI0ASKiuroGFRrrH9xwA3OGeALhEACTQ8uX9H5M194vvL5A43BMAVzhAJMxPf2obCoXUEkkjfM8CoDq4HAAXCICEGTki979kdZnvOQBUFxGAShEACdLVNdAho0W+5wBQG0QAKkEAJMSvftV/nqz5se85ANQWNwaiXARAAixebFPpVOonklp8zwKg9rgxEOUgABLg0otyd0ua4XsOAP5wOQClIgBibskSO8Eafc/3HAD843IASkEAxFw2nfueeOQPwFFcDsBwEQAxtnTp4Cdl9CXfcwCIFi4HYDgIgBgzRv8gvocAToIIwOlw8Iipzs7cDUaa6XsOANFFBODDEAAxlZL9z75nABB93BiIUyEAYqizM/cnVrrW9xwA4oEbA3EyBEAMGau/8j0DgHjhcgCORwDETGdn/1QZe7PvOQDETzECBh7xPQeigQCIndTd4vsGoEy9vbqRMwGQOJDEysqVtt5IX/Q9B4B443IAJAIgVgYGBtsljfU9B4D443IACIAYMVZf8D0DgOTgckDYCICY6OqyI63MHN9zAEgWLgeEiwCIjdxtkup8TwEgebgcECYCIC4K5hbfIwBILi4HhIcAiIHVq21Gxs7yPQeAZOvttbN/eM/gY77nQG0QADHQ/W5+uqSRvucAkHzd3XbWvfdwOSAEBEAMDBld73sGAOHo6daNnAlIPgIgBowKfPAPgJrq7raziIBkIwAibvFim5LMp3zPASA8XA5INgIg4i68cHCqpFbfcwAIE5cDkosAiLh0Whf7ngFA2LgckEwEQMQZSwAA8I8ISB4CIOIKSk3zPQMASNwTkDQEQMQZ2Sm+ZwCAY7gnIDkIgOib7HsAAHg/LgckAwEQYStW2CZJY3zPAQDH6+62s+75weBvfM+B8hEAUdbX3+Z7BAA4ld4eO4czAfFFAETYYDpNAACINC4HxBcBEGGplBnlewYAOB0uB8QTARBh1ppG3zMAwHBwOSB+CIAIM2ao3vcMADBcXA6IFwIgwqxV1vcMAFAKLgfEBwEQbWnfAwBAqbgcEA8EAADAOS4HRB8BAACoCiIg2ggAAEDVEAHRRQAAAKqKCIgmAgAAUHVEQPQQAACAmiACooUAAADUDBEQHQQAAKCmiIBoIAAAADVHBPhHAAAAvCAC/CIAAADeEAH+EAAAAK+IAD8IAACAd0RA7REAAIBIIAJqiwAAAEQGEVA7BAAAIFKIgNogAAAAkUMEVB8BAACIJCKguggAAEBkEQHVQwAAACKNCKgOAgAAEHnd3XbWvd8ffNz3HElCAAAAYqGn195ABLhDAAAAYoMIcIcAAADEChHgBgEAAIgdIqByBAAAIJaIgMoQAACA2CICykcAAABijQgoDwEAAIg9IqB0BAAAIBGIgNIQAACAxCACho8AAAAkChEwPAQAACBxiIDTIwAAAIlEBHw4AgAAkFhEwKkRAACARCMCTo4AAAAkHhFwIgIAABAEIuCDCAAAQDCIgPcQAACAoBABRQQAACA4RAABAAAIVOgRQAAAAIIVcgQQAACAoIUaAQQAACB4IUYAAQAAgMKLAAIAAICjQooAAgAAgPcJJQIIAAAAjhNCBBAAAACcRNIjgAAAAOAUkhwBBAAAAB8iqRFAAAAAcBpJjAACAACAYUhaBBAAAAAMU5IigAAAAKAESYkAAgAAgBIlIQIIAAAAyhD3CCAAAAAoU0+vveHeewZX+Z6jHAQAAAAV6Om2M+MYAQQAAAAVimMEEAAAADgQtwggAAAAcCROEUAAAADgUFwigAAAAMCxOEQAAQAAQBVEPQIIAAAAqiTKEUAAAABQRVGNAAIAAIAqi2IEEAAAANRA1CKAAAAAoEZ6uu3Me38QjQ8QIgAAwKEU/6riNHp6ovEBQvyoAoBj6bTvCRB1UTgTQAAAgGPZOt8TIA56euwNPiOAAAAAxxobjO8REBM+LwcQAADgWHOz9T0CYsTX5QACAAAca2wySqc5C4Dh83EmgAAAAMeMkUaN4iwASlPrdQIIAACogpEjDU8DoGS1vBxAAABAFaTSUttYLgOgdLV6OoAAAIAqaW2VRrT4ngJxVIt7AggAAKiicROMGup9T4E4qvblAAIAAKoolZLOmkQEoDzVvBxAAABAlaXT0tnnGLVwOQBlqFYEEAAAUAOplHTmRKPxE3g6AKWrRgQQAABQQ62t0pQpRm1tUibDUwIYPtcRQAAAQI2l0tLoMUZTzpXOmiSNGmXU0MCnCOL0XEZAxsVGAAClM0ZqbjJqbpKk984GDA15GwnxcMPKlXbEvHmmu5KNEAAAEDGcCcDp9Paq4utHXAIAACBABAAAAAEiAAAACBABAABAgAgAAAACRAAAABAgAgAAgAARAAAABIgAAAAgQAQAAAABIgAAAAgQAQAAQIAIAAAAAkQAAAAQIAIAAIAAEQAAAASIAAAAIEAEAAAAASIAAAAIEAEAAECACAAAAAJEAAAAECACAACAABEAAAAEiAAAACBABAAAAAEiAAAACBABAABAgAgAAAACRAAAABAgAgAAgAARAAAABIgAAAAgQAQAAAABIgAAAAgQAQAAQIAIAAAAAkQAAAAQIAIAAIAAEQAAAASIAAAAIEAEAAAAASIAAAAIEAEAAECACAAAAAJEAAAAECACAACAABEAAAAEiAAAACBABAAAAAEiAAAACBABAABAgAgAAAACRAAAABAgAgAAgAARAAAABIgAAAAgQAQAAAABIgAAAAgQAQAAQIAIAAAAAkQAAAAQIAIAAIAAZWq1o0WL7EeHhrTASLMkTZI0QdKYWu0/jlb+2vcEAJIsm5Ua6q0aGqS2toImTLBqara+x0KNVD0A7rrLXi+r7xWGdLWp9s4AAMOWy0m5nFFPr7R3X1qvbpZGjrL6+LQhjRlDCCRd1QLgjjvs2LTR/bK6pVr7AAC4dfCA0bPPZjRurNUll+ZVV+d7IlRLVe4BuPNOe2E6pedkOPgDQBzt2Wv09NMZHTrEudukch4Ad91lL05JayRNcb1tAEDt9PcbrV2b0aFuIiCJnAbAokW2TVZdVhrhcrsAAD+GhqTfrU+rv58ISBqnAWCH9O+SznW5TQCAX/39Rhs2pH2PAcecBcCdd9rPWOlGV9sDAETHvn1Ge/ZyFiBJnAWAkb7nalsAgOjZvDkty9OBieEkAL78ZXuppEtdbAsAEE093Ubd3BCYGE4CwFrd5mI7AIBo2/0OK8gnhZvvpNVsJ9sBAETa3v2cAUgKVyn3EUfbAQBEWN8RAiApKg6AxYttStJ4B7MAACJuYEDcCJgQFQfA66/rDElZB7MAAGIgl/M9AVyoOACam8X5IAAAYobbOQEACBABAABAgAgAAAACRAAAABAgAgAAgAARAAAABIgAAAAgQAQAAAABIgAAAAgQAQAAQIAyvgdwoblZOvdcqXWEVX2d1NNrtHOntHOXVCj4nq489fXS5CnSmNFWjfXSkT6jPXukbW9J+Xx19pnNSJMnS2PHSk3NVqkE5uGRI9Khg0ZvvCEdPlKdfUw8U5p4ltTcZFUoSAcPGW17S+o+VJ39RYEx0sSJ0oQJ0hlnWMlK+981emt7bb7uTFaafM7Rn91Gq74Baf9+o61bix9eA+BEsQ6AkSOl62ZYTZ1a/AfoPcWPqurukZ55xuiVV+Lz6VX19dL06VaXXSql0+//k+IXMDAgrV9vtP537kIgm5U+dZXVFVcU/3vyWVkrbf699NRTRt3dbrb6sY9KM66zahtz8v29uVVatcrowAE3+4uKadOkGZ+2GjXq+D8pft1vbJFWPWF08KD7fWey0pWXS1deaVVff+L+83nphRelZ9ca9RMCwAdU/EE+ixbZ1sKQqvCr/eEmf0S69bNWDSf80p/olVelhx82Ghqq/lyVGD1aam+3GjXy9H935y5pWZep+F1sS0txn+PGVraduOrvl5Y/aPTWW+Vvwxhp5vVWl19++r+bz0m/fsjotdfK319UGCPddKPVRRed/u/mctKDDxq98aa7/Tc3SwtuszrzzNP/3QMHpKWdyYsvX+bMyamuzvcUYcvlsyM7OkxF59dieZJ3woTiL/5wDv6SdMH50o03RvsUQHOTdPvtwzv4S8XTzO3tVpkK3rHX10uf+1y4B39JamiQ2hdYjRtX/jaumzG8g79UfMd66y1WHz23/P1FxezZwzv4S8UzS7fdZjXpbDf7zmakhe3DO/hL0qhRUsfnrJqa3OwfSILYBUAqJd1yc+kHvgs/IU2dWp2ZXJg922pES2mvmTBBuubq8sPmuhknO10dnmxWunleefc8nHW2dOWVpb0mlZLmzrU644zS9xcVF5wvXXpJaa9Jp6XPfMY6ucw0fbrV+PGlvWZEqzRrVrTfCAC1FLsAuOACneRa4/Bce200f/nHjpXOO6+8117xSamxsfTXtbRIF19c3j6TqK1NmlZGIF5ztT3u/pPhaWwsHgzLea1vI1qkWbPL+10aOVL6xAWV7b+pSfrkJ8t77bSpxe81gBgGwLRp5R/E28ZE85d/2tTyDwSZbPEJiFKdd54SeZd/JUr92WpuLt6LUq4pk6XLLiv/9T4YUzx7MdzLbydz/gWVhfhHz5UyZd6+bEzx9w1ADAPgzAl+X18NE4Z5HfOUr59Q+j9oZ5bxmqSbUOLPxrhxxz99Uro/uc6qLUb3YFx5hXTOOZVtY3yF/7uV8/P+gddX+PsGJEWsAsCY4k1blWhudjOLS5XOdEYZr+dmqBOV+n1ocXANP5OR5n3GHvfIZzSNHSt9+tOVh2M2q5M8sjd8TRX+vkTx3wDAh1gFQDpd+TuudDp673wrPRWfKuPgMThY2T6TqNQFY1xdQhk/vnhTW5Sl08UbJV2FSiW/x5XOEIfYAmohVgEAd97leegTHKj5ahbvuerK4hMFUXXdDKuxMbpUAeD0CIBAvbElhrefV9kWj/+bpFLSzXNPtpqdf+eco2GvcwAgPgiAQO3YKe3Y4XuK6BgclF5+ye8Mra3SDTOjdSmgob54138cH1cE8OEIgIA9vsoon/M9RTQ8+VTlyyq7cOGF0tQy14SohtlzSl+gCkA8EAAB2727uC591D8jodqe/3/Siy/6nuI9N95oI3Gn+gXnS+d/3PcUAKqFAAjca69JDywxevdd35PUXn+/9MhvjB5fHa3z242N0lzPqwRWstofgHiI9ccBw40dO6T7f2o0bZo09Tyrtrbis9KuDkCV3tiWy0sFR2cp+vqkg4ekLW8YbdoY3c+KnzKluNb+Cx7OTLhY7Q9A9BEAkCRZK23eLG3e7PZt56hR0l13VvZO8vHHjV5+2dFAMXL99Vbb3zbat6+2+3Wx2h+A6OMSABBRmYw0b25tVwlsGxPdD80C4BYBAETY+PHSNdfU5oCcTku33GLL/qAdAPFCAAARd/WnpEmTqr8fVvsDwkIAABFnTPGpgGquEjjpbFb7A0JDAAAx0Noqzby+OpcCGuqleTez2h8QGgIAiImLLpKmTXO/XVb7A8JEAAAxMme221UCWe0PCBcBAMRIY6O7D+dpaZFmzeKRPyBUBAAQM1MmS5dcUtk2jCmuMdDQ4GIiAHFEAAAxdP31VqNHl/96VvsDQAAAMZTNSLfcXN4qgaz2B0AiAIDYGj9euubq0g7krPYH4BgCAIixq68uLuIzXKz2B+AYAgCIsWMf3VtXd/q/y2p/AN6PAABirrVVumHmh18KYLU/AMcjAIAEuOgiaerUU/85q/0BOB4BACTEnNlWzU0n/v/P/7jb1f4sDxAAiUAAAB5teMndtpqapHnzPnia/4wWafZsd0fsfF7a9IqzzQHwiAAAPFq3zmj7dnfbmzxZuvjoKoHGSDc7Xu3vyaeM9u/jRgIgCQgAwCNrpZUPGw0MuNvmzKOrBLpe7W/rNumFF9xtD4BfBADgWfchadUqd++qsxlp/nyrT3/a3an/vj7poYcN1/+BBCEAgAjYuEn6/WZ322sbo7KWCT6Vxx4z6u1xtz0A/hEAQEQ88qhRdwQPshs3SZt/73sKAK4RAEBEDAxIj0TsNHt3j9vLEwCigwAAImTrNumFF31PUWSttHKl2xsUAUQHAQBEzJNPGu3b53sKad16OX1EEUC0BPehoGPGSNOm+Z7ig+qH8UEuCEc+L618yOiLX7BKeUr03XukNWs49Q8kWXABMG2aNG1ahC6yAiexe7e05rdGMxw+yjdcxwJkaKjmuwZQQ1wCACLquef8nIJ/8imjfXtrv18AtUUAABFlbXHxnVrehMdqf0A4CAAgwg4dklatrs21+P4IPoYIoHoIACDiNm50u0rgqTz6m2guRASgOggAIAYefdzo8OHqbX8Tq/0BwSEAgBjo6ysuylON0/PdPdLjrPYHBIcAAGJi6zbpxQ1ut8lqf0C4CAAgRp54wu0qgaz2B4SLAABixOUiPaz2B4SNAABiZvduae3ayg7cQ0Os9geEjgAAYujZClcJfPJJVvsDQkcAADFkrfTwI+XdvLd1q/Q8q/0BwSMAgJg6eFDqWmaUzw//Nfv2SitWsNofAAIAiLXt26WlncNbwe8PW6QHfmnUzyN/ABTgxwEDSfPWW9LPfmZ06SXShRdajR793p8VCtK2rdKGl41ef93biAAiKLgA2PCStGFDtB59mv9Zq9ZW31MgzgYGpOfWSc+tM6qvl1pGSPmc1NMj7vQHcFLBBcDh3uJjVFGSK+EaLnA6AwPSAHf4AzgN7gEAACBABAAAAAEiAAAACBABAABAgAgAAAACRAAAABAgAgAAgAARAAAABIgAAAAgQAQAAAABIgAAAAgQAQAAQIAIAAAAAkQAAAAQIAIAAIAAEQAAAASIAAAAIEAEAAAAASIAAAAIEAEAAECACAAAAAJEAAAAECACAACAABEAAAAEiAAAACBAGd8DAEAtpYxUX+97itINDPieAElDAAAIyujR0l983foeo2T5nHSwW3pji7ThJaODB31PhLgjAAAgBjJZqW1M8T+XX261bp205rdGNn4tg4jgHgAAiJl0WrrmGumzt1oZ43saxBUBAAAxNXWqdO21nAJAeQgAAIixq66URo70PQXiiAAAgBhLp6VLLuYsAEpHAABAzJ07xfcEiCMCAABirnWU7wkQR7EKgEKh+J9K5PPRu2V2aKjC1+fdzFENLmaL6teXdzCXi23Umu+vO6o/Dz6lU+JpAJQsdgHQ11fZNnoPu5nFpcMVznS4180c1XD4iCp+Trknol9fpd83ayv/efah0t+hgQEpl/O3/yQ64uD3DOGJVQBI0o6dfl9fDTt3VJbub++MbvoPDUm7d/t7fTXt2lXZGamdOyo/o+XDzp2VHWx27qhw/xX+viTRjgr/N0WYYhcAmzeX/8v/zjvSwQMOh3Hk1d+XfyDoH5DefNPtPK5V8j3bskUaHHQ4jEP9A9KbW8t//ebfx/NA1tsrvV3BAafSr/uNN1kX/3hx/VmCX7ELgNdeK/8d4VNPR/OX5OABadOm8l773HMmsgfIY158UerpKf111kpr1kTze3bMmmfKW4r10CFpw0vu56mVZ54u7+vet1965dXK9j0wIK1fH+2fi1p65x3p9dd9T4E4il0AWCut+L+m5HcA69ZJ27ZVZyYXVq022re3tNds2yatX1+deVzK5aUHV5iSb3Zctcpo3/7qzOTK7j3SU0+VdjDK54s/w5Xe/OnT2zukZ58r7TW5XPHrdnHZ49nnpG1vVb6duBsYkFb8ms8DQHliFwCSdOCA9MASM+x3levWSU8/E+13DIOD0i+XGu3aNby//4ct0rLl8fnF37lT6uoaXrgVCtLqJ4yef6H6c7mwbr309DDfEff1SUs7h/99jrI1a4zWrh3e/QCHD0tLfll65J6KtdLy5UZb3nCzvTjq7pEeeMBE8rIm4qHio+KiRba1MCQvH0zZ2Chdc7XVxRdL2eyJf75rV/Ef5ji9U0inpU9eJl11lVVT04l/fuiQ9Nu1Rps2xfOu3xEtxbXLzz+/+LW+n7XSW9uL76jfecfPfJU4a6I0Y4bV2Wef+EjW0JD0yivSM7816i3jckiUTZokXTfDauLEE/8sn5M2bip+at2RI+73bYx04YXS9KutRrS6334U5XLShg3S2meN+vv9zDBnTk51dX72jaJcPjuyo8McqmQbsQ6AYzJZ6eyzpNGjpEym+JjQzp2K9edlp1LSmROlMaOlhobiYz5790b3jvhS1ddLZ0+SRo6QTOrojWVvF/9v3I1okc4+W2puLp7NOHSoGDZRv1ejUiNai7+HZzRL+aHivS3btxcvAVWbMdK4cdLYsTppOCdBbrD4b9r2t/2vH0EA+EcAAABqjgDwz0UAxPIeAAAAUBkCAACAABEAAAAEiAAAACBABAAAAAEiAAAACBABAABAgAgAAAACRAAAABAgAgAAgABVHAD5vBx8uCcAAKiligPg/vtNj4z6XAwDAIg2Y8TnACSEm0sAVjH88FYAQKkaGmL4OeQ4KScBYKStLrYDAIi2xkbfE8AVJwFgrR5ysR0AQLSNG8dtX0nhJgCMulxsBwAQbRMmcAkgKZwEwE9+Yv4g6QkX2wIARNOoUVbNzQRAUjhbB8Ck9E1J/GQAQEKdf/6Q7xHgkLMA+NGPzHoZ/dzV9gAA0THxzIJGjeI9XpI4XQmwrk53S3rJ5TYBAH41N1tddDHv/pPGaQDce6/pzQxpvqRdLrcLAPCjvl666qohZTK+J4Frzj8L4J9/ZrYWrK6Q1XrX2wYA1M6IFqtrp+fV1MSp/ySqyocB3X+/2ZnK6HpJP5SUr8Y+AADVYYx0zjkFXTM9r0YO/ollqr2DRYvsx4eG9F0j3SqJFaQBIKKMkcaPL2jq1IJaWjjwR1kunx3Z0WEOVbKNqgfAMYsW2dZCQfOM1WwrTZI0UdJ4SelazRA3xqguk1Gz7zkAJI8xUn29VX291Nhg1dZmNXZcQdms78kwHLEKAJSus3PgC0bm33zPAQCIFhcBUJV7AAAAQLQRAAAABIgAAAAgQAQAAAABIgAAAAgQAQAAQIAIAAAAAkQAAAAQIAIAAIAAEQAAAASIAAAAIEAEAAAAASIAAAAIEAEAAECACAAAAAJEAAAAECACAACAABEAAAAEiAAAACBABAAAAAEiAAAACBABAABAgAgAAAACRAAAABAgAgAAgAARAAAABIgAAAAgQAQAAAABIgAAAAgQAQAAQIAIAAAAAkQAAAAQIAIAAIAAEQAAAASIAAAAIEAEAAAAASIAAAAIEAEAAECACAAAAAJEAAAAECACAACAABEAAAAEiAAAACBABAAAAAEiAAAACBABAABAgAgAAAACRAAAABAgAgAAgAARAAAABIgAAAAgQAQAAAABIgAAAAgQAQAAQIAIAAAAAkQAAAAQIAIAAIAAEQAAAASIAAAAIEAEAAAAASIAAAAIEAEAAECACAAAAAJEAAAAECACAACAABEAAAAEiAAAACBABAAAAAEiAAAACBABAABAgAiAaBvyPQAAIJIqPj4QANE26HsAAED0jB2r/kq3QQBEWpoAAAAcrzBzpslXuhECIMKMsX2+ZwAARIyVk2MDARBpdr/vCQAAEZOSk2MDARBhxuQJAADAB1ntc7EZAiDCBgcbnXyTAQCJwhmApOvoMH2Sm9IDACSE1VsuNkMARJ3RVt8jAACiwxrzpovtEAARZ6ybbzQAIBlStkAAhKHwqu8JAADRYaxxclwgACLOGr3kewYAQGTk3+3JEgAhGBqyBAAA4JjX7rjDVLwMsEQARN7GjfVbJB30PQcAIBKed7UhAiDiFi82Bcmu9T0HAMA/Y/WMq20RADFglVrjewYAgH8pawmAwDzpewAAgHd7nt9Y5+zJMAIgBvL5zFpJ7/qeAwDgkdEjxcvCbhDvQs3+AAAFb0lEQVQAMdDRYYaMzOO+5wAA+GQfcrk1AiAmrLUrfM8AAPAml8vVPeJygwRATNQ3ZpcbycmznwCAmDH20Y4O4/RSMAEQE/PmmW4r47T+AADxYKx5wPU2CYA4MYWf+x4BAFBzRwbz2eWuN0oAxEguV7dM0h7fcwAAauqXHR3mkOuNEgAx0tFhBq3sv/ieAwBQO1bmx9XYLgEQM+m0vU+Ss+dAAQCRtrG9Pets9b/3IwBiZv78hj9YGefXggAA0WOk/16tbRMAMWSt/tH3DACA6rIyOwbz2V9Ua/sEQAwtXJhdIz4fAAASLSX7jx0dZrB620csWZlv+54BAFAtdtdgPvvP1dwDARBTR28KedT3HAAA94w13+3oMH3V3AcBEGdG35Q05HsMAIA7Vtq0e1/2R9XeDwEQYwsW1L1opPt9zwEAcMamrfn6n/2ZyVV7RwRAzBWU/bakg77nAABUzkr/On9hdnUt9kUAxFx7u9ljpW/6ngMAULFua7N/U6udEQAJsGBB9scyesz3HACA8hmrby1caHbVan8EQAIYY6xUuFtSt+9ZAABleXpwKHtfLXdIACTEggUNW6zsXb7nAACU7N2CHfqPHR2mpk91EQAJ0t5e/0tZ/dD3HACAYbMpW7hj4cLGbbXeMQGQMPWN2b+U9LzvOQAAw2Dtf52/sOFBH7smABJm3jwzkEoXPi/pkO9ZAACnZqRn9+yr+47H/SOJOjsH5huZpZLSvmcBAJxgeyafv+bWjqYdvgbgDEBCtbfXL7fSV3zPAQA4wX4re5PPg79EACRae3vdj2TM3/qeAwDwR30Fa+a3t9e/6nsQAiDhFizIfldG/+R7DgCAhmTsf1i4MLvG9yASARCEDRuyfyWjB3zPAQABs0b60wUL6pf5HuQYbgIMxJIlNp1N5+6T0Z2+ZwGAwORldPeCBXU/8T3I+xEAAbHWmmWdg9+RMd4eOwGAwBwxhdTtt30us9L3IMcjAALU1TX4DVn9D3EJCACq6d2CNZ+NyjX/4xEAgerqGviirLlfUtb3LACQPGanSRU+c9tt9S/7nuRUeAcYqAUL6v8tZc1Nkq3ZR08CQCCeKNjMFVE++EsEQNDmL8yuzuXrLpGxj/ieBQASwBrpf+/Zm71x4UIT+TdXXAKArLVmeVf+m1b278TSwQBQjr1W5kvt7dmHfQ8yXAQA/mj50tzMgin8u2TO9D0LAMSFlVZbm/1CHN71vx+XAPBH8xdmV8vUXSCr/yPJ+p4HACLN6rCR+Zt8Pjsnbgd/iTMAOIWurtwsWXuPpGm+ZwGA6DGdBZv7xsKFTW/7nqRcBABO6b77bHbcuNwdsvo7SW2+5wEA34y0uSDzl3G61n8qBABOa8UK25bLDf61kfmqpCbf8wCAB1ut9F9Gjcr+y8yZJu97GBcIAAzb0qX2zJTJ/bWs7pJRs+95AKDqrN60Rn+fz2fv7+gwg77HcYkAQMmWLLGjM5n8V1Iq/LmVmeB7HgBwzuh3pmD/YXCo7lcdHWbI9zjVQACgbEuW2HRdOj9TRous7AJJGd8zAUAFumX1C2vMv7a3Z5/xPUy1EQBwYsWSI2fl05nbjdHnrfQp8bMFIB76JPOQVeEX2Wzdr2+91RzxPVCt8I80nFu27MgkazNzVTBzZewsSS2+ZwKA99lmpYcl+1A+X/d4R4fp9T2QDwQAqmr1aps5eDB3ibW61hhNl9Wlkj4mlhwGUBtHJG2S1e+Usr+VCs8sWNC41fdQUUAAoOaWLLGN9ancJ4ZS9mNSarKxdoqMnSiZMZKO/SclqVlSnddhAUST1WEZDRrZgYLMfkn7jTV7lbLbrdWbqVThzXxemzdurN+yeLEp+B43iv4/bIlWnXzd34EAAAAASUVORK5CYII=;" vertex="1" parent="1">
          <mxGeometry x="119" y="320" width="50" height="50" as="geometry" />
        </mxCell>
        <mxCell id="pYpf6Nf2uUUaodTvFNSU-23" value="" style="shape=image;verticalLabelPosition=bottom;labelBackgroundColor=default;verticalAlign=top;aspect=fixed;imageAspect=0;image=data:image/png,iVBORw0KGgoAAAANSUhEUgAAAgAAAAIACAYAAAD0eNT6AAAABHNCSVQICAgIfAhkiAAAAAlwSFlzAAAN1wAADdcBQiibeAAAABl0RVh0U29mdHdhcmUAd3d3Lmlua3NjYXBlLm9yZ5vuPBoAACAASURBVHic7d15eFTl3T7w+5xZs+8bCTsSlFUFQUSBotSFTavivtSfVvSt1rYUra1ga1+r1KX6uhRfX1xq3S2ItYpSUcGiYZUdgQAhCZN9T2YmM/P7I0BRWSbJnPM9M8/9uS6vGEzOc5uQnHue85znaKFQCERmKfL4HAD6AcgD0OM4bxOlMlLsqm4LSEeIKh88/fCrjz809yrpHGQMjQWAjFbk8SUDuBDADAAXAEiWTUSqYgHonBdm3wIA97/2xsvzhKOQAezSASg2FXl8+QCmoeOkPwGAUzQQEXXV3CsuvxYsAbGHBYAipsjjiwcwC8BMACMBaLKJiChCWAJikC4dgKJfkcdnK/L4bgGwE8CfAIwCT/5EsWbuFZdfO086BEUOCwB1S5HHNwPAJgB/QccCPiKKXSwBMYQFgLqkyOMbW+TxrQTwdwCDpPMQkWlYAmIECwB1SpHH16fI4/s7gJUAxkrnISIRLAExgAWAwlbk8U0AsBodK/uJSG0sAVGOBYDCUuTxzQLwEYAM6SxEZBksAVGMBYCOq8jjcxR5fM8AeBq8bZSIvo8lIEqxANAxFXl8mQCWArhVOgsRWRpLQBRiAaCjKvL4hgD4Ch27+BERnQhLQJRhAaDvOXjy/wJAX+ksRBRVWAKiCAsAfcvBaf93ASRJZyGiqMQSECVYAOiwg4/qfRN85U9E3cMSEAVYAOhIT4DX/IkoMlgCLI4FgAAcvs+fq/2JKJJYAiyMBYAO7fD3hHQOIopJLAEWxQKguCKPrw+At8BNfojIOCwBFsQCQI+B2/sSkfFYAiyGBUBhRR7fWPDBPkRkHpYAC2EBUNt86QBEpByWAItgAVBUkcc3A8BY6RxEpCSWAAtgAVBQkcdnA/CgdA4iUhpLgDAWADXdBGCQdAgiUh5LgCAWAMUUeXzxAOZJ5yAiOoglQAgLgHpmAciTDkFEdASWAAEsAOqZKR2AiOgoWAJMxgKgkCKPLx/ASOkcRETHwBJgIhYAtUwDoEmHICI6DpYAk7AAqIW7/hFRNGAJMAELgCKKPL5kABOkcxARhYklwGAsAOq4EIBTOgQRUSewBBiIBUAdnP4nomjEEmAQFgAFFHl8DgAXSOcgIuoilgADsACooR+AZOkQRETdwBIQYSwAauDOf0QUC1gCIogFQA09pAMQEUUIS0CEsACogTMARBRLWAIigAVADZwBIKJYwxLQTSwAauAMABHFIpaAbmABUANnAIgoVrEEdBELgBo4A0BEsYwloAtYANTAGQAiinUsAZ3EAqCGROkAREQmYAnoBBYAIiKKJSwBYWIBICKiWMMSEAYWACIiikUsASfAAkBERLGKJeA4WACIiCiWsQQcAwsAERHFOpaAo2ABICIiFbAEfAcLABERqYIl4AgsAEREpBKWgINYAIiISDUsAWABICIiNSlfAlgAiIhIVUqXABYAIiJSmbIlgAWAiIhUp2QJYAEgIiJSsASwABAREXVQqgSwABAREf2HMiWABYCIiOjblCgBLABERETfF/MlgAWAiIjo6GK6BLAAEBERHVvMlgAWACIiouOLyRLAAkBERHRiMVcCWACIiIjCE1MlgAWAiIgofDFTAlgAiIiIOicmSgALABERUedFfQlgASAiIuqaqC4BLABERERdF7UlgAWAiIioe6KyBLAAEBERdV/UlQAWACIiosiIqhLAAkBERBQ5UVMCWACIiIgiKypKAAsAERFR5Fm+BLAAEBERGcPSJYAFgIiIyDiWLQEsAERERMayZAlgASAiIjKe5UoACwAREZE5LFUCWACIiIjMY5kSwAJARERkLkuUABYAIiIi84mXABYAIiIiGaIlgAWAiIhIjlgJYAEgIiKSJVICWACIiIjkmV4CWACIiIiswdQSwAJARERkHaaVABYAIiIiazGlBLAAEBERWY/hJYAFgIiIyJoMLQEsAERERNZlWAlgASAiIrI2Q0oACwAREZH1RbwEsAAQERFFh4iWABYAIiKi6BGxEsACQEREFF0iUgJYAIiIiKJPt0sACwARER2Vw+WWjkDH160SwAJARERHFZ+cKh2BTqzLJYAFgIiIjiouOUU6AoWnSyWABYCIiI4qI7+ndAQKX6dLAAsAEREdVc9ThktHoM7pVAlgASAioqPK7nsSnHHx0jGoc8IuASwARER0VLqu4+SzJkrHoM4LqwSwABAR0TENmfBDuBMSpWNQ552wBLAAEBHRMTlcbpx2wSXSMahrjlsCWACIiOi4Bo4eh4FjzpGOQV1zzBLAAkBERCc0ZsaVyDtpkHQM6pqjlgAWACIiOiHdZsN5N93JmYDo9b0SoIVCIaEsZJYij4/fZCIA1W0B6QgxYceXK7D2n++grblJOgp13v2vvfHyPIAFQAksAEQdWAAix+9tw6blH2Lryk/ga22RjkOdc/9rb7w8jwVAASwARB1YACIvGAyiovgblGzZgOrSErQ21KOloQ5+b5t0NDqO3L4DXmUBUAALAFEHFgCi/+AiQCIiIgWxABARESmIBYCIiEhBLABEREQKYgEgIiJSEAsAERGRglgAiIiIFMQCQEREpCAWACIiIgWxABARESmIBYCIiEhBLABEREQKYgEgIiJSEAsAERGRglgAiIiIFMQCQEREpCAWACIiIgWxABARESmIBYCIiEhBLABEREQKYgEgIiJSEAsAERGRglgAiIiIFMQCQEREpCAWACIiIgWxABARESmIBYCIiEhBLABEREQKYgEgIiJSEAsAERGRgrRQKCSd4bDg9EIHgH4A8gD0OM7bRKmMRBTF9jVIJ1BCwB0Pb3oOvGnZ8KYf+ueI99Oy0ZLbCyGbXTqq0sQLQHB6YTKACwHMAHABgGTRQEQUu1gALKM9PhFVp09ExRnnour0iWiP5+s6s4kUgOD0wnwA09Bx0p8AwGl6CCJSDwuAJQXtDtQOGYOKMZNRMWoSvBm50pGUYFoBCE4vjAcwC8BMACMBaKYMTER0CAuA9Wka6gcMhWfcFJScfzUCrjjpRDHL8AIQnF5oA3ATgHnouIZPRCSDBSCqeNOysevKO1F67uUI6TbpODHH0AIQnF44A8CDAAYZNggRUbhYAKJSc0F/fHPtbFSMniwdJaYYUgCC0wvHApgPYGzED05E1FUsAFGtbtBp2HHDr1E36DTpKDEhogUgOL2wD4DH0LG4j4jIWlgAYkLF6MnYftNv0JpdIB0lqkWsAASnF04A8BaAjIgckIgo0lgAYoY/KQ0b5jyFmiFjpKNErYjsBBicXjgLwEfgyZ+IiEzgaKzF6XOvRc8PXpGOErW6NQNwcOe+JwDcGrFERERG4QxATCo5/2psu3kudxbspC4XgOD0wkwAb6JjIx8iIutjAYhZNUPGYMOvnoI/OU06StTo0iWA4PTCIQC+Ak/+RERkAembVmHM7BlI3LdDOkrU6PQMwMGT/xcAkgxJRERkFM4AxLz2uAR89dDbaOo1UDqK5XVqBuDgtP+74MmfiIgsyN7ajFP/cDMcDbXSUSwv7AJwcMHfmwD6GheHiIioe+I8JRj+8O3QAu3SUSytMzMAT4DX/ImIKAqkb1qFQc/dLx3D0sIqAAfv8+etfkREFDV6fvAK9wk4jhMWgIM7/D1hfBQiIqLIGvTcPKRvWiUdw5KOWwAO7u3/FgDurkBERFFHCwQw/KHbEVexXzqK5ZxoBuAxcHtfIiKKYo7GWhQ+/4B0DMs5ZgE4+EhfPtWPiIiiXvaXS5G6ba10DEs53gzAfNNSEBERGWzgC/8tHcFSjloAgtMLZwAYa3IWIiIiw6RuW4vsL5dKx7CM7xWA4PRCG4AHBbIQEREZ6qSX50MLBqRjWMLRZgBuAjDI7CBERERGS9i/C/kfvyEdwxK+VQCC0wvjAcyTiUJERGS8/q/+GTZvq3QMcd+dAZgFIE8iCBERkRlctRXcIRDfLwAzRVIQERGZKGfFe9IRxB0uAMHphfkARgpmISIiMkXKzo1wVR+QjiHqyBmAaQA0qSBERESmCYWQXbRMOoWoIwsAd/0jIiJlZK9Se08AHQCC0wuTAUyQjUJERGSetE2rYG9pko4h5tAMwIUAnJJBiIiIzKS3+5G55hPpGGIOFQBO/xMRkXKyv/xIOoIYPTi90AHgAukgREREZstcuxxaoF06hggdQD8AydJBiIiIzGZvaUL8gX3SMUTo4M5/RESkMFdthXQEETqAHtIhiIiIpLhq1C0AnAEgIiJlcQaAiIhIQa4aj3QEEZwBICIipal8CYAzAEREpCyVCwBnAIiISFlcA0BERKQgldcAJEqHICIikmJra5GOIEI/8YcQERFRrGEBICIiUhALABERkYJYAIiIiBTEAkBERKQgFgAiIiIFsQAQEREpiAWAiIhIQSwARERECmIBICIiUhALABERkYJYAIiIiBTEAkBERKQgFgAiIiIF2aUDqC5ks8ObmQ9/Shb8qdkH32Z1vD34Z77ULACAs64SjvpKOOoqDr49+P7BP3NVlUILtAv/H9GxhOxOtOb1Q1uP/mhPSEXQ6ULQ4UbI4Tr47y5owQCctR44aivgrD0AR10FnLUe6F41H1cabYJ2J1oL+nX8k9cHrdn58GXkwpecDltrM1w1HsRV7Edc+V7ElexCwr7t0L1t0rFJUSwAAgLuBDQMPgt1p05C/ZCzEYhPCuvz2nJ6oy2n9zH/u62lESmbPkfqumVI3rwStrbmSEWmTgq64tA4aDRaCgrRWjAQrfknwZvdGyG9a5Nu9uY6JOxcj6QdRUjaXoT4ku1AKBjh1NQZ/rQslF50HSpHn4em3N4I2J0Ialqnj6MjBFu7H+66SmSuWY6CdxcirnS3AYmJvk0LTBsYkg6hAn9KFuqHj0fdiEloGHQGQnanoeNp7T4kb/sKqeuXIWXDp3DUVxo6HgHtSWmoGzYBdSN+gMZTzkTQ4TJsLFtrExK/WYOk7UVIL/onHHUVho0VU/Y1dP1zdR0VZ0/FgR/8CHUDh6MtLrzi3hUubwtSd36NvGVvIXv5IiDIsme0pYvUK10sAAYKOlyoGn85akaej+a+Q4EuvDqIiFAICcUbkb76A2R++gZ0v1cmRwwKuBNRfdYM1J52HpoGjAA085fVaMEAUtctQ9YnryJpx2rTx48qXSgAFT+4BLuvuBNNWQVdeoXfXXooiMSK/Sj458soWPS86eOrggWAIkPTUTV2Osqn3Q5fWo50mm9x1nqQ9+5TyPxiMaeQu8GfkoWKSdegcsLlCLgTpeMcFle6E1nLX0XGqiXQva3ScaynEwWgbMp12HXFnWhNTDMwUOe4Wxpw0ksPI++Dv0lHiTksANRt9cPGo/SSn6G1xwDpKMcVV7YT+e88jpSvP5WOElXacnrDM/kGVJ85zfDLON1ha21CjyVPI+tfr0Dj9PF/hFEA9l1+O4ov/gm8cdYpdt8V31iLgf/7O2R/ulg6SsxgAaAua+47DKU/uguNA0dKR+mUpB2rkf/2Y0go/lo6iqW1J6Wh5PI5qDnjApFp/q6K37cVvV75PRKKN0pHsYZjFQBdR/G1v8Tei66HzxlnbqZuSKirwKBnfouMLz+SjhL1WACo03zpudh/2WzUnj5ZOkq3pK1ZioI358NZc0A6iuXUjJmCkplz0J6QKh2la0JBZH32JvLfeRy21ibpNLKOUgCaBgzF2t//1dBFfUZLqizFiPuuQVz5XukoUYsFgDqlqf8I7Lrtz2hPSpeOEhH2xhr0f/pOJO5aLx3FEnzpudh39X2oH3q2dJSIcDRUo+er/420NUulo8j5TgHYe/Vd+Oay/0IQQgt0I8gWbMfw+T9F5r8/lI4SlVQsALa5hRnzpENEo+qx07H71scQtPB1ws4KuuJQM2YqnLUHOu4zV1jlOZdh921PoDXf2ms5OiPoikftyB8Cug1JO4qk48io77gDJuCOx9pHFmH/2IsQioGTPwCENB0Hxk2B7nIjbcNK6ThRZ9cVd0pHMB1nADpL07H/0p/Dc9710kkMlfPRiyh461Hl7hQI6TpKrrwXleMvl45iqLSiD9Dnhd+od0vovgbUnToO63+9AD6HWzqNYbK3fIURv7mK+wd0goozACwAnRBwJ6L4lvmoHzJOOoopUjatQN8Fs2FrU+O6cdAVh903z0f9sPHSUUyRsHsDBjx1B+yNNdJRTLNj6hzsPe9KqPBLL6GuEmfcNQWOWm4CFg4VC0D0LGcW5s3uhW33vKLMyR8A6oeMw7Z7XoE3u5d0FMP5kzOw/ZcLlTn5A0Bzv+HY+utX0ZbXXzqKKcov+gn2KHLyB4Dm1CyseO5z1A07UzoKWRQLQBgOnfzb8vpJRzFdW16/mC8Bbbl9sf3uV9DSe7B0FNP5Mnpg25yX0ZbbRzqKoTyTb0DZ9P+SjmE6v92J1b/7K0sAHRULwAkE3InYefuT0XsLWAS0J6Ri5+1PWmrHu0jxpedixy+ehzczXzqKmEB8Enbd9kRMfn8BoOIHV2H/pb+QjiEmCA1r71sIX3q2dBSyGBaA49F0FN8yX8lX/t/VltcPxbfMj6pNcE4k4E7Azv96Cv6ULOko4tpy+2LvDb+TjhFxVedcipKZd0vHENdud6Lo0XelY5DFxM5vcwPsv/TnSl3zP5H6IeOw/9KfS8eIiJCuo/jm+WgtGCgdxTJqTzsv6nayPJ7qM6dj79X3yT2Ey2KaU7NR8qOfSMcgC2EBOIbqsdNj/la/rvCcdz2qx06XjtFt+2feHTMb/ERS6SU/k44QETVnXIg9N/yOJ//v2DXzTkDnr33qwL8JR9HUfwT2XjNXOoZl7b1mLpr6j5CO0WUVP7gKFROvlI5hSc39hqO53zDpGN3SOGg09vz4v2PqclWk+JxulFx8s3QMsgj+hHyHLz0Xu277M0J2h3QUywrZHdh125/hS8+VjtJpbXn9sP/SX0rHsLRovhUyEJ+EPTf+ASHdJh3Fsg6MnyEdgSyCBeA79l82O2b29jdSe1I69l82WzpGp+295j6WuxOoH3qOdIQuK7niHvjScqRjWFpDQexsb03dwwJwhOa+w6L+qX5mqj19Mpr7Rs90cfXY6Wg66XTpGJbXmn9SVE6f1512LqrHTJWOYXkB3YbWfN7ZRCwA31L6o7ukI0SdaPmatSekKn0veGeEdBv8SWnSMTol6IrDvit/LR0jajT34t0vxAJwWP2w8TF1C5RZGgeOjIprxvsv/QXaE6PrpCapPTlTOkKneM69jvs5dEJrAWcAiAWgg6bHzO1PEkov+Zmlp4yb+w6NiVsXzaT526QjhK09KR2eH94oHSOq6G2t0hHIAqz7W9tEVWOno7UHF8Z0VWuPAaiy8Am2YtI1vB+8kxz1VdIRwlY2dRYC7gTpGFElfv8u6QhkAcoXgKDDhfJpt0vHiHrl025H0OGSjvE9/uQM1J52nnSMqGJra4atrVk6Rljak9JRdfal0jGiTuKerdIRyAKULwBV4y/nbUMR4EvLQdX4y6VjfE/VuB/xtr9OStxeJB0hbFVnXYyQzS4dI6o4fa1w1FZKxyALUL4A1Iw8XzpCzLDa1zKk66g65zLpGFEndeOn0hHCo/H72xVp29dJRyCLULoA+FOy0Nx3qHSMmNHcd6ilVmLXD58YlbsVStLafUjZEB0FoOGUsUo/xrmrei16TjoCWYTSc2f1w8dbb3FYKIjEXRuQuuETxO/ZDEd9BRx1HdN1/tQs+FOy0dJnMOqGT0RT/+HWWn2vaagfPh6Zn70lnQQAUGnBSxIA4KrYi5RNKxG/dzMc9ZVw1B/8/qZkwZ+ShZbeg1E/5Cx4s3ubni3rszcP57G6qrOsuaWtHgohrr4KKTu/RtrGfyNks8OfkIxAQhL8iamoHXwGmtNyEBLIllxRgrQ10VHwyHhKF4C6EZOkIxym+73I+uRV5Cx9AY6G6qN+jO1AM9wH9iBp+1fI+XAh/MkZ8Ey+AZUTr7TMAry6EZMsUQCCDhcaB46SjnGYFgwg44tFyP1gIVwVe4/6MXGlOwEAGf9+Fz0BeLN748D5N6J67AxT9rbXva3I+8cCw8eJhJBuQ8Pgs6RjfEtCXQUKn/sdMle+f8KP9aVnY+8Vd8Bz5gVoMXHTpVMe52ZY9B9aYNpAiSIqLuBOwIZHP0PI7pSOgtR1y9Dz9YfgrCnv0uf70vNQMnMO6k6VLzRauw/Df36O+CryppNOw/bZL4pmOCRl0wr0fO1BuCr2denzvdm9UHLFPagfMi7Cyb6t90tzkbniHUPHiJSufn+r2wIRz+L0tWLgC39Ej/df7tLnF1//K+y6+CcIwtjZyB6rl2HIA3wS4LEsXbRbOoLpLDR/bK6GwWfJn/xDIfRY8jT6P3tXl0/+AOCsKUf/Z+9CjyVPAyHZPheyOy3xyswSe/6HQsh7fwEGPHlbl0/+AOCq2IcBT96GvPcXGPb9zf745ag5+QNA/ZCzpSMAAPLWfYoJVwzt8skfAPq++DBGz/kRXK1NEUz2bckVJTz50/coWwDEXy2HQuiz8F7kLXkmMr/UQyHkLXkGfRbeK14CxL+2AJoGnCYdAX1eug89Fj0Zse9vj0VPot+CX0L3RnYXt/Sv3kfBW3+K6DGN1mDwbEg48tZ9iqH33wgEg90+VtL29Tj72pHI3hr5WzDjmusx6mcXRfy4FP2ULAAhm138FUSP955BxqolET9uxqol6PHeMxE/bmfUDzlb9t5sTUdT/xFy4wPIXPE2MlYuivhx09YsxaCHroWzuqz7BwsFkf/3P6Pv/86BFoGTmFmCDhdaCmQfZpOz8YuOk38E6e0+jLhnJgpfewx6hJYIpu/dirOuHw1bi3GzCxS9lCwA3sx8BOKTxMZPXbcMee89a9jx8957Fqnrlhl2/BMJxCeJ3p7Vmn8SAnGJYuPHle1Ez1cfNO74+7fj5D9cgcwV73T5xB23fzsGPnYLcv/5vxFOZzxvTh/Ru1+SPfsw/LfXGHb83q89iTN+PROJtZ4uH8MWDKD/ewsx8s6LoLf7IpiOYomSdwFI3quu+73o+fpDxk7Th0Lo+fpDaBgyTuzuAH9KFtyeo692N1pT/+Ei4wId39++C2ZD93sNHcfeVIveL81FztKFKJ8yC/XDxp94P/xQCAl7NiL7478iffUH4peKuqo1T/ZJdmaspE/eshpjbzwTVeMuxI4f/wbN6blhzQk42n3I/XIpCp/4FXRv9DzQiWSoWQBSs8XGzvrk1W4t+AuXs6YcWZ+8Cs/kGwwf62gkv8aSY2d//DLiynaaNp77wB70/d85CNnsaDrpdDQWjoI/NRv+lCwEHS44GqrgqK9EXMkOpGz6HPbGGtOyGaVNsACklu5E8tY1po2XueJ9ZK54HwF3PMrPvxLVZ5yLtvRs+BNSELQ7YG9pgrOxFol7tyP//ZeRtH29adko+qlZAKRmAEJB5Cx9wbThcpa+AM9514lMl0rOsrQnpIiNnV70T5FxtUA7krZ9iaRtX4qMb6a23L4i42oATn58tsjYtrYWFCx6HgWLnhcZn2KTkmsA/KkyJ6fEXRuOucmPERwN1UjctcG08Y4k9TUGgPaEVJFx3QeKEbd/h8jYKvGnZIqMG19XiaRvZH6eiIygZgEQenWauuETJcYEhGcATNxZ7Uhpqz8UGVc1wROtdTBIXOV+kXGJjMICYKL4PZuVGBOQLQABoUsAyVu+EBlXNQG3zB0eifvMW9tBZAY1C4DQIjFHfYUSYwKyC/GkLgHY2lpExlVNIE5mBiB5Bx+jS7FFyQLgE7o+feipfrE+JiD3NQbkLgFo7cbe+kcdpGYAUjauEhmXyChKFoCgK15kXIkH5NjamkXG1STvMQ9G/oEv4dD93HAllnGGh2KNkgVANSrNPACAU2rsKN1YJ9rYvDJPmmzue7LIuERGYQFQgEprDwDAUSczdkufwSLjqkYXeiXe3HOAyLhERmEBUIBKdx8AgKNeZgagofAMkXFVI3FJCwDqhowWGZfIKCwAClBp/wFArgA0njxGZFzV2FplnmxXcwoLHsUWFgAFqLQDISB3CaAtty986bkiY6vEjGdpHE1bfDK82XJPuSSKNBYAFQg8gwAhuefLSy5ALJ8yS2xsVbjLdomNve2Oh8XGJoo0FgBFmP0UQklOoRkAAKg6awZaep8iNr4K4srlCkDFkDPRmi/7OGKiSGEBUITu96Ln6w8Ze6taKISerz8E3S+7IY7UGgAAgKajZObdcuMrwC1YAEIAvv7Nc2LjE0USC4BCUtctQ957zxp2/Lz3nkXqumWGHT9czqr9sDfXiY3fNODUjscwkyFcFftES2Z9Xl9s+8VjYuMTRQoLgGJ6vPcMMlYtifhxM1YtQY/3non4cbtCCwaR8vVnohn2XzYbB87/sWiGWKUFg0j8Zq1ohn1nT8f+S24RzUDUXSwAqgmF0Gfhvchb8kxkLgeEQshb8gz6LLzXUjvhpWxYLh0BpZfchbIZP5WOEZOs8OTFLdfdzZkAimosACoKhdBjydPo/+xd3VoY6KwpR/9n70KPJU9b6uQPACmbV0Jrl9+bv/zCW1B888PwZveSjhJTrFAAgI6ZgC+fWcaFgRSVWAAUlrpuGQb/dioK3nqkU/sEOBqqUfDWIxj826mWuOZ/NLq3Bclbv5SOAQCoGXUBNv9uCfbc+ACLQITE7d8BR0OVdAwAHWsCVjz1MTY88Ar3CaCoYpcOQLJ0vxc5S19Azkcvoan/cNQNn4iWPoPhT8mG/+AjfR11lXDUVyB+z2akbvikY5Mfwfv8w5Wy4RPUDz1bOgYAIKTrqD5zOmpGT0Xy5hWIK9sJ14E9cB8ohvvAHtFFi9Eqdf0nqDznMukYADruDvAMOROeBZ/D3dKA9C1fIXXTl0go2YmE4q1w1sjdmkp0LFpg2kBrzd2aYM2CjSLjnn7LUJFxVeVPycLXDy8DNE06ygnZ2poPFy1HbQWc9RUd79dVwFFXAWddBRy1B6AFrV+8rfSqMQAAIABJREFUzNLSezC23vtapz6nuk3mUdEaAFvAD7u3FY7mRjgbquGuPgC3Zz/iy4sRv+8bJO3YAN0newutypYu2i0dwXScAaCY5aivRMKeTWjua/3iFXAnIJCbgLbcPsf8GFtLA1K//hQp6z9ByuaV0L1qP58+fu9mxJdsQ0vPQdJRTigEoN3mQHu8A23xyUBWPtB/2Lc+RkMIiVVlyF61FAV/fw6u6gMyYUkZLAAU09KKPoiKAhCOQHwyqsdMRfWYqdDafUjeugqp6z9ByobllrkebrbMz9/GvqvulY4RESFoaMzMR+OUG7Fryo2Ia6pF5oaV6Pn355C4U2bWkmIbLwGYiJcAzBd0uLD5gX/Al5YjHcU4oRASir9G2pqlyPr0Dei+NulEpgnEJWLjQx8h4E4M6+OlLgF0l9PXivStq1H4xBzODBhExUsAvAuAYpru9yLv3aekYxhL09Dcbzj2XzYbm/7wPqrOvhQhXY0fbVtrE/LetcYGVEbyOeNwYPjZ+Pz5ldh899MIutzSkSgGqPFbgpSW8e/FiCvbKR3DFP6ULOy9di62zH0H9cMnSMcxRfa/XhF9PoCZgtBQOuZ8LH/1a+y66TfScSjKsQBQzNOCQeT//c/SMUzVltcfO29/Ejt+uTBm1kAcixYMoNerD0rHMFW7bseuqT/G8tc3oWzqDdJxKEqxAJASUjYsF98/XkLjwJHYdvcr2H3Ln+BLz5OOY5ikbV8ibc1S6Rim87nisemm+7Dyxa9QN/ws6TgUZVgASBkFbz8iHUGGpqF25A+x9d7X0XTSadJpDFPw5nylFkAeqTklE0X3v4SSy26TjkJRhAWAlJGw+2ukrv1YOoaY9qQ07Pj586ga9yPpKIZw1hxA7vvPSccQE4KGrVf/ElvujvFFrxQxLACklJ6v/1HZe+YBIGSzY+9181Ayc05M3imQu/QFuCpLpGOI2j/mAnz1Px8i6HRJRyGLi73fAETH4az1oP/TP4PW7peOIqpi0jXYecczCMQnSUeJKK3dh16vPKD8lsl1BSdhxcJV8Ob0lI5CFsYCQMpJ2L0BvV/5nXQMcQ2njMW2e15FW05v6SgRlbzlC/T66/3SMcS1JaRg5dMfo/bUc6SjkEWxAJCSMlYuQvayv0rHENeW0xvb7vkb2vL6S0eJqMwV76Dg7UelY4hrtzmweu5CVI8+TzoKWRALACmr4M35SN66SjqGuEB8Mnbe/gQC8cnSUSIq58OFyP3g/6RjiAtBw/o5T6G1Rx/pKGQxLACkLC0YRL+//AKuin3SUcR5s3th908eibmFgfnvPIbMz9+SjiEuoNtR9KdFXBhI3xJbP+1EnWRracCAp+6AraVBOoq4hpPHYP9ls6VjRFzvv/5eyU2CvqstPhlrHlksHYMshAWAlOcu34VBD14Ft2evdBRxFZOuQfVZM6RjRFYoiL7P343kLf+WTiKutudAbP3F49IxyCJYAIgAuD17MejBK5G85QvpKOL2Xn0fmvsNl44RUVq7H/2fuRPxCu8BcUjJ2dNQOvVG6RhkASwARAfZWhox4IlZyt8dELI7sOu2x+FLy5GOElG6txXjbhiDnI0seVtv+g0aThkpHYOEsQAQHUELBtHz9YfQ+6V50ALt0nHE+JMzUTLzbukYkRcMYvhvr8Ggvz0CHSHpNGKC0PD13c9IxyBhLABER5G54m0MfPQm2BtrpaOIqTvtXDT3GyYdwxC93ngKZ/x6Jpx+NR8eBAAtyRl8lLDiWACIjiHxm7U4+Q8zkbb6QyCk5qvF/T/6hXQEwyRvWY1xN4xB8oE90lHEfHNN7H5/6cRYAIiOw1lTjn4LfolBf7waSTtWS8cxXdNJp6F++ATpGIaxNzdgzK0/QL/3X4JdwUs+XlcCiq+LvVs/KTwsAERhSCjeiIF/uhEDnvop3OW7pOOYqvTiO2Nug6DvGrBgHiZcORS9l78NWzAgHcdUxdNuQtDulI5BAmL7p5oowlI2LMcp91+C3i/fD0d9pXQcU7T2GIDqM6dLxzCc7vOi8PHZmHDVcPRc+R5sITWeKNhud2LnbQ9IxyABLABEnaQFg8j8/C0MufdCFLw5Hwm7N8T8GoHyabcj6FBjG1lbWwtOnn8Hxl9zGvKLPoKuQBEomXgxAvGJ0jHIZLa5hRnzpEOYrXzqbSLj9ljC225iiRZoR+LuDchc8Q6yPnuzYydBXYcvIw/QbdLxIioQlwh7cz0Sd2+QjtI99d6wP1T3e5H9+Xvo8/e/IL6hBsGkZPiT0xG02Q0MKCOk6fAV9EP2in9IRxGz64o7pSOYLvb+JhMJcDRUIfPzt5D5+VsIuuJRP/gs1I+YiLph42PmKXu1o85HzscvSccwne7zoseSF9BjyQsAgOa+p6B0yvWoOnUcmtNzEYImGzBCqkacLR2BTMYCQBRhurcFaWs/QtrajxDSdfjTcuFLzYb/8D9Z8KVkw5+WDX9Kx/sBd4J07BNq7jME/pQsZdY+HEtC8RYMfHIOBgII2p2oOvtCNPcaiLbMHvBl5MCbnA5/Ygra3QkIOF0I6Pao2HLI64pHc59BSNizTToKmYQFgDpoOpr6D0fd8Ilo6TP48IkJABx1lXDUVyB+z2akbvgEibs2AApcF40ELRiEs7oMzuqy435cwJ0Af2oW/CnZaOkzGHXDJ6Kp/3BAs9AyHU1D3fAJyPrsTekklqG3+5D9yaITfpwvPRvNfU9Gc88BqBsyGjWnnIE2C84MlVxyCwY9+nPpGGQSLTBtYDSU04has2CjyLin3zJUZNzjCTpcqJx4JTyTb4A/OSOsz3E0VCNn6QvI+uRV6P7wr6lS5/iTM+A573pU/uAqyyzAS9n4OQY8KbOGJiL2Weexz97sfGy742FUDDnTMjME8Q3VGHfdKOkYIpYu2i0dwXQWenlBZqs7dRI2/34J9l/6i7BP/kDHiWn/pb/A5t8vQd2pkwxMqDZHQzUK3n4Ug39zUcduhBbQcPJoBF3x0jFigquiFMN/czXG3X4uUsqLpeMAAFqTM+BPCf93AUU3FgAVaRrKpt6GXbc+Bl96XpcP40vPw65bH0PZ1NsALTYWQlmRs9aDfgt+ifx3Hhe/3TBkd6J+8FmiGWJNXOlujJ41Cb0+XywdBSEA+y+5WToGmYQFQDWahj03/gHlU2dF5qStaSifOgt7bvwDS4DBcj94Hv2emy1eAmJ5a2BJgx65C6e89EfpGPCceYF0BDIJC4BiyqbMQvWYqRE/bvWYqSibMivix6VvS1v9IXos/h/RDPXDzon5rYGlFLyzQHwmoCm7gFsDK4I/xQqpO3USyqfcatjxy6fcyjUBJsh7fwFS1y0TG789IRW+zAKx8WPdoEfuEl0TEISGhsFqLgRUDQuAIoIOF0pmzjF2ml7TUDJzjmVWrMeynm88DK3dJza+PyVLbGwVDHvgZtHthVp6nSQ4OpmFBUARlROv7NaCv3D50vNQOfFKw8dRnbO6DNnLXxMb35eaLTa2CuJKdyN707/Fxm/J6yM2NpmHBUAFmg7P5BtMG84z+QZrbWATo3I+fEFsQeChTaLIOIOe+JXY2G3Z+WJjk3n4W1oBTf2Hd+o+/+7yJ2d07GJHhnLUVyKhWGZTK14CMJ6rohTuFpmNi7xpnOFRAQuAAuqGT1RiTBWlrpdZDOjnJQBTpG/5SmRcX0q6yLhkLhYABbT0GazEmCpK2LNZZFzOAJgjddOXIuP6LficAoo8FgAF+FPMf7UmMaaKHHUekXE5A2COhJKdIuO2u9wi45K5WAAUILFgi4vEzOGok3k0r4/fX1MkFG8VGTdgc4iMS+ZSsgDo3haRcSWe+R5wJ4iMG+K2wKYISf2i1m0y4yom4OaDl8g4ShYAp9CrJpVeiUt9jVXjzektMq69sVZkXNXUDx0jMq4eCoiMS+ZSsgA46ipExlXpWrzU11g1bbl9RMa1N7EAmKFh4Kki4+rt7SLjkrnULAD1Mq9OVVqNL/U1Vk1bTh+Rce1NdSLjqqap1wCRcW2+NpFxyVwsACZS6X58FgBztOX1ExmXMwDmaM2SeeiSvU1mnRSZS80CIHR9WqUd+aS+xirxpeeifsg4kbE5A2C8xpOGo0VoDY+jtVFkXDKXXTqABLFXpwf35C946xFThpPckz9WZgDak9JRP+RstPYcCH9KFvzJmdD9XjjqK+Goq0DS9iIkfrMGWsD8a6blF/0EIaHntsfKDIA3Ox91w8aipWd/tOT2hjcjF96UTLjqq5Cx7jPkfvwWXJ4SkWxbfzYfMk96ABxNMlsQk7nULACCC9QqJ16J7H/9Dc6ackPHkX4qX1QvAtQ01Iw8HxXnXoPmPkOP+wjl8ot+AltbM1K+/hR57z0D94E9pkT0ZvVE9VkXmzLW0Tiry8TGjoTSqTdi34yb0JTR46gn2casfFQNGI7tl/0UDr8XiQf2YsALDyJtzaem5Gs4+XTU5ctc/weAhH07xMYm86hZAARfnQYdLpTMnIP+z95l3JPcNA0lM+cg6HAZc/wwROsMQOOg0Si5fDZaCwrD/pyAOwE1Z1yI2pHnI+OLRch/53HDXyGXzfgpQoL34ifuXCc2dne09DoJ6+e9iKb03LA/x+9wobbnQKz+7ULkrv8Mgx+4BXq7z8CUwJafmTNLeCw5yxeJjk/mUHINgKuqFLYWuWtcdadOQvmUWw07fvmUW1F36iTDjn8itpZGuKpKxcbvqgMX/D/suGtBp07+RwrpOqrGXYKt977W5WOEo2za7agZdYFhxz8RR0MVXJUy0+LdUTNmCr544oNOnfyPFAJQPuIcfPa3dag68/zIhjvCht//FQ05vQw7/onooSCSt6wWG5/Mo2QB0ALtSNn0uWiGsimzUD1masSPWz1mKsqmzIr4cTsjZdPnItfEuyqk6yj+fw+h9OI7I7JmwpfRA9vmvIzakT+MQLpvO3DhzYaWx3BE26v/kN2JXbc/geIfP4ggur9Dpc8Zh7VznsaGB15BMMJrMDbOXQjP0LERPWZnxdfKPF+CzKdkAQCA1HUyj1E9TNOw58Y/oHzqrONeY+7M8cqnzsKeG/8QmeN1g/jXtpP2X/pL1JxxYUSPGXTFYfctf8K+a+6L2KWYAz/8MUpn3BGRY3VHws710hE6Ze+1cw25HdYz5Ex8/vJqNBaO6P7BdB0b5y5E+anju3+sbkr55mvpCGQSZQtA8uaV0Ay+jndCmoayqbdh162PwZee1+XD+NLzsOvWx1A29Tbxk7/W7kPy5pWiGTqjatwlqDj3WsOOX3nOZdj261fRlte/y8doGnAqtt3zCkp/dFcEk3Vd4s610hHC5jnvOlSfOc2w43vjEvHlQ2+j+PpfdfkYZRdei+WvbbTEyR8Asr74QDoCmUTJRYAAYGtrRvK2r8Tuoz5S3amT0DBkHLI+eRU5S1+Ao6E6rM/zJ2fAM/kGVE68UnTB35GSt30FW1uzdIywtCelo2Tm3YaP05p/Erbe+xqyPn0Daas/REJxeK+wWnsMQNm021F32rkGJwyf7mtD/D6ZJ9R1ljczH6UX/8zwcYLQ8M3Ft6L03JnI+fc/0fu1J+CsOfFdMFVnXYjtN9+HZgs9WllDCJkr/ykdg0yibAEAgNT1yyxRAICOuwM8k2+A57zrkLhrA1I3fIL4PZvhqK84vKmOPzUL/pRstPQZjLrhEzs2+RG6z/9YUtdHz/R/+UW3IOiKM2WsoNMNz3nXwXPedXBWlyFtzVIkfrMWNm8LNL8Xuq8N0DQ09x2GxoEj0XTSafBb6MRwSOr6f0ELRseDYspm3IGQ3bynJbYkpaF48lXYM/kqJNR6kLb5Kzia6mBrboSjuQFaoB21Q89E/YBhaE3JRNCCT8xMKd1l+B0OZB1KF4CUDZ8CV4fEp82/RdPRNOBUNA2QeQhIt4RCHV/TKOBPyULlOZeJjO3L6NFR9ibfIDJ+d2Qtf106Qlja8vqL3SkRAtCUloOmcZFf5Gu0Pq8/KR2BTGStl48mc9RXIqF4o3SMmJFQvDFq7v+vHz5ebBe9aBVXujNqrv/XnnautYp9FHD6WpH92RLpGGQipQsAAKSv5oKXSImmr2XdUGssuIomWZ9Gx6t/AKgbIfMQrGiW++VS6QhkMuULQOanb8DJ+167zVnrQeanb0jHCFtT4SjpCFFF97YgfdV70jHCEnTFo6XXKdIxoooGoN/CB6VjkMmULwC634u8d5+SjhH18t59CrrfKx0jLAF3AgLuBOkYUSX9y/dha2uSjhEWX2oWp/87KaV0Z1h3LlBsUb4AAEDmF4sRV7ZTOkbUiivbicwvFkvHCJs/JVM6QlTR2v3IXfqCdIyw+VNkHqEbrTQApzxqjT0myFwsAAAQCiL/ncelU0St/HceB0JB6RhhCznc0hGiSs5HL8JVsVc6Rti4uLNzctcuR+KuzdIxSAALwEEpX3+KpB18AEZnJe1YjZSvo+PWv0PsDVXSEaKGs9aDvPcXSMfolGi5E8UK7AE/Bj90m3QMEsICcIT8tx+TjhB1ovFr5misjZrNbKQVvDkfurdVOkanOOpZ8MI14PUnoHvbpGOQEBaAIyQUf420NbwVJlxpa5aGva2tpYSCiCv9RjqF5SVt+xJpqz+UjtFp9qZaOKvLpGNYXkJ9JXq9wQXQKmMB+I6CN+fD3lgjHcPy7I01KHhzvnSMLkvZ+Jl0BEvT2v3o9Wr03haWGmWXpcymh0IY9sAt0jFIGAvAdzhrDqD/03dCa/dLR7Esrd2P/k/fCWfNAekoXRZt6xbM1vuV38Fdvks6RpelrP+XdARLO/mFPyDpmw3SMUgYC8BRJO5aj95/vV86hmX1/uv9SNwVXc+E/66E3V8jYTd/AR5NzscvIWPlIukY3ZK87UvE790iHcOS8r9aivzF/ycdgyyABeAYMr5YjJyPXpSOYTk5H72IjCi65/94eOvn9yVvXon8tx6RjtF9oRDy34m+BapGS6rcj8H/fat0DLIIFoDjKHjrUaRsWiEdwzJSNq1AwVuPSseImKQdq5G29iPpGJbhPrAH/Z6bDS0YPXs6HE/y1lVIXRc9j6c2mtPfhlF3TZOOQRbCAnA8oSD6LpgNd/lu6STi3OW70XfB7Kja8CccvV+4D+4DxdIxxNmb69D/qf+CraVROkpE9Vl4b1SvZYgUe8CPkXdfBntTnXQUshAWgBOwtTVhwFM/hb1Z3R8ce3MdBjz106jZC74zbG1N6P/0HTF34usMZ60HhQ9fD7cnenb7C5etrRkD/kftn1+nvw1n3nkRd/uj72EBCIOrYh8GPXi1kjMB7vLdGPTg1XBV7JOOYhj3gT0ofPg6Je8ddx8oRuFD18T0321XZYmyP7+utmacedskxO3ns07o+1gAwnSoBKi0JiBl04qYP/kfEle2E4MevAoJxRulo5gmoXgjCh+6Lqpv5wyXq2IfBv3xasQrtA10XHMdxv5kAlyV5dJRyKJYADrB1taEAU/ersTdATkfvYgBT94ek9P+x+JoqMbAP92I1LUfS0cxXPKWLzDw0ZuUmhq3tTZh3A1jkLPp39JRDJdcUYKxN58DR321dBSyMNvcwox50iGiSwjJW76Aq7oM9UPOBnSbdKCI0tr96PPSXOR+uBBASDqO6bRgAOlrPkLQFYfm/iOk40ScFgwg7x8L0Pvl+6G3+6TjmK+uDbn/egeOUBDVQ8eg42G4sUNDCP3ffxHD5t0I3a/g97cbdl1xp3QE02mBaQPV+y0fIU39R2DXbX9Ge1K6dJSIsDfWoP/Td0b9Jj+RUnX2pSi5/FcIuuKko0SE27MXff7vHqUuc3zPvobD/1o/5Aysnfsi/A6XYKDIcbc04NS513OHvy5auki9NSIsAN3kS8/F/stmo/b0ydJRuiVtzVIUvDlfievBneFLz8O+K3+N+uETpKN0XSiE7OWvIf+tR6D7vdJpZB1RAACgPTEVa+a/jfq8vkKBIiNv7XIMeeAWaMF26ShRiwWAuqy57zCU/uguNA4cKR2lU5J2rEb+249F51P9TFQ34gcoueIe+NJzpaN0iqtiH3r97QEkb4n9695h+U4BOKTiB5dg281z0RaXZHKg7kmsLscp/zMHqevUWZxsFBYA6rb6YeNResnP0NpjgHSU44or24n8dx7nQ3E6IeiKR9m021Ex6RqEdGuvn3VVliDvH39B+qr3oAUD0nGs4xgF4JDi63+F4mn/D+02u0mBuiauqRaFC+Yh+7Ml0lFiBgsARYamo2rsdJRPux2+tBzpNN/irPUg792nkPnF4pjb1c8srfkDUHHudag540IELXb9mCf+EzhBAQCAoMuNrT9/DOWjJyNosUWCrrZmnPTKI+ix5AXpKDGHBYAiKuhwoWr85agZeT6a+w4FNKFfJqEQEoo3In31B8j89A1eB46Q9oQUVJ91MSrHz4Q3q0AuSCiIpG/WImPl35H+5T944j+eMArAIe0Jydhz7S9QfvY0tCakGBjq+PRQCKl7t6L3O88i67P3xHLEOhYAMow/JQv1w8ejbsQkNAw6AyG709DxtHYfkrd9hdT1y5Cy4VM46isNHU9pmo76IeNQOeEKNJw8BiG7w/gxQyEk7lqHtNUfIm3NR/z+hqsTBeBIDYNORfE1v0TVKaMQ0I2/PKABSKg5gPxlb6Lnm09D97G0G40FgEwRcCegYfBZqDt1EuqHnI1AfGQWHtlaGpGy6XOkrluG5M0rYWtrjshxKXxBpxtN/UegqXAUGgvPQHOfIQhF6Hqyq3I/4vdtQeI3a5G29iM46ioiclyldLEAHKbrKJ98BarOOBeNfU9Ga0omAhHYC0RDCO6mOiTt+wbp6z9HzrK34armHTlmYgEg04Vsdngz8+FPyYI/Nfvg26yOtwf/zJeaBQBw1lXCUV8JR13FwbcH3z/4Z66qUmgB3gZkJUFXHJr6j0BLr1OO+L5mwp+cCX9K1uE9BrR2H2xtzbC1tUD3tsDW1gxndRni925B/L6tiC/ZqvQDiyKmuwXgKJp7D0TVuItQO2QMvKmZCLjiEHC5EbA7EbQ7EDxYEGztftj8Xthbm+FoaYSzsRZx5fuQuepDpK9ZDsTIY5ijFQsAEZkq6HRDa/fzur1ZDCgAFBtULADWvteFKMbpvjbpCESkKGvfzExERESGYAEgIiJSEAsAERGRglgAiIiIFMQCQEREpCAWACIiIgWxABARESmIBYCIiEhBLABEREQKYgEgIiJSEAsAERGRglgAiIiIFMQCQEREpCAdQJN0CCIiIikBd7x0BBE6gDLpEERERFK86TnSEUToAMqlQxAREUnxpmVLRxDBGQAiIlKaN13dAsAZACIiUpbKBYAzAEREpCyuASAiIlIQ1wAQEREpSOVLAJwBICIiZak8A7AbQIN0ECIiIrO1xyeiJbeXdAwRur54ux/AP6WDEBERma3qtAkI2ezSMUQcehbAItEUREREAipGnycdQcyhAvA+AJ9kECIiIjMF7Q5UnT5ROoYYHQD0xdsbACyXjUJERGSe2iFj0B6fKB1DzJGPA+ZlACIiUkbFmMnSEUQdWQDeBRCSCkJERGQaTUPFqEnSKUQdLgD64u2lAFYLZiEiIjJF/YCh8GbkSscQpX/n/ddFUhAREZnIM26KdARx3y0Az4A7AxIRUQzzpmWj5PyrpWOI+1YB0BdvbwEwTyYKERGR8XZdeScCrjjpGOK+OwMAAM8D2GZ2ECIiIqM1F/RH6bmXS8ewhO8VAH3x9gCAewSyEBERGeqba2cjpNukY1jC0WYAoC/evgjAFyZnISIiMkzdoNNQMVrte/+PdNQCcNBs01IQEREZbMcNv5aOYCnHLAD64u1fgLsDEhFRDKgYPRl1g06TjmEpx5sBAIC7AFSbEYSIiMgI/qQ0bL/pN9IxLOe4BUBfvH0PgEsBtJuShoiIKIJCNhs2zHkKrdkF0lEs50QzANAXb18O4A7joxAREUXWtpvnoWbIGOkYlnTCAgAA+uLtzwB41uAsREREEVNy/tXc8e84wioAB90BYLlBOYiIiCKmZsgYbLt5rnQMSwu7AOiLt/sBXAag2Lg4RERE3dOa0xMbfvUUQja7dBRL68wMAPTF26sATAPQaEwcIiKirmuPS8C6e5+DPzlNOorldaoAAIC+ePsmAGPBmQAiIrKQ1pye+Oqht9HUa6B0lKjQ6QIAHC4BZ4BrAoiIyAJqhozBqvmLePLvhC4VAODw5YDJ4N0BREQkqOT8q7Hm/pc47d9JWigU6vZBgtMLZwF4AgBXXBCRde1rkE5AERSy2bDt5nm81a+LIlIAACA4vXACgLcAZETkgEREkcYCEDP8SWnYMOcpbvLTDV2+BPC9A3XsGDgSfIAQEREZqGL0ZKx6ZDFP/t0UsRmAIwWnF44FMB8ddwsQEVkDZwCiWt2g07Djhl/zqX4RYkgBOCQ4vXAGgAcBDDJsECKicLEARKXmgv745trZqBg9WTpKTDG0AABAcHqhDcBNAOYByDN0MCKi42EBiCretGzsuvJOlJ57OUK6TTpOzDG8ABwSnF4YD2AWgJnoWCugmTIwEdEhLADWp2moHzAUnnFTUHL+1Qi44qQTxSzTCsCRgtML89GxpfAMABMAOE0PQUTqYQGwpKDdgdohY1AxZjIqRk2CNyNXOpISRArAkYLTC5MBXIiOMnABgGTRQEQUu1gALKM9PhFVp09ExRnnour0iWiPT5SOpBzxAnCk4PRCB4B+6Fgr0OM4b/k3hYg6jwXAFAF3PLzpOfCmZcObfuifI95Py0ZLbi8+rU+YpQoAGaPI4+M3mQhAdVtAOgKRZURsIyAiIiKKHiwARERECmIBICIiUhALABERkYJYAIiIiBTEAkBERKQgFgAiIiIFsQAQEREpiAWAiIhIQSwARERECmIBICIiUhALABERkYJYAIiIiBTEAkBERKQgFgAiIiIFsQAQEREpiAWAiIhIQSwARERECmIBICIUIOT4AAAFCUlEQVQiUhALABERkYJYAIiIiBTEAkBERKQgFgAiIiIFsQAQEREpiAWAiIhIQSwARERECmIBICIiUhALABERkYJYAIiIiBTEAkBERKQgFgAiIiIFsQAQEREpiAWAiIhIQSwARERECmIBICIiUhALABERkYJYAIiIiBTEAkBERKQgFgAiIiIFsQAQEREpiAWAiIhIQSwARERECmIBICIiUhALABERkYJYAIiIiBTEAqCGJukARERkHRoQYgFQQ5l0ACIisg5Ng58FQA3l0gGIiMg6dE1rYQFQA2cAiIjoMA2oZwFQA2cAiIjoMA2oYgFQA2cAiIjoME1DGQuAGjgDQERER9rHAqAGzgAQEdFhGrCTBUANnAEgIqLDNA3bWADUsBtAg3QIIiKSpwEhAJ+xAChgVI7TD+Cf0jmIiEieXddKxue7uQ+AQhZJByAiInk2DYsBPgtAJe8D8EmHICIiWZqGhwAWAGWMynE2AFgunYOIiOTYda16fL67FGABUA0vAxARKcym4aND/84CoJZ30bH6k4iIFKRr+NPhf5cMQuYaleMsBbBaOgcREZnPpmnN4/Pdaw69zwKgntelAxARkfnsOv515PssAOp5BtwZkIhIKbqGoK7hx9/6M6kwJGNUjrMFwDzpHEREZB6Hrv1tfL676sg/YwFQ0/MAtkmHICIi49k0+HQNN333z1kAFDQqxxkAcI90DiIiMp5D1x4dn+/+3kZwWijEu8JUVeTxrQQwVjoHkVmq2wLSEYhMZde0xnN7uZOP9t84A6C22dIBiIjIOHb92L/nOQOguCKP7+8AZkjnIDIDZwBIJQ5dK5/U093jWP+dMwB0F4Bq6RBERBQ5moaQXcflx/sYFgDFjcpx7gFwKYB24ShERBQhLl37+fh894rjfQwLAGFUjnM5gDuEYxARUQS4bNprEwrcj5/o47gGgA4r8vieAXCrdA4io3ANAMU6p65t+UFP9+BwPpYzAHSkOwAslw5BRESdZ9e1OpuOUeF+PAsAHTYqx+kHcBmAYuksREQUPl1Du0PH6PH57pawP8fIQBR9RuU4qwBMA9AonYWIiE5MA0Ium3bZ+Hz3js58HgsAfc+oHOcmdOwQyJkAIiIL0zW0u+3aJePz3Ys6/blGBKLod7AEnAGuCSAisiS7rtW5bNrgrpz8ARYAOo6DlwMmA3hWOgsREf2HU9e2OHTkd3ba/0i8DZDCUuTxzQLwBAC7dBairuJtgBQLXDbttYkF7iu7exzOAFBYRuU4nwFwHrhtMBGRCE1DyG3T7orEyR9gAaBOOLhj4EgAXbreREREXePQtXK3TTsnnB3+wsVLANQlRR7fWADz0XG3AFFU4CUAijZ2TWu065g9ocD9l0gfmwWAuqXI45sB4EEAg6SzEJ0ICwBFC5sGn0PXHp1Q4L7HqDFYAKjbijw+G4CbAMwDkCebhujYWADI6nQNQYeu/U3XcNP4fLfPyLFYAChiijy+eACzAMxEx1oBTTYR0bexAJBV2TSt2a7jX7qGH4/Pd1eZMSYLABmiyOPLR8eWwjMATADgFA1EBBYAsha7rlXbNHyka/jT+Hz3GrPHZwEgwxV5fMkALkRHGbgAQLJsIlIVCwBJ0oCQXddKbBoWaxoeGp/vLhXNwwJAZiry+BwA+qFjrUCP47xNlMpIsYsFgIyiASFNg1/XtBYNqNeAKk1DGYB9GrBT07ANwGedeVqf0f4/HpR5AfH+c6YAAAAASUVORK5CYII=;" vertex="1" parent="1">
          <mxGeometry x="180" y="321" width="50" height="50" as="geometry" />
        </mxCell>
        <mxCell id="pYpf6Nf2uUUaodTvFNSU-26" value="" style="rounded=1;whiteSpace=wrap;html=1;dashed=1;verticalAlign=top;fillColor=#647687;strokeColor=#314354;fontColor=#ffffff;fontStyle=1;gradientColor=none;" vertex="1" parent="1">
          <mxGeometry x="565" y="263" width="450" height="444" as="geometry" />
        </mxCell>
        <mxCell id="pYpf6Nf2uUUaodTvFNSU-27" value="Angular SPA" style="rounded=1;whiteSpace=wrap;html=1;strokeColor=none;fontStyle=1" vertex="1" parent="1">
          <mxGeometry x="709" y="218" width="150" height="30" as="geometry" />
        </mxCell>
        <mxCell id="pYpf6Nf2uUUaodTvFNSU-28" value="" style="endArrow=none;dashed=1;html=1;rounded=0;strokeColor=none;entryX=0.5;entryY=1;entryDx=0;entryDy=0;" edge="1" parent="1">
          <mxGeometry width="50" height="50" relative="1" as="geometry">
            <mxPoint x="1044" y="472" as="sourcePoint" />
            <mxPoint x="810" y="344" as="targetPoint" />
          </mxGeometry>
        </mxCell>
        <mxCell id="pYpf6Nf2uUUaodTvFNSU-29" value="" style="rounded=1;whiteSpace=wrap;html=1;fillColor=#dae8fc;strokeColor=#000000;gradientColor=none;glass=0;shadow=1;strokeWidth=3;" vertex="1" parent="1">
          <mxGeometry x="601" y="296" width="378" height="390" as="geometry" />
        </mxCell>
        <mxCell id="pYpf6Nf2uUUaodTvFNSU-30" value="" style="endArrow=none;dashed=1;html=1;dashPattern=12 12;strokeWidth=2;rounded=0;entryX=0.5;entryY=1;entryDx=0;entryDy=0;strokeColor=#FFFFFF;" edge="1" parent="1">
          <mxGeometry width="50" height="50" relative="1" as="geometry">
            <mxPoint x="1083" y="752" as="sourcePoint" />
            <mxPoint x="1083" y="692.0000000000002" as="targetPoint" />
          </mxGeometry>
        </mxCell>
        <mxCell id="pYpf6Nf2uUUaodTvFNSU-31" value="" style="rounded=1;whiteSpace=wrap;html=1;fillColor=#dae8fc;strokeColor=#000000;gradientColor=none;glass=0;shadow=1;strokeWidth=3;" vertex="1" parent="1">
          <mxGeometry x="646" y="346" width="288" height="150" as="geometry" />
        </mxCell>
        <mxCell id="pYpf6Nf2uUUaodTvFNSU-32" value="" style="rounded=1;whiteSpace=wrap;html=1;fillColor=#dae8fc;strokeColor=#000000;gradientColor=none;glass=0;shadow=1;strokeWidth=3;" vertex="1" parent="1">
          <mxGeometry x="683.5" y="378" width="213" height="96" as="geometry" />
        </mxCell>
        <mxCell id="pYpf6Nf2uUUaodTvFNSU-33" value="" style="rounded=1;whiteSpace=wrap;html=1;fillColor=#dae8fc;strokeColor=#000000;gradientColor=none;glass=0;shadow=1;strokeWidth=3;" vertex="1" parent="1">
          <mxGeometry x="652" y="519" width="288" height="150" as="geometry" />
        </mxCell>
        <mxCell id="pYpf6Nf2uUUaodTvFNSU-34" value="Component" style="rounded=0;whiteSpace=wrap;html=1;fillColor=#dae8fc;strokeColor=default;" vertex="1" parent="1">
          <mxGeometry x="787" y="332" width="120" height="30" as="geometry" />
        </mxCell>
        <mxCell id="pYpf6Nf2uUUaodTvFNSU-35" value="Component" style="rounded=0;whiteSpace=wrap;html=1;fillColor=#dae8fc;strokeColor=default;" vertex="1" parent="1">
          <mxGeometry x="763" y="368" width="120" height="30" as="geometry" />
        </mxCell>
        <mxCell id="pYpf6Nf2uUUaodTvFNSU-36" value="Component" style="rounded=0;whiteSpace=wrap;html=1;fillColor=#dae8fc;strokeColor=default;" vertex="1" parent="1">
          <mxGeometry x="805" y="506" width="120" height="30" as="geometry" />
        </mxCell>
        <mxCell id="pYpf6Nf2uUUaodTvFNSU-37" value="" style="endArrow=classic;html=1;rounded=0;exitX=0;exitY=0.5;exitDx=0;exitDy=0;entryX=0;entryY=0.5;entryDx=0;entryDy=0;edgeStyle=orthogonalEdgeStyle;strokeWidth=3;" edge="1" source="pYpf6Nf2uUUaodTvFNSU-33" target="pYpf6Nf2uUUaodTvFNSU-32" parent="1">
          <mxGeometry width="50" height="50" relative="1" as="geometry">
            <mxPoint x="889" y="532" as="sourcePoint" />
            <mxPoint x="939" y="482" as="targetPoint" />
            <Array as="points">
              <mxPoint x="625" y="594" />
              <mxPoint x="625" y="426" />
            </Array>
          </mxGeometry>
        </mxCell>
        <mxCell id="pYpf6Nf2uUUaodTvFNSU-38" value="Application" style="rounded=0;whiteSpace=wrap;html=1;fillColor=#dae8fc;strokeColor=default;" vertex="1" parent="1">
          <mxGeometry x="811" y="284" width="120" height="30" as="geometry" />
        </mxCell>
        <mxCell id="pYpf6Nf2uUUaodTvFNSU-40" value="" style="shape=image;verticalLabelPosition=bottom;labelBackgroundColor=default;verticalAlign=top;aspect=fixed;imageAspect=0;image=data:image/png,iVBORw0KGgoAAAANSUhEUgAAAgAAAAIACAYAAAD0eNT6AAAABHNCSVQICAgIfAhkiAAAAAlwSFlzAAAOxAAADsQBlSsOGwAAABl0RVh0U29mdHdhcmUAd3d3Lmlua3NjYXBlLm9yZ5vuPBoAACAASURBVHic7d13nJxVof/x73lmdrYnu+mFhCQm9FCjkoQiiBRRxKt4m+iV37WhohcLiMgFG4iiF7lcFS4igohYQJHmRVEhBBAREloIZFM32/vs1Oc5vz+CCpi2m5k5M3M+7/8Eds7XvGDms880I1Qte6tibbO0MB7TvjbSPBnNt0ZzZDVF0hRJkyXVSqqR1OR0LDAGNQ0Hro2ZnqNmHNLZ5XoLUKmM6wEonE0PaWEkLZO0zEpHSDpAUoPjWUDB1TYvk4KaNfnBF5fNWba5z/UeoBIRABVswwNqjeI6MYh0sjU6SdJM15uAUqhtXqYgPlk2Glo9PLz6qEVH9g253gRUGgKgwrTdr5agVqdZ6QxJJ2nb5XvAK38JAEmyYf8TgVlz9LQDu0cczwIqCgFQAayV2bhSx0fSB4x0uqSE602ASy8PAEmy4cCK4Y0PvHHRm5VxOAuoKARAGeu6X02phM6yRh+TtND1HqBcvDoAJCkK+347o3vFSeY45R3NAioKAVCG2h/TlFxW51rpQ5JaXe8Bys32AkCSovzAXTOefeA08y6FDmYBFYUAKCPPPajmeqOzrdFnJU10vQcoVzsKAEkKcz23z1y88h3GKCrxLKCiBK4HQHrsMdVsWKFz6gKtt0aXiQd/YNxiNVNO37p62Q2udwDljgBwbMNKnTAlqyet0ZWSJrneA1SDWM3kd7c/ddR3Xe8AyhkB4Ejb/Wppe0jftVa/lrS/6z1AtYnFWj+w9allV7jeAZQrAsCBthV6m6nVc0b6gHgdBlA0QWzyuR2rj/qS6x1AOSIASmjTQ6pvW6krjdFtkqa73gP4IIi3XNCxevkFrncA5YYAKJEND+uAUHrcWJ0jfusHSsbKGBNv/VL7U0d/wvUWoJwQACWwcaVOs5EekrSf6y2An4yJxSZe0b56+YdcLwHKBQFQRNbKrF+pL0ZWt4u39gGOmSAeb72q85ljz3S9BCgHBECRPP20Ehse1g9kdaG45A+UBSsTl5q+1/HM8n90vQVwjQAoguceVHPjoO6V1btdbwHwKiaIG9N6Q/fq4051PQVwiQAosLb71VIX6F5Jb3C9BcCOmNoo1njr5iePfqPrJYArBEABbX5Ek02t7pe01PUWALtgTENNYuJtnU8dt9z1FMAFAqBA1j6sCblQd0s61PUWALvLNJtYw51bnzr2ta6XAKVGABRAx5NqrIl0l5G4EwEqjFUwMYg139X37AmLXW8BSokA2EPWKkgndZMkLiMCFctMyan2N+2rj+F7OeANAmAPrX9Y35R0uusdAPZUMDUWn3Bf56pTF7heApQCAbAH1q/Q2S99tC+AqmBmKWHu61nzltmulwDFRgCM0/oVWiqjb7reAaDArJkfWfP7rqffPMP1FKCYCIBxaHtUM2T0M0kJ11sAFJ61eo0NgvsGnz5jkustQLEQAGNkrYwJdZ2kma63ACgmc2A6SP+uv+30FtdLgGIgAMZo/Up9XFZvdr0DQEkszqXzv+548sxG10OAQiMAxmDDwzrASJe63gGgdKzMa4PE4J227eI611uAQiIAdpO1CmykayRxJwB4xsoe25V57E772AdqXG8BCoUA2E0bH9JHxYf9AP6y5vjuxs7brL047noKUAgEwG5oe1QzrNGXXO8A4JZVdGr380/cZK3lvhMVj3+Jd0OQ06WSml3vAOCejcJ/7Fnz9huttcb1FmBPEAC7sOFhHWGN3uN6B4DyEdnwX7qfP+O/iQBUMgJgF6JQl4o/JwCvYqPM2T1rz/iG6x3AePHAthMbHtZRxuhNrncAKE82yny86/l3fdH1DmA8CICdsBEv/AOwY9bK2DD1uZ61//pZ11uAsSIAdmDjCr1W0rGudwAoeyYMh7/UueYfz3U9BBgLAmAHokDnud4AoEJYG5godXn38+/+oOspwO4iALZjwwNaIKvTXe8AUDmsbCyKhr/Vv+4s3jWEikAAbE9M75cUcz0DQIWxUSKb7b2ma+173+V6CrArBMCr2PsVt9J7Xe8AUKFsVKtw8Prute8/zfUUYGcIgFfZUKfTJM10vQNA5bI2bLBh9009L77/BNdbgB0hAF7N6l9dTwBQ+awNm22+56fdbR96g+stwPYQAC/z3INqlnSK6x0AqkMU5SdGmc6f9qz72OtcbwFejQB4mbpAb5VU73oHgCpi85OjzJZf9rd9+lDXU4CXIwBexljxoh0ABWeVm57LvHhn74bzDnS9BfgLAuAl9lbFrBEv2AFQFNbmZoXpdb8a3PTFRa63ABIB8FcbZut1kia73gGgetkoPS+TWnVnX/tlc11vAQiAvwh0vOsJAKqfDdOLwpHH70luvGqW6y3wGwHwF1bLXU8A4IcoTO0/mn7wzuGOb09zvQX+IgC07Ss9Jb3e9Q4A/ojC0UPTQ7+/a2jzDTz1CCcIAEltK7SPpEmudwDwSxQmj8ikf32b7b1rgust8A8BIMnExPtzATgR5YaO7um9+efWPt3kegv8QgBIMpEWu94AwF9ROPjGnhcu/Ym1m/ggMpQMASBJRnw4BwCnovzgyb0vfP5Ga22t6y3wAwGwzQLXAwAgzPe+o/fFf7/WWptwvQXVjwDYZm/XAwBAksJc15l9bR++2lpb43oLqpv3AbDpIU2SNNH1DgD4i3xmy7/3tp19hbU27noLqpf3ARAFmuF6AwC8WpTd/NG+to9dSgSgWLwPAJPn8/8BlB9rZcLshk/2t330Emut9/fVKDzv/6WKAk1xvQEAtsdamVx20/m9Gz51ARGAQvP+XygjNbveAAA7ZG0Qpdb+Z9/6C86x1hrXc1A9vA8AWfGeWwBlzcrGw/TTXxvY/LmPEgEoFO8DwEq81QZA2bOy8Wzy6a8NbLrofUQACsH7ADCGAABQIWxUm02uvmqo/bJ/cj0Flc/7AIgkShpABQkbMsOPXDuw4UtnuF6CyuZ9AABApbE2bMymHr92qOMbb3W9BZWLAACACmRtbmJ68KHvjWy+8o2ut6AyEQAAUKFslJkymnzgR/1br3qD6y2oPAQAAFQwG2Wm5oYe+OFgx/VHut6CykIAAECFs1FqVnrw3luSXT86zPUWVA4CAACqQZTce3Tglz8d6bh1sespqAwEAABUiSgcWZAauv3WdPed+7jegvJHAABAFYnC4f2G+2+5NTXwyHzXW1DeCAAAqDJROHDISPd//3R09NE5rregfBEAAFCFovzA4aPt377FJp+b5XoLyhMBAABVKsz1LOvd+vUbre2Y5noLyg8BAABVLMx1Ht/XdtGN1g5Ndr0F5YUAAIAql89sPbG37TPXWWtbXG9B+SAAAMADYWbL2/rXf+Jqa+1E11tQHggAAPBELr3uX/o2fOqb1tpm11vgHgEAAB7Jp55/X/+GT19hrW1yvQVuEQAA4Jl8es2/D2z83JestQ2ut8AdAgAAPGOtTHZ09TmDmy/5PBHgLwIAAPxkMsnHPzOw5QvnW2vrXI9B6REAAOAra4Pc8J8+O7jl8v+w1ta6noPSIgAAwGNWNp4Zfujioa3/9WFrbcL1HpRO3PUAAIBrUSI99LvLAhsPrbXfMcbkXC9C8REAAADJRrWjQ7+5zMYSKWvt940xedeTUFwEAADgJWFDeuCeKwJTn7HW3myMCV0vQvEQAACAv7I2P2G0//arrAmy1tqfGGMi15tQHAQAAOAVrM1NTPXf/t+xoD5rrf0FEVCdCAAAwN+xUWbKSM8t/2ODhoy19m5jjHW9CYXF2wABANtlbXrGaPf112SG7jvRWmtc70FhEQAAgB2KotTsoY7rvpMeeOAYIqC6EAAAgJ2yUXLecPe3v5cefmS56y0oHAIAALBLNhxZMNJx1bXZwSde53oLCoMAAADsligc2m+g8xvXZJNrD3e9BXuOAAAA7DYb9h8y2P7lazPDLxzkegv2DAEAABiTKN97+HDnpddY27Of6y0YPwIAADBmYa5rae+6C6+2dnCR6y0YHwIAADAuYXbL8b3rzv8fa1PzXW/B2BEAAIBxC7ObT+htO+9Ka+1c11swNgQAAGCPhJm2t/at//RXrbWzXW/B7iMAAAB7LJ9e808DGy/4srV2lust2D0EAACgILKjT713YNOFX7DWTne9BbtGAAAACiY3uuqsoc1fvNBaO831FuwcAQAAKBhrZdIjf/zIYPvln7LWTna9BztGAAAACs1khld8cnjrNz5prZ3kegy2L+56AACgClkbpAd//2lratLW2m8ZYwZcT8IrEQAAgKKwsvH0wG8+Z1SXsdZ+xxgz6HoT/oYAAAAUUZRIDd55SRDE8tbaa4wxw64XYRsCAABQXDaqTfbd8QUTa0hba28wxoy4ngQCAABQEmFDsufWrwSmPmOtvdkYM+p6ke8IAABASVibnzDc/YOvK4iF1tpbjDEp15t8RgAAAErG2tzE4a4bLldQl7HW/twYk3a9yVcEAACgpGyUmTK89ZorgqAha629wxiTcb3JRwQAAKDkrE3PGGq/8r8m7BXPW2vvMsZkXW/yDZ8ECABwIopSswc3f/ObmdEnT7TW1rje4xsCAADgjI2S84Y3X35FJvPCcdZarkqXEAEAAHAqiob3Gd548ZXKbzzWWhtzvccXBAAAwLkoHNqvu+3zV+TzW5dba3lsKgH+kAEAZcGG/YcMbrzw8ny+fykRUHz8AQMAykaY7X794MbPXK7c0Guttcb1nmpGAAAAykqY7VzWu+m8r0ijS4iA4iEAAABlJ8xuOb6/7fz/lHQIEVAcBAAAoCzlMutP7W/7xCWSDna9pRoRAACAspXLrDutf8N551lrD3S9pdoQAACAspZLPfvPAxsv/DQRUFgEAACg7GVHV713YNNF51pr93G9pVoQAACAipAbfeJ9A5u+co61dqHrLdWAAAAAVARrZbKjj3x4sP0bH7TWvsb1nkrHFy8AACqHtUFm+PfnDnfEQmvtt40xG1xPqlQEAACgslgbpAd++0mruoy19jpjzEbXkyoRAQAAqDhWNp4euPt8E6tLW2t/YIzZ4npTpSEAAAAVKkqk+m67KAjiobX2JmNMu+tFlYQAAABULhvVJbt/+p+BqctYa28xxnS6nlQpCAAAQIULG5I9N18SmIastfZnxpgu14sqAQEAAKh4UZSbONT9v19pVCx8KQJ6XW8qdwQAAKAq2CjXkuy69stBvCFnrf2FMabP9aZyRgAAAKqGtZkpw1u/9eXA1mattXcaYwZcbypXfBIgAKCq2Cg9c6jj619NJf98irV2ous95YoAAABUnShKzU62X/7lMLXmTdbaZtd7yhEBAACoSlGYnN+/6QtfDrObjrfWNrneU24IAABA1Yqi4X36N1xwaRhueYO1tsH1nnJCAAAAqloUDu7f3/a5L4aZ7jdYa+td7ykXBAAAoOpF+b5DB7acf1E+P3i0tbbO9Z5yQAAAALwQZrtfP7TxUxcpn15ura11vcc1PgcAQMXJjDwqI+N6BirT8pHum9479/Xn/971ENcIAACVx+ZlXW9A5bK5M9c/dPH9kq53PcUlngIAAPgnUIvrCa4RAAAAeIgAAADAQwQAAAAeIgAAAPAQAQAAgIcIAAAAPEQAAADgIQIAAAAPEQAAAHiIAAAAwEMEAAAAHiIAAADwEAEAAICHCAAAADxEAAAA4CECAAAADxEAAAB4iAAAAMBDBAAAAB4iAAAA8BABAACAhwgAAAA8RAAAAOAhAgAAAA8RAAAAeIgAAADAQwQAAAAeIgAAAPAQAQAAgIcIAAAAPEQAAADgIQIAAAAPEQAAAHiIAAAAwEMEAAAAHiIAAADwEAEAAICHCAAAADxEAAAA4CECAAAADxEAAAB4iAAAAMBDBAAAAB4iAAAA8BABAACAhwgAAAA8RAAAAOAhAgAAAA8RAAAAeIgAAADAQwQAAAAeIgAAAPAQAQAAgIcIAAAAPEQAAADgIQIAAAAPEQAAAHiIAAAAwEMEAAAAHiIAAADwEAEAAICHCAAAADxEAAAA4CECAAAADxEAAAB4iAAAAMBDBAAAAB4iAAAA8BABAACAhwgAAAA8RAAAAOAhAgAAAA8RAAAAeIgAAADAQwQAAAAeIgAAAPAQAQAAgIcIAAAAPEQAAADgIQIAAAAPEQAAAHiIAAAAwEMEAAAAHiIAAADwEAEAAICHCAAAADxEAAAA4CECAAAADxEAAAB4iAAAAMBDBAAAAB4iAAAA8BABAACAhwgAAAA8RAAAAOAhAgAAAA8RAAAAeIgAAADAQwQAAAAeIgAAAPAQAQAAgIcIAAAAPEQAAADgIQIAAAAPEQAAAHiIAAAAwEMEAAAAHiIAAADwEAEAAICHCAAAADxEAAAA4CECAAAAD8VdDwBQXUxQr3hijmKJWQpqpiqIt8rIyMRbJEk2SslGacnmFOZ6FOU6lc+2K8p1ydqs4/WAPwgAYBzqJp6gIN5a1DMyQ79TmOsu6hl7KlYzQ3UT36BEw6GqaTxMicZDFKuZPr4bs6FymXXKjT6tXOpZZUceU2b4QYW5rsKOBiCJAADGpXXupUo0LSnqGZ1PH1uWAVDbvEwNk96muoknKdF4sCRTmBs2MdXULVJN3SJJp//1L+dSzyk99Dul+m5XevB+rhIABUIAANilWGIvNU37NzVOPVM1dfuU9Oya+v1UU7+fmqd/SFF+QKn+OzTS9T2lh34vyZZ0C1BNCAAAO1RTt48mzD5fjVPfLWNqXM9REG9R49Qz1Tj1TOVSz2mk87sa6bpOUTjsehpQcXgXAIC/E0vM1pSFN2rWoc+oadr7yuLB/9Vq6vdT67xvavbh6zRx9vkysSbXk4CKQgAA+CtjEpow+zzNPvQ5NU59t2RiriftUhCfopa5l2qvw9vUPP1D4m4N2D38lwJAklTTcKBmHvyYWudeVpG/TQfxKZq04NuaufgR1Ta9zvUcoOwRAADUOPU9mrn4EdU0LHY9ZY8lmpZoxuKHNWnelTIm4XoOULYIAMBjJqjVlIU3asrCG2SCRtdzCsioeeY5mnHQipK/awGoFAQA4KkgPlnT9v/1tuf6q1SiaYlmHPyY6ltPdT0FKDsEAOCheO1czTz4j6qbcIzrKUUXxJo1bd/b1TT9A66nAGWFAAA8E6uZrmn736t47XzXU0rHxDV5wXc1YfZ5rpcAZYMAADwSxCdp+oH3q6Z+P9dTnGide6maZ3zE9QygLBAAgDcCTVl0k2rq93c9xCGjSfOvUsPkM1wPAZwjAABPtMy5SPUtp7ieUQaMpiy8vire8gjsCQIA8ECi8QhN3OvzrmeUDRM0atq+P1cQa3Y9BXCGAACq3rbL3vzn/krxuoVqmfsV1zMAZ7hHAKpc09T3qLZ5qesZZal5xtmqbV7uegbgBAEAVDXDW992KtCk+d+SZFwPAUqOAACqWH3rqZ6/6n/XEo2Hq2HS21zPAEqOAACqWPOMs11PqAgT51wirgLAN3HXAwAURxBrVt2E413PUBQOKsp1KwoHJWsV1ExREJ9cVq/ATzQcrLoJRys99AfXU4CSIQCAKlXXcqJMUFvyc22UVmrgLo32/kSZ4UeUz7Rt958L4lNUN/FY1U04Tg2TTlcsMbvES1+padq/EwDwCk8BAFWqbuIJJT7RaqTzGm3582vUveYdSvbcssMHf0mK8j0a7f2Z+to+qi2PL1Dvi2cpl3q2hHtfqWHyO2ViTc7OB0qNAACqVKLh4JKdZaOMep7/Z/Wu+6DCbPvYf95mNdJ1vdqfXKyBTRdLNl/4kbtggvqyeMoEKBUCAKhKRjUNB5XstIGNn1Wy98d7fkM21ODmS9Tx9BvGFRJ7qr6Vj0qGPwgAoArFaqYpiE0oyVn59Asa2nplQW8zM7xCnc+coDDXXdDb3ZkoHFaU6yrZeYBrvAgQqEJBbGLJztr2m39U8NvNpZ5V17MnavqBvyvq/59c6lkNd1ytZPeNisKhop0DlBsCAKhCJl6a3/4lKTdavBfuZZNPqK/tHE1ZeEOBbzlSqv8uDW29UunB30iyBb59oPwRAEAVMkF9yc6yNlvU2092/0CNk89Qfetb9vi2wlyHRjqv1XDndxVmtxRgHVC5CACgCtkoVbKzaur2KfoZves+rNmHvWncn2uQGXpAwx1Xa7TvtqIHC1ApeBEgUIVsmCzZWU3T/5+MSRT1jDC7WcmeH47pZ2yUVrL7Rm1ddag6nj5Gyd4f8+APvAwBAFQhG46U7Kx47Xy1zP1i0c8Zar9Cu/NcfS71nPraztHmx2ao54X3KJt8sujbgErEUwBAFQrzvdr2YFmaL7iZMOszkqSBjRfK2lxRzsilnlF66A+qm3Ds3/9Nm9do/x0a7rha6cHfihf1AbvGFQCgCtlotOQvcpsw6zOasXilEk1LinZGqu8Xr/jfYa5Tg1u+rC2PL1D3mn/gFf3AGBAAQJXKpZ4v+ZmJxiM0c/EfNW3/e1TfcrJkYgW9/dH+bQGQGV6hnrX/oi1/mquBjRcqn91U0HMAH/AUAFClcqnnVDfRzWfb17ecpPqWkxRm25XsvUWp/nuUGX5ANkrv0e3m0+vU/sT+yqWeK9BSwF8EAFClMsMPqnnG2U43xBKzNGHmuZow81zZaFTZ5J+VTT6p7OgTyiWfVHb0adlobO9Y4MEfKAwCAKhSf3s+vDQvBNwVEzSotnm5apuXv+yvRsql1iozslKZoT8oPfSA8ukXnG0EfEIAAFUqzHUpm1ylROMhrqfsRKCa+n1VU7+vmqb+m6Rtl/nTg/dptP9XSg/cy3v3gSLhRYBAFRvt/YnrCWMWr1ugpukf0LT9fqm9lnRoyqKb1Tjln0r27YaALwgAoIqNdF1XtPfll0IQb1XjlH/WlEU/0l5LOjVtvzvUMPmMon/yIOADAgCoYmGuQ6m+X7qeURAmqFN961s0dZ9bNfuITWqde5nitfNdzwIqFgEAVLnB9sskRa5nFFSsZpomzD5Psw9bq6n73qbapte7ngRUHAIAqHLZkcc00nWD6xnFYWJqmHS6Zix+WDMOelD1rW91vQioGAQA4IGBjRcoCodczyiq2ublmrbfLzXjoAe2fQohgJ0iAAAPhLkO9a//hOsZJVHbfJSm7X+3Zhz0kGrq9nE9ByhbBADgiZGu65XsucX1jJKpbV6qmYc8oeaZH3c9BShLBADgkb62s736KF0T1GvSvP/S5Nd8r+BfTARUOgIA8EiU71fnMycon9ngekpJNU17n6YuulnG1LieApQNAgDwTJjdoq5nT/HuK3QbJr9LUxb9SNztAdvwXwLgoVzqWW198nClh37nekpJNUx+h1rmfsH1DKAsEACAp6J8j7qeOUlDW7+havugoJ2ZOPsCNUz6B9czAOcIAMBj1mbVv/6TL70uYKPrOSViNHnh9xWve43rIYBTBAAApQfvV/sT+2tw8yWyUcb1nKILYs2avOBaScb1FMAZAgCAJMlGoxrYdLG2rjpMo32/cD2n6OomHqfGqf/qegbgDAEA4BVyqWfVveZ0daw+UqmBeyVZ15OKpnXvbyiIT3I9A3CCAACwXZmRR9T17Mna+uShSnb/oCqfGojVTNWEWZ90PQNwggAAsFPZ0VXqeeG92vL4HPVv+LRy6eddTyqo5hkfUxBvdT0DKDkCAMBuCXPdGmr/utr/vK+2rlqikc5rZKOU61l7LIg1q2nqv7meAZQcAQBgzLLJP6l33Qe1+U97qWftu5Xs/bGi/IDrWePWNO0s1xOAkou7HgCgckX5PiV7fqhkzw9lTI1qJxyt+ta3qr71VNXULXI9b7fVNBykeO085TPrXU8BSoYrAAAKwtqc0oO/Vf/6/1D7n/fRlscXqHfdBzXa+xNF4aDrebtU33KK6wlASREAAIoin2nTSOc16n7+Xdr8x2nqfOaNGt76rbL9JsL61je7ngCUFE8BACg6a7NKD/5W6cHfSus/rkTj4WqY9HY1TH6Haur3dz1P0rYPBpKJSTZ0PQUoCa4AANglE9QX9Payycc1sOnzan/iAG1ddYSGO66WjUYLesZYmaBR8cRcpxuAUiIAAGxHoETTEk3c6/OacdBKzVz8aNFOyiYfV1/bR7Xl8XnbvpnQ5ot21q7U1O/r7Gyg1HgKAIAkKYhPUn3LiapvOUV1LScrVjPtr3/PRhnJxIv64BzmutW//pMa6fq+piy6SYmGg4t21o7E6/eVBu4p+bmACwQA4C2jRONhqm85RfWtp6i26chtz4Fv758MapVoOETZ5J+Kvio3ulodq5dpysLr1TD5jKKf93I1dfuU9DzAJQIA8EgQb1HdxDf99UE/VjNjt3+2bsKxJQkASbJRUt1r/1lTorQap55ZkjMlveKqB1DtCABgHExQ63rCbjJKNB6y7QG/5RTVNi/ddil/HBomv33bc/SlYkP1rnu/Ek2vVU39fiU50sQaS3IOUA4IAGAcSvEVsnacX8MbxCaqruWEvz7oxxKzCrKntnmZ4nULlE+vK8jt7Q4bZTSw8bOauu9tJTkvCJpKcg5QDggAYByC+OTiHzLWr981MU0/4D7VNi+XMTVFGBSoecZH1L++tF+fm+q/S1F+QEG8pehncQUAPuFtgMAYxWvnywR1RT/HRukx/kCoRMMhRXrw36Z5+gcVS8ws2u1vj7VZ5VLPluQsExAA8AcBAIxR3YRjSnJONI6v2g2zW4qw5G9M0KiWOV8s6hnbE+V7S3KOtWO86gJUMAIAGKO6lpNLcs54Phkvn91chCWv1DTtLNW3nFj0c14uKNGr8204XJJzgHJAAABjEK9boMbJ7yzBSVZRrnvMP5UbXV2ELa9mNHnhjYon5pTgLEkmrpq6hSU5KiIA4BECABiDlr0uGffb6MYizHXL2uyYfy4z/HAR1vy9WM00Td3vDgXx1qKfVd9ycknedSFpXNEFVCoCANhNzdM/rMap7y7JWWG2fVw/lxkpTQBIUqLxEE3b/56ifniOMTWauNeFRbv9V8ulnivZWYBr7D5SSQAADh9JREFUBACwG5qnf1Ct868s2XlhduM4f65dudSaAq/Zsdqm12nmwY+rtnl5UW6/Ze/LVdv0+qLc9vYQAPAJAQDsRLxuoabu81NNWvCdor697tWyyVXj/tnR3lsLuGTXYonZmn7g/Zow81wV6i7FmIQmv+Y6TZj5iYLc3u7KjT5V0vMAlwgAeKOm/oDdes46XrdIjVPP1LT97tDsw9aoYfI7SrDulbKjT4z7Z5MlDgBp26X61nlXaObBf1TdxDfu0W3VTTxBMw/+k5qmnVWgdbsnzG5WLv18Sc8EXOKTAOGNafv9QvG6hYryfcpnNslGo7JRUtbmFMQmKIi3KlYzo2QvONuZbHL8AZAbfUrZ5JNKNB5SwEW7J9F4uKYfcJ+yI49ppOt7Gu37qcLdeGFdEGtWw+R3qmnq+1Q74egSLP17qYF7nZwLuEIAwDtBfJISZfAgvyNhdssef97+0Nava8rCGwu0aOwSTUs0qWmJJi24WrnRp5VN/lm59IuK8r2yNqsg1qwg1qJYYrZqm5aopv6AHX4VcamkBu5xej5QagQAUGa2/SY6vi8C+otkzy1qmfNFxWvnFWTT+BnVNBykmoaDHO/YuSjfq1T/r1zPAEqK1wAAZSY98Os9vxGb19CWr+757XhipOv6sX/3AlDhCACgjNgopdRgYZ6LHu66Vtnk4wW5rapmQw13XuN6BVByBABQRkZ7f6ooP1CYG7Ohetd9SFJUmNurUiPd31c+vdb1DKDkCACgjIx0XVfQ28uO/FHDHf9T0NusJjZKamDTRa5nAE4QAECZyCafVHroDwW/3f4Nn+KpgB0Y3HzpuD92Gah0BABQJrb9Jrpnr/7fHhtl1L3mHxTl+wp+25UsO/JHDbVf7noG4AwBAJSBzMijSvXfUbTbz2c2qGftv4zrGwarURQOqfv5f5S1OddTAGcIAMA1G6q/7RwV47f/l0sN3KveF94r718UaEP1vvAe5TNtrpcAThEAgGOD7V9TZuSRkpyV7LlFfes+qmLHRvmy6m37sEb7fuF6COAcAQA4lE0+ocHNF5f0zOHOb6v3hbMkmy/pueVgYOPnNNJ5resZQFkgAABHwuxWda95m2yUKfnZI93fV+ezb5YNR0p+thM2VF/bRzW45VLXS4CyQQAADtgoqa41pymf2ehsQ3rw/9T5zAlON5SCjVLqfv4MDXdc7XoKUFYIAKDEony/Op85SdmRx1xPUWbkEW1ddVjVPieeSz2jjqeWa7TvNtdTgLJDAAAlFGbb1fn0G5QZXuF6yl9F+T51r3m7+trOkY2SrucUiNXw1m9p66olyib/7HoMUJYIAKBE0oP3aeuqw5UdXeV6ynZYDXdcpfYnDtBo3+2ux+yRbPJP6nj6WPWt/7hslHI9ByhbBABQZDYaVf/G89X5zEkKc52u5+xUPrNR3Wverq7nTlNu9GnXc8YkzLar94X3aeuq1ykz9IDrOUDZi7seAFSzVP+v1Nf2MeUz611PGZNU/x1K9f9K9a1vUcucS5RoPMz1pB3KpddquONqjXRew2/8wBgQAECBWZvVaM+PNbT1mxX+/LN9KQTuVH3ryWqa9n7Vt54qY2pcD5ONRjXaf4eSXd9XauBe+fvBRsD4EQBAQUTKDD+i0b6fK9lzc5V9w1ykVP9dSvXfpVjNDDVOPVMNk05TbdNSycRKtyI/oPTQ7zTa9zON9t3uz2cYAEVCAMAbPWv/VYnGw1TTsFg1DQcqXrtA8cTscT2I2Sij3OhqZUYeVmbkEaUHf1tlD/rbF+Y6NNT+NQ21f01BfJLqW05W3cTjlGhcokTDQZIp0F2KDZXLrFMuuWrbn+/Q/duuptiwMLcPgACAPzIjjyoz8ugr/poxNYol9lIsMUNBfJKC+GSZoE5BbKJktr1G1obDslFWUdivMLtV+cx6hdmt8v2yc5TvU7LnZiV7bpYkmaBeiYaDFa9fpHhijmK1cxVPzJEJahXEWiRToyDWrCjsf+nnB2VtXlGuU2GuQ/nsFkXZDuXSLyiXeobn84EiIwDgNWtzymfa+Ga4ArBRSpmRR0r2xUYA9gxvAwQAwEMEAAAAHiIAAADwEAEAAICHCAAAADxEAAAA4CECAAAADxEAAAB4iAAAAMBDBAAAAB4iAAAA8BABAACAhwgAAAA8RAAAAOAhAgAAAA8RAAAAeIgAAADAQwQAAAAeIgAAAPAQAQAAgIcIAAAAPEQAAADgIQIAAAAPEQAAAHiIAAAAwEMEAAAAHiIAAADwEAEAAICHCAAAADxEAAAA4CECAAAADxEAAAB4iAAAAMBDBAAAAB4iAAAA8BABAACAhwgAAAA8RAAAAOAhAgAAAA8RAAAAeIgAAADAQwQAAAAeIgAAAPAQAQAAgIcIAAAAPEQAAADgIQIAAAAPEQAAAHiIAAAAwEMEAAAAHiIAAADwEAEAAICHCAAAADxEAAAA4CECAAAADxEAAAB4iAAAAMBDBAAAAB4iAAAA8BABAACAhwgAAAA8RAAAAOAhAgAAAA8RAAAAeIgAAADAQwQAAAAeIgAAAPAQAQAAgIcIAAAAPEQAAADgIQIAAAAPEQAAAHjI+wAIrCLXGwAApcV9PwGgKFDO9QYAQGlFRhnXG1zzPgCMVdb1BgBAiUUEgPcBIKO06wkAgNIyAb/8EQCRBlxPAACUXJ/rAa55HwDWqtf1BgBAaUXc9xMA8UA9rjcAAEorFnLf730A1GbU4XoDAKC0aieo0/UG17wPgGnHaUSWEgQAj3TNOERJ1yNc8z4AJElG611PAACUhhH3+RIBIEkyVi+63gAAKA1rtM71hnJAAEiy0lOuNwAASma16wHlgACQFARa5XoDAKA0DAEgiQCQJIUiAADAFxEBIEkyrgeUi/UPqV3STNc7AABF1TlvmWa4HlEOuALwNytdDwAAFJnRg64nlAsC4C+MVrieAAAouodcDygXBMBLbKTfut4AACiuKK/fuN5QLngNwEusldmwUpslzXK9BQBQFB17L9UsY2RdDykHXAF4iTGyMrrX9Q4AQJEY3c2D/98QAC9jrX7pegMAoEis7nA9oZwQAC+TH9DdkgZd7wAAFNxwTLrH9YhyQgC8zKI3KyNxFQAAqtDtc5Yp5XpEOSEAXsVKP3S9AQBQYEY/cj2h3BAArzJvqf5PfFUkAFSTzXtv0q9djyg3BMCrGKPISNe73gEAKAxrdZ15l0LXO8oNAbAdJtL/Ssq63gEA2GP5sEbXuR5RjgiA7Zh7lNqNeL4IACqe1Y8Xvk6bXM8oRwTADhirr0t8YAQAVLRA33A9oVwRADswd7meknSX6x0AgPEx0r3zlupx1zvKFQGwM0YXiasAAFCRokgXu95QzgiAnXipHH/hegcAYMx+Nf8oPex6RDkjAHbBBPqcpLzrHQCA3RZG2+67sRMEwC7sfaSekdW3Xe8AAOweI1274Eitcr2j3BEAuyFmdLGkXtc7AAC7NJDN6yLXIyoBAbAb5ixTn6TPuN4BANg5a/TZRceo2/WOSmBcD6gU1sqsf0j3GqM3ud4CANgOo4f3PlLLjVHkekol4ArAbjJGNiZ9WFLS9RYAwN9JSzqLB//dRwCMwdzletFY/YfrHQCAVzJGn5m3VM+63lFJeApgHNoe0o+N9C7XOwAA2z7xb+5SnWIMH9w2FlwBGIf4tqcC1rveAQDQljDQe3nwHzsCYBzmLFNfFOp0SaOutwCAx3Im0D8tOFKdrodUIgJgnBYcrSet0Udc7wAAj/3H3kfqQdcjKhUBsAfmL9X3jXSZ6x0A4BsrXTNvma52vaOSEQB7aO5SXSCjm1zvAACP3D0vwxXYPUUA7CFjZG1a75d0n+stAOCBlXWNOsMcx5e07SneBlgg7Y+pIZfV3VY6xvUWAKhSq2LScS99PDv2EFcACmTWEo3mEzrNSI+63gIAVeipvNWbePAvHK4AFFjHk2pMJ/VLSce73gIAVeLxREInzVqiHtdDqglXAApsxiFKJhJ6q6R7XG8BgEpnpQfChI7nwb/wCIAimLVEo3tn9FYjfcf1FgCoWEY/i0snvWaJBl1PqUY8BVBk61fqAll9SfxZA8Bus0ZfnXekPstH/BYPD0olsP5BvVmBbpLU6noLAJS5lDX68PylusH1kGpHAJTIiw9rURDpZ0Za7HoLAJQlq+djRu+cs0yrXU/xAa8BKJHXHKm1yuh11uirkiLXewCgzNzYkNURPPiXDlcAHFi/UqfI6n8lzXK9BQCcsuoxRmfvvUw/cT3FN1wBcGDeUt0dJnSANfqWuBoAwF8/yYU6gAd/N7gC4Ni6FTomCPQtWR3iegsAlMgaK318/jLd63qIz7gC4NiC5frD3pt0hJU+JKnb9R4AKKIBa3RuT0KLefB3jysAZaTrfjWlEvqINTpPvGUQQPVIWqPrwkhfXrhcXa7HYBsCoAxteECtUaCPG+kjMprieg8AjNOgNfpOPqcrFh3DFc5yQwCUsfbH1JDN6N8kfVxG+7jeAwC7ab2MrkqHuna/ozTsegy2jwCoANbKrH9Yxxqr90v6B0l1rjcBwKtkJf3SSv87b6n+zxje4VTuCIAK0/6YGnJZnWql90g6UVLC9SYA3golPWykn+SsfsTz+5WFAKhgLz6mibGMTpB0spFOskZzXG8CUPW2Gqt7o0D3xK3+b84y9bkehPEhAKpI20rNCyIdZaVlMjpc0kGSGl3vAlCxRq30tKQ/B9IKY7Vi7nK96HoUCoMAqGLWKti8UgtCq31lNF9W863RXkaaZqXJRposqV5STNIEx3MBlM6Qtl2+T1mp10i9krpltckEWi+rtnygNQterxd5Lr96/X9n+9ZvgYT2JwAAAABJRU5ErkJggg==;" vertex="1" parent="1">
          <mxGeometry x="643" y="512" width="36" height="36" as="geometry" />
        </mxCell>
        <mxCell id="pYpf6Nf2uUUaodTvFNSU-41" value="" style="shape=image;verticalLabelPosition=bottom;labelBackgroundColor=default;verticalAlign=top;aspect=fixed;imageAspect=0;image=data:image/png,iVBORw0KGgoAAAANSUhEUgAAAgAAAAIACAYAAAD0eNT6AAAABHNCSVQICAgIfAhkiAAAAAlwSFlzAAAOxAAADsQBlSsOGwAAABl0RVh0U29mdHdhcmUAd3d3Lmlua3NjYXBlLm9yZ5vuPBoAACAASURBVHic7d13nJxVof/x73lmdrYnu+mFhCQm9FCjkoQiiBRRxKt4m+iV37WhohcLiMgFG4iiF7lcFS4igohYQJHmRVEhBBAREloIZFM32/vs1Oc5vz+CCpi2m5k5M3M+7/8Eds7XvGDms880I1Qte6tibbO0MB7TvjbSPBnNt0ZzZDVF0hRJkyXVSqqR1OR0LDAGNQ0Hro2ZnqNmHNLZ5XoLUKmM6wEonE0PaWEkLZO0zEpHSDpAUoPjWUDB1TYvk4KaNfnBF5fNWba5z/UeoBIRABVswwNqjeI6MYh0sjU6SdJM15uAUqhtXqYgPlk2Glo9PLz6qEVH9g253gRUGgKgwrTdr5agVqdZ6QxJJ2nb5XvAK38JAEmyYf8TgVlz9LQDu0cczwIqCgFQAayV2bhSx0fSB4x0uqSE602ASy8PAEmy4cCK4Y0PvHHRm5VxOAuoKARAGeu6X02phM6yRh+TtND1HqBcvDoAJCkK+347o3vFSeY45R3NAioKAVCG2h/TlFxW51rpQ5JaXe8Bys32AkCSovzAXTOefeA08y6FDmYBFYUAKCPPPajmeqOzrdFnJU10vQcoVzsKAEkKcz23z1y88h3GKCrxLKCiBK4HQHrsMdVsWKFz6gKtt0aXiQd/YNxiNVNO37p62Q2udwDljgBwbMNKnTAlqyet0ZWSJrneA1SDWM3kd7c/ddR3Xe8AyhkB4Ejb/Wppe0jftVa/lrS/6z1AtYnFWj+w9allV7jeAZQrAsCBthV6m6nVc0b6gHgdBlA0QWzyuR2rj/qS6x1AOSIASmjTQ6pvW6krjdFtkqa73gP4IIi3XNCxevkFrncA5YYAKJEND+uAUHrcWJ0jfusHSsbKGBNv/VL7U0d/wvUWoJwQACWwcaVOs5EekrSf6y2An4yJxSZe0b56+YdcLwHKBQFQRNbKrF+pL0ZWt4u39gGOmSAeb72q85ljz3S9BCgHBECRPP20Ehse1g9kdaG45A+UBSsTl5q+1/HM8n90vQVwjQAoguceVHPjoO6V1btdbwHwKiaIG9N6Q/fq4051PQVwiQAosLb71VIX6F5Jb3C9BcCOmNoo1njr5iePfqPrJYArBEABbX5Ek02t7pe01PUWALtgTENNYuJtnU8dt9z1FMAFAqBA1j6sCblQd0s61PUWALvLNJtYw51bnzr2ta6XAKVGABRAx5NqrIl0l5G4EwEqjFUwMYg139X37AmLXW8BSokA2EPWKkgndZMkLiMCFctMyan2N+2rj+F7OeANAmAPrX9Y35R0uusdAPZUMDUWn3Bf56pTF7heApQCAbAH1q/Q2S99tC+AqmBmKWHu61nzltmulwDFRgCM0/oVWiqjb7reAaDArJkfWfP7rqffPMP1FKCYCIBxaHtUM2T0M0kJ11sAFJ61eo0NgvsGnz5jkustQLEQAGNkrYwJdZ2kma63ACgmc2A6SP+uv+30FtdLgGIgAMZo/Up9XFZvdr0DQEkszqXzv+548sxG10OAQiMAxmDDwzrASJe63gGgdKzMa4PE4J227eI611uAQiIAdpO1CmykayRxJwB4xsoe25V57E772AdqXG8BCoUA2E0bH9JHxYf9AP6y5vjuxs7brL047noKUAgEwG5oe1QzrNGXXO8A4JZVdGr380/cZK3lvhMVj3+Jd0OQ06WSml3vAOCejcJ/7Fnz9huttcb1FmBPEAC7sOFhHWGN3uN6B4DyEdnwX7qfP+O/iQBUMgJgF6JQl4o/JwCvYqPM2T1rz/iG6x3AePHAthMbHtZRxuhNrncAKE82yny86/l3fdH1DmA8CICdsBEv/AOwY9bK2DD1uZ61//pZ11uAsSIAdmDjCr1W0rGudwAoeyYMh7/UueYfz3U9BBgLAmAHokDnud4AoEJYG5godXn38+/+oOspwO4iALZjwwNaIKvTXe8AUDmsbCyKhr/Vv+4s3jWEikAAbE9M75cUcz0DQIWxUSKb7b2ma+173+V6CrArBMCr2PsVt9J7Xe8AUKFsVKtw8Prute8/zfUUYGcIgFfZUKfTJM10vQNA5bI2bLBh9009L77/BNdbgB0hAF7N6l9dTwBQ+awNm22+56fdbR96g+stwPYQAC/z3INqlnSK6x0AqkMU5SdGmc6f9qz72OtcbwFejQB4mbpAb5VU73oHgCpi85OjzJZf9rd9+lDXU4CXIwBexljxoh0ABWeVm57LvHhn74bzDnS9BfgLAuAl9lbFrBEv2AFQFNbmZoXpdb8a3PTFRa63ABIB8FcbZut1kia73gGgetkoPS+TWnVnX/tlc11vAQiAvwh0vOsJAKqfDdOLwpHH70luvGqW6y3wGwHwF1bLXU8A4IcoTO0/mn7wzuGOb09zvQX+IgC07Ss9Jb3e9Q4A/ojC0UPTQ7+/a2jzDTz1CCcIAEltK7SPpEmudwDwSxQmj8ikf32b7b1rgust8A8BIMnExPtzATgR5YaO7um9+efWPt3kegv8QgBIMpEWu94AwF9ROPjGnhcu/Ym1m/ggMpQMASBJRnw4BwCnovzgyb0vfP5Ga22t6y3wAwGwzQLXAwAgzPe+o/fFf7/WWptwvQXVjwDYZm/XAwBAksJc15l9bR++2lpb43oLqpv3AbDpIU2SNNH1DgD4i3xmy7/3tp19hbU27noLqpf3ARAFmuF6AwC8WpTd/NG+to9dSgSgWLwPAJPn8/8BlB9rZcLshk/2t330Emut9/fVKDzv/6WKAk1xvQEAtsdamVx20/m9Gz51ARGAQvP+XygjNbveAAA7ZG0Qpdb+Z9/6C86x1hrXc1A9vA8AWfGeWwBlzcrGw/TTXxvY/LmPEgEoFO8DwEq81QZA2bOy8Wzy6a8NbLrofUQACsH7ADCGAABQIWxUm02uvmqo/bJ/cj0Flc/7AIgkShpABQkbMsOPXDuw4UtnuF6CyuZ9AABApbE2bMymHr92qOMbb3W9BZWLAACACmRtbmJ68KHvjWy+8o2ut6AyEQAAUKFslJkymnzgR/1br3qD6y2oPAQAAFQwG2Wm5oYe+OFgx/VHut6CykIAAECFs1FqVnrw3luSXT86zPUWVA4CAACqQZTce3Tglz8d6bh1sespqAwEAABUiSgcWZAauv3WdPed+7jegvJHAABAFYnC4f2G+2+5NTXwyHzXW1DeCAAAqDJROHDISPd//3R09NE5rregfBEAAFCFovzA4aPt377FJp+b5XoLyhMBAABVKsz1LOvd+vUbre2Y5noLyg8BAABVLMx1Ht/XdtGN1g5Ndr0F5YUAAIAql89sPbG37TPXWWtbXG9B+SAAAMADYWbL2/rXf+Jqa+1E11tQHggAAPBELr3uX/o2fOqb1tpm11vgHgEAAB7Jp55/X/+GT19hrW1yvQVuEQAA4Jl8es2/D2z83JestQ2ut8AdAgAAPGOtTHZ09TmDmy/5PBHgLwIAAPxkMsnHPzOw5QvnW2vrXI9B6REAAOAra4Pc8J8+O7jl8v+w1ta6noPSIgAAwGNWNp4Zfujioa3/9WFrbcL1HpRO3PUAAIBrUSI99LvLAhsPrbXfMcbkXC9C8REAAADJRrWjQ7+5zMYSKWvt940xedeTUFwEAADgJWFDeuCeKwJTn7HW3myMCV0vQvEQAACAv7I2P2G0//arrAmy1tqfGGMi15tQHAQAAOAVrM1NTPXf/t+xoD5rrf0FEVCdCAAAwN+xUWbKSM8t/2ODhoy19m5jjHW9CYXF2wABANtlbXrGaPf112SG7jvRWmtc70FhEQAAgB2KotTsoY7rvpMeeOAYIqC6EAAAgJ2yUXLecPe3v5cefmS56y0oHAIAALBLNhxZMNJx1bXZwSde53oLCoMAAADsligc2m+g8xvXZJNrD3e9BXuOAAAA7DYb9h8y2P7lazPDLxzkegv2DAEAABiTKN97+HDnpddY27Of6y0YPwIAADBmYa5rae+6C6+2dnCR6y0YHwIAADAuYXbL8b3rzv8fa1PzXW/B2BEAAIBxC7ObT+htO+9Ka+1c11swNgQAAGCPhJm2t/at//RXrbWzXW/B7iMAAAB7LJ9e808DGy/4srV2lust2D0EAACgILKjT713YNOFX7DWTne9BbtGAAAACiY3uuqsoc1fvNBaO831FuwcAQAAKBhrZdIjf/zIYPvln7LWTna9BztGAAAACs1khld8cnjrNz5prZ3kegy2L+56AACgClkbpAd//2lratLW2m8ZYwZcT8IrEQAAgKKwsvH0wG8+Z1SXsdZ+xxgz6HoT/oYAAAAUUZRIDd55SRDE8tbaa4wxw64XYRsCAABQXDaqTfbd8QUTa0hba28wxoy4ngQCAABQEmFDsufWrwSmPmOtvdkYM+p6ke8IAABASVibnzDc/YOvK4iF1tpbjDEp15t8RgAAAErG2tzE4a4bLldQl7HW/twYk3a9yVcEAACgpGyUmTK89ZorgqAha629wxiTcb3JRwQAAKDkrE3PGGq/8r8m7BXPW2vvMsZkXW/yDZ8ECABwIopSswc3f/ObmdEnT7TW1rje4xsCAADgjI2S84Y3X35FJvPCcdZarkqXEAEAAHAqiob3Gd548ZXKbzzWWhtzvccXBAAAwLkoHNqvu+3zV+TzW5dba3lsKgH+kAEAZcGG/YcMbrzw8ny+fykRUHz8AQMAykaY7X794MbPXK7c0Guttcb1nmpGAAAAykqY7VzWu+m8r0ijS4iA4iEAAABlJ8xuOb6/7fz/lHQIEVAcBAAAoCzlMutP7W/7xCWSDna9pRoRAACAspXLrDutf8N551lrD3S9pdoQAACAspZLPfvPAxsv/DQRUFgEAACg7GVHV713YNNF51pr93G9pVoQAACAipAbfeJ9A5u+co61dqHrLdWAAAAAVARrZbKjj3x4sP0bH7TWvsb1nkrHFy8AACqHtUFm+PfnDnfEQmvtt40xG1xPqlQEAACgslgbpAd++0mruoy19jpjzEbXkyoRAQAAqDhWNp4euPt8E6tLW2t/YIzZ4npTpSEAAAAVKkqk+m67KAjiobX2JmNMu+tFlYQAAABULhvVJbt/+p+BqctYa28xxnS6nlQpCAAAQIULG5I9N18SmIastfZnxpgu14sqAQEAAKh4UZSbONT9v19pVCx8KQJ6XW8qdwQAAKAq2CjXkuy69stBvCFnrf2FMabP9aZyRgAAAKqGtZkpw1u/9eXA1mattXcaYwZcbypXfBIgAKCq2Cg9c6jj619NJf98irV2ous95YoAAABUnShKzU62X/7lMLXmTdbaZtd7yhEBAACoSlGYnN+/6QtfDrObjrfWNrneU24IAABA1Yqi4X36N1xwaRhueYO1tsH1nnJCAAAAqloUDu7f3/a5L4aZ7jdYa+td7ykXBAAAoOpF+b5DB7acf1E+P3i0tbbO9Z5yQAAAALwQZrtfP7TxUxcpn15ura11vcc1PgcAQMXJjDwqI+N6BirT8pHum9479/Xn/971ENcIAACVx+ZlXW9A5bK5M9c/dPH9kq53PcUlngIAAPgnUIvrCa4RAAAAeIgAAADAQwQAAAAeIgAAAPAQAQAAgIcIAAAAPEQAAADgIQIAAAAPEQAAAHiIAAAAwEMEAAAAHiIAAADwEAEAAICHCAAAADxEAAAA4CECAAAADxEAAAB4iAAAAMBDBAAAAB4iAAAA8BABAACAhwgAAAA8RAAAAOAhAgAAAA8RAAAAeIgAAADAQwQAAAAeIgAAAPAQAQAAgIcIAAAAPEQAAADgIQIAAAAPEQAAAHiIAAAAwEMEAAAAHiIAAADwEAEAAICHCAAAADxEAAAA4CECAAAADxEAAAB4iAAAAMBDBAAAAB4iAAAA8BABAACAhwgAAAA8RAAAAOAhAgAAAA8RAAAAeIgAAADAQwQAAAAeIgAAAPAQAQAAgIcIAAAAPEQAAADgIQIAAAAPEQAAAHiIAAAAwEMEAAAAHiIAAADwEAEAAICHCAAAADxEAAAA4CECAAAADxEAAAB4iAAAAMBDBAAAAB4iAAAA8BABAACAhwgAAAA8RAAAAOAhAgAAAA8RAAAAeIgAAADAQwQAAAAeIgAAAPAQAQAAgIcIAAAAPEQAAADgIQIAAAAPEQAAAHiIAAAAwEMEAAAAHiIAAADwEAEAAICHCAAAADxEAAAA4CECAAAADxEAAAB4iAAAAMBDBAAAAB4iAAAA8BABAACAhwgAAAA8RAAAAOAhAgAAAA8RAAAAeIgAAADAQwQAAAAeIgAAAPAQAQAAgIcIAAAAPEQAAADgIQIAAAAPEQAAAHiIAAAAwEMEAAAAHiIAAADwEAEAAICHCAAAADxEAAAA4CECAAAAD8VdDwBQXUxQr3hijmKJWQpqpiqIt8rIyMRbJEk2SslGacnmFOZ6FOU6lc+2K8p1ydqs4/WAPwgAYBzqJp6gIN5a1DMyQ79TmOsu6hl7KlYzQ3UT36BEw6GqaTxMicZDFKuZPr4bs6FymXXKjT6tXOpZZUceU2b4QYW5rsKOBiCJAADGpXXupUo0LSnqGZ1PH1uWAVDbvEwNk96muoknKdF4sCRTmBs2MdXULVJN3SJJp//1L+dSzyk99Dul+m5XevB+rhIABUIAANilWGIvNU37NzVOPVM1dfuU9Oya+v1UU7+fmqd/SFF+QKn+OzTS9T2lh34vyZZ0C1BNCAAAO1RTt48mzD5fjVPfLWNqXM9REG9R49Qz1Tj1TOVSz2mk87sa6bpOUTjsehpQcXgXAIC/E0vM1pSFN2rWoc+oadr7yuLB/9Vq6vdT67xvavbh6zRx9vkysSbXk4CKQgAA+CtjEpow+zzNPvQ5NU59t2RiriftUhCfopa5l2qvw9vUPP1D4m4N2D38lwJAklTTcKBmHvyYWudeVpG/TQfxKZq04NuaufgR1Ta9zvUcoOwRAADUOPU9mrn4EdU0LHY9ZY8lmpZoxuKHNWnelTIm4XoOULYIAMBjJqjVlIU3asrCG2SCRtdzCsioeeY5mnHQipK/awGoFAQA4KkgPlnT9v/1tuf6q1SiaYlmHPyY6ltPdT0FKDsEAOCheO1czTz4j6qbcIzrKUUXxJo1bd/b1TT9A66nAGWFAAA8E6uZrmn736t47XzXU0rHxDV5wXc1YfZ5rpcAZYMAADwSxCdp+oH3q6Z+P9dTnGide6maZ3zE9QygLBAAgDcCTVl0k2rq93c9xCGjSfOvUsPkM1wPAZwjAABPtMy5SPUtp7ieUQaMpiy8vire8gjsCQIA8ECi8QhN3OvzrmeUDRM0atq+P1cQa3Y9BXCGAACq3rbL3vzn/krxuoVqmfsV1zMAZ7hHAKpc09T3qLZ5qesZZal5xtmqbV7uegbgBAEAVDXDW992KtCk+d+SZFwPAUqOAACqWH3rqZ6/6n/XEo2Hq2HS21zPAEqOAACqWPOMs11PqAgT51wirgLAN3HXAwAURxBrVt2E413PUBQOKsp1KwoHJWsV1ExREJ9cVq/ATzQcrLoJRys99AfXU4CSIQCAKlXXcqJMUFvyc22UVmrgLo32/kSZ4UeUz7Rt958L4lNUN/FY1U04Tg2TTlcsMbvES1+padq/EwDwCk8BAFWqbuIJJT7RaqTzGm3582vUveYdSvbcssMHf0mK8j0a7f2Z+to+qi2PL1Dvi2cpl3q2hHtfqWHyO2ViTc7OB0qNAACqVKLh4JKdZaOMep7/Z/Wu+6DCbPvYf95mNdJ1vdqfXKyBTRdLNl/4kbtggvqyeMoEKBUCAKhKRjUNB5XstIGNn1Wy98d7fkM21ODmS9Tx9BvGFRJ7qr6Vj0qGPwgAoArFaqYpiE0oyVn59Asa2nplQW8zM7xCnc+coDDXXdDb3ZkoHFaU6yrZeYBrvAgQqEJBbGLJztr2m39U8NvNpZ5V17MnavqBvyvq/59c6lkNd1ytZPeNisKhop0DlBsCAKhCJl6a3/4lKTdavBfuZZNPqK/tHE1ZeEOBbzlSqv8uDW29UunB30iyBb59oPwRAEAVMkF9yc6yNlvU2092/0CNk89Qfetb9vi2wlyHRjqv1XDndxVmtxRgHVC5CACgCtkoVbKzaur2KfoZves+rNmHvWncn2uQGXpAwx1Xa7TvtqIHC1ApeBEgUIVsmCzZWU3T/5+MSRT1jDC7WcmeH47pZ2yUVrL7Rm1ddag6nj5Gyd4f8+APvAwBAFQhG46U7Kx47Xy1zP1i0c8Zar9Cu/NcfS71nPraztHmx2ao54X3KJt8sujbgErEUwBAFQrzvdr2YFmaL7iZMOszkqSBjRfK2lxRzsilnlF66A+qm3Ds3/9Nm9do/x0a7rha6cHfihf1AbvGFQCgCtlotOQvcpsw6zOasXilEk1LinZGqu8Xr/jfYa5Tg1u+rC2PL1D3mn/gFf3AGBAAQJXKpZ4v+ZmJxiM0c/EfNW3/e1TfcrJkYgW9/dH+bQGQGV6hnrX/oi1/mquBjRcqn91U0HMAH/AUAFClcqnnVDfRzWfb17ecpPqWkxRm25XsvUWp/nuUGX5ANkrv0e3m0+vU/sT+yqWeK9BSwF8EAFClMsMPqnnG2U43xBKzNGHmuZow81zZaFTZ5J+VTT6p7OgTyiWfVHb0adlobO9Y4MEfKAwCAKhSf3s+vDQvBNwVEzSotnm5apuXv+yvRsql1iozslKZoT8oPfSA8ukXnG0EfEIAAFUqzHUpm1ylROMhrqfsRKCa+n1VU7+vmqb+m6Rtl/nTg/dptP9XSg/cy3v3gSLhRYBAFRvt/YnrCWMWr1ugpukf0LT9fqm9lnRoyqKb1Tjln0r27YaALwgAoIqNdF1XtPfll0IQb1XjlH/WlEU/0l5LOjVtvzvUMPmMon/yIOADAgCoYmGuQ6m+X7qeURAmqFN961s0dZ9bNfuITWqde5nitfNdzwIqFgEAVLnB9sskRa5nFFSsZpomzD5Psw9bq6n73qbapte7ngRUHAIAqHLZkcc00nWD6xnFYWJqmHS6Zix+WDMOelD1rW91vQioGAQA4IGBjRcoCodczyiq2ublmrbfLzXjoAe2fQohgJ0iAAAPhLkO9a//hOsZJVHbfJSm7X+3Zhz0kGrq9nE9ByhbBADgiZGu65XsucX1jJKpbV6qmYc8oeaZH3c9BShLBADgkb62s736KF0T1GvSvP/S5Nd8r+BfTARUOgIA8EiU71fnMycon9ngekpJNU17n6YuulnG1LieApQNAgDwTJjdoq5nT/HuK3QbJr9LUxb9SNztAdvwXwLgoVzqWW198nClh37nekpJNUx+h1rmfsH1DKAsEACAp6J8j7qeOUlDW7+havugoJ2ZOPsCNUz6B9czAOcIAMBj1mbVv/6TL70uYKPrOSViNHnh9xWve43rIYBTBAAApQfvV/sT+2tw8yWyUcb1nKILYs2avOBaScb1FMAZAgCAJMlGoxrYdLG2rjpMo32/cD2n6OomHqfGqf/qegbgDAEA4BVyqWfVveZ0daw+UqmBeyVZ15OKpnXvbyiIT3I9A3CCAACwXZmRR9T17Mna+uShSnb/oCqfGojVTNWEWZ90PQNwggAAsFPZ0VXqeeG92vL4HPVv+LRy6eddTyqo5hkfUxBvdT0DKDkCAMBuCXPdGmr/utr/vK+2rlqikc5rZKOU61l7LIg1q2nqv7meAZQcAQBgzLLJP6l33Qe1+U97qWftu5Xs/bGi/IDrWePWNO0s1xOAkou7HgCgckX5PiV7fqhkzw9lTI1qJxyt+ta3qr71VNXULXI9b7fVNBykeO085TPrXU8BSoYrAAAKwtqc0oO/Vf/6/1D7n/fRlscXqHfdBzXa+xNF4aDrebtU33KK6wlASREAAIoin2nTSOc16n7+Xdr8x2nqfOaNGt76rbL9JsL61je7ngCUFE8BACg6a7NKD/5W6cHfSus/rkTj4WqY9HY1TH6Haur3dz1P0rYPBpKJSTZ0PQUoCa4AANglE9QX9Payycc1sOnzan/iAG1ddYSGO66WjUYLesZYmaBR8cRcpxuAUiIAAGxHoETTEk3c6/OacdBKzVz8aNFOyiYfV1/bR7Xl8XnbvpnQ5ot21q7U1O/r7Gyg1HgKAIAkKYhPUn3LiapvOUV1LScrVjPtr3/PRhnJxIv64BzmutW//pMa6fq+piy6SYmGg4t21o7E6/eVBu4p+bmACwQA4C2jRONhqm85RfWtp6i26chtz4Fv758MapVoOETZ5J+Kvio3ulodq5dpysLr1TD5jKKf93I1dfuU9DzAJQIA8EgQb1HdxDf99UE/VjNjt3+2bsKxJQkASbJRUt1r/1lTorQap55ZkjMlveKqB1DtCABgHExQ63rCbjJKNB6y7QG/5RTVNi/ddil/HBomv33bc/SlYkP1rnu/Ek2vVU39fiU50sQaS3IOUA4IAGAcSvEVsnacX8MbxCaqruWEvz7oxxKzCrKntnmZ4nULlE+vK8jt7Q4bZTSw8bOauu9tJTkvCJpKcg5QDggAYByC+OTiHzLWr981MU0/4D7VNi+XMTVFGBSoecZH1L++tF+fm+q/S1F+QEG8pehncQUAPuFtgMAYxWvnywR1RT/HRukx/kCoRMMhRXrw36Z5+gcVS8ws2u1vj7VZ5VLPluQsExAA8AcBAIxR3YRjSnJONI6v2g2zW4qw5G9M0KiWOV8s6hnbE+V7S3KOtWO86gJUMAIAGKO6lpNLcs54Phkvn91chCWv1DTtLNW3nFj0c14uKNGr8204XJJzgHJAAABjEK9boMbJ7yzBSVZRrnvMP5UbXV2ELa9mNHnhjYon5pTgLEkmrpq6hSU5KiIA4BECABiDlr0uGffb6MYizHXL2uyYfy4z/HAR1vy9WM00Td3vDgXx1qKfVd9ycknedSFpXNEFVCoCANhNzdM/rMap7y7JWWG2fVw/lxkpTQBIUqLxEE3b/56ifniOMTWauNeFRbv9V8ulnivZWYBr7D5SSQAADh9JREFUBACwG5qnf1Ct868s2XlhduM4f65dudSaAq/Zsdqm12nmwY+rtnl5UW6/Ze/LVdv0+qLc9vYQAPAJAQDsRLxuoabu81NNWvCdor697tWyyVXj/tnR3lsLuGTXYonZmn7g/Zow81wV6i7FmIQmv+Y6TZj5iYLc3u7KjT5V0vMAlwgAeKOm/oDdes46XrdIjVPP1LT97tDsw9aoYfI7SrDulbKjT4z7Z5MlDgBp26X61nlXaObBf1TdxDfu0W3VTTxBMw/+k5qmnVWgdbsnzG5WLv18Sc8EXOKTAOGNafv9QvG6hYryfcpnNslGo7JRUtbmFMQmKIi3KlYzo2QvONuZbHL8AZAbfUrZ5JNKNB5SwEW7J9F4uKYfcJ+yI49ppOt7Gu37qcLdeGFdEGtWw+R3qmnq+1Q74egSLP17qYF7nZwLuEIAwDtBfJISZfAgvyNhdssef97+0Nava8rCGwu0aOwSTUs0qWmJJi24WrnRp5VN/lm59IuK8r2yNqsg1qwg1qJYYrZqm5aopv6AHX4VcamkBu5xej5QagQAUGa2/SY6vi8C+otkzy1qmfNFxWvnFWTT+BnVNBykmoaDHO/YuSjfq1T/r1zPAEqK1wAAZSY98Os9vxGb19CWr+757XhipOv6sX/3AlDhCACgjNgopdRgYZ6LHu66Vtnk4wW5rapmQw13XuN6BVByBABQRkZ7f6ooP1CYG7Ohetd9SFJUmNurUiPd31c+vdb1DKDkCACgjIx0XVfQ28uO/FHDHf9T0NusJjZKamDTRa5nAE4QAECZyCafVHroDwW/3f4Nn+KpgB0Y3HzpuD92Gah0BABQJrb9Jrpnr/7fHhtl1L3mHxTl+wp+25UsO/JHDbVf7noG4AwBAJSBzMijSvXfUbTbz2c2qGftv4zrGwarURQOqfv5f5S1OddTAGcIAMA1G6q/7RwV47f/l0sN3KveF94r718UaEP1vvAe5TNtrpcAThEAgGOD7V9TZuSRkpyV7LlFfes+qmLHRvmy6m37sEb7fuF6COAcAQA4lE0+ocHNF5f0zOHOb6v3hbMkmy/pueVgYOPnNNJ5resZQFkgAABHwuxWda95m2yUKfnZI93fV+ezb5YNR0p+thM2VF/bRzW45VLXS4CyQQAADtgoqa41pymf2ehsQ3rw/9T5zAlON5SCjVLqfv4MDXdc7XoKUFYIAKDEony/Op85SdmRx1xPUWbkEW1ddVjVPieeSz2jjqeWa7TvNtdTgLJDAAAlFGbb1fn0G5QZXuF6yl9F+T51r3m7+trOkY2SrucUiNXw1m9p66olyib/7HoMUJYIAKBE0oP3aeuqw5UdXeV6ynZYDXdcpfYnDtBo3+2ux+yRbPJP6nj6WPWt/7hslHI9ByhbBABQZDYaVf/G89X5zEkKc52u5+xUPrNR3Wverq7nTlNu9GnXc8YkzLar94X3aeuq1ykz9IDrOUDZi7seAFSzVP+v1Nf2MeUz611PGZNU/x1K9f9K9a1vUcucS5RoPMz1pB3KpddquONqjXRew2/8wBgQAECBWZvVaM+PNbT1mxX+/LN9KQTuVH3ryWqa9n7Vt54qY2pcD5ONRjXaf4eSXd9XauBe+fvBRsD4EQBAQUTKDD+i0b6fK9lzc5V9w1ykVP9dSvXfpVjNDDVOPVMNk05TbdNSycRKtyI/oPTQ7zTa9zON9t3uz2cYAEVCAMAbPWv/VYnGw1TTsFg1DQcqXrtA8cTscT2I2Sij3OhqZUYeVmbkEaUHf1tlD/rbF+Y6NNT+NQ21f01BfJLqW05W3cTjlGhcokTDQZIp0F2KDZXLrFMuuWrbn+/Q/duuptiwMLcPgACAPzIjjyoz8ugr/poxNYol9lIsMUNBfJKC+GSZoE5BbKJktr1G1obDslFWUdivMLtV+cx6hdmt8v2yc5TvU7LnZiV7bpYkmaBeiYaDFa9fpHhijmK1cxVPzJEJahXEWiRToyDWrCjsf+nnB2VtXlGuU2GuQ/nsFkXZDuXSLyiXeobn84EiIwDgNWtzymfa+Ga4ArBRSpmRR0r2xUYA9gxvAwQAwEMEAAAAHiIAAADwEAEAAICHCAAAADxEAAAA4CECAAAADxEAAAB4iAAAAMBDBAAAAB4iAAAA8BABAACAhwgAAAA8RAAAAOAhAgAAAA8RAAAAeIgAAADAQwQAAAAeIgAAAPAQAQAAgIcIAAAAPEQAAADgIQIAAAAPEQAAAHiIAAAAwEMEAAAAHiIAAADwEAEAAICHCAAAADxEAAAA4CECAAAADxEAAAB4iAAAAMBDBAAAAB4iAAAA8BABAACAhwgAAAA8RAAAAOAhAgAAAA8RAAAAeIgAAADAQwQAAAAeIgAAAPAQAQAAgIcIAAAAPEQAAADgIQIAAAAPEQAAAHiIAAAAwEMEAAAAHiIAAADwEAEAAICHCAAAADxEAAAA4CECAAAADxEAAAB4iAAAAMBDBAAAAB4iAAAA8BABAACAhwgAAAA8RAAAAOAhAgAAAA8RAAAAeIgAAADAQwQAAAAeIgAAAPAQAQAAgIcIAAAAPEQAAADgIQIAAAAPEQAAAHjI+wAIrCLXGwAApcV9PwGgKFDO9QYAQGlFRhnXG1zzPgCMVdb1BgBAiUUEgPcBIKO06wkAgNIyAb/8EQCRBlxPAACUXJ/rAa55HwDWqtf1BgBAaUXc9xMA8UA9rjcAAEorFnLf730A1GbU4XoDAKC0aieo0/UG17wPgGnHaUSWEgQAj3TNOERJ1yNc8z4AJElG611PAACUhhH3+RIBIEkyVi+63gAAKA1rtM71hnJAAEiy0lOuNwAASma16wHlgACQFARa5XoDAKA0DAEgiQCQJIUiAADAFxEBIEkyrgeUi/UPqV3STNc7AABF1TlvmWa4HlEOuALwNytdDwAAFJnRg64nlAsC4C+MVrieAAAouodcDygXBMBLbKTfut4AACiuKK/fuN5QLngNwEusldmwUpslzXK9BQBQFB17L9UsY2RdDykHXAF4iTGyMrrX9Q4AQJEY3c2D/98QAC9jrX7pegMAoEis7nA9oZwQAC+TH9DdkgZd7wAAFNxwTLrH9YhyQgC8zKI3KyNxFQAAqtDtc5Yp5XpEOSEAXsVKP3S9AQBQYEY/cj2h3BAArzJvqf5PfFUkAFSTzXtv0q9djyg3BMCrGKPISNe73gEAKAxrdZ15l0LXO8oNAbAdJtL/Ssq63gEA2GP5sEbXuR5RjgiA7Zh7lNqNeL4IACqe1Y8Xvk6bXM8oRwTADhirr0t8YAQAVLRA33A9oVwRADswd7meknSX6x0AgPEx0r3zlupx1zvKFQGwM0YXiasAAFCRokgXu95QzgiAnXipHH/hegcAYMx+Nf8oPex6RDkjAHbBBPqcpLzrHQCA3RZG2+67sRMEwC7sfaSekdW3Xe8AAOweI1274Eitcr2j3BEAuyFmdLGkXtc7AAC7NJDN6yLXIyoBAbAb5ixTn6TPuN4BANg5a/TZRceo2/WOSmBcD6gU1sqsf0j3GqM3ud4CANgOo4f3PlLLjVHkekol4ArAbjJGNiZ9WFLS9RYAwN9JSzqLB//dRwCMwdzletFY/YfrHQCAVzJGn5m3VM+63lFJeApgHNoe0o+N9C7XOwAA2z7xb+5SnWIMH9w2FlwBGIf4tqcC1rveAQDQljDQe3nwHzsCYBzmLFNfFOp0SaOutwCAx3Im0D8tOFKdrodUIgJgnBYcrSet0Udc7wAAj/3H3kfqQdcjKhUBsAfmL9X3jXSZ6x0A4BsrXTNvma52vaOSEQB7aO5SXSCjm1zvAACP3D0vwxXYPUUA7CFjZG1a75d0n+stAOCBlXWNOsMcx5e07SneBlgg7Y+pIZfV3VY6xvUWAKhSq2LScS99PDv2EFcACmTWEo3mEzrNSI+63gIAVeipvNWbePAvHK4AFFjHk2pMJ/VLSce73gIAVeLxREInzVqiHtdDqglXAApsxiFKJhJ6q6R7XG8BgEpnpQfChI7nwb/wCIAimLVEo3tn9FYjfcf1FgCoWEY/i0snvWaJBl1PqUY8BVBk61fqAll9SfxZA8Bus0ZfnXekPstH/BYPD0olsP5BvVmBbpLU6noLAJS5lDX68PylusH1kGpHAJTIiw9rURDpZ0Za7HoLAJQlq+djRu+cs0yrXU/xAa8BKJHXHKm1yuh11uirkiLXewCgzNzYkNURPPiXDlcAHFi/UqfI6n8lzXK9BQCcsuoxRmfvvUw/cT3FN1wBcGDeUt0dJnSANfqWuBoAwF8/yYU6gAd/N7gC4Ni6FTomCPQtWR3iegsAlMgaK318/jLd63qIz7gC4NiC5frD3pt0hJU+JKnb9R4AKKIBa3RuT0KLefB3jysAZaTrfjWlEvqINTpPvGUQQPVIWqPrwkhfXrhcXa7HYBsCoAxteECtUaCPG+kjMprieg8AjNOgNfpOPqcrFh3DFc5yQwCUsfbH1JDN6N8kfVxG+7jeAwC7ab2MrkqHuna/ozTsegy2jwCoANbKrH9Yxxqr90v6B0l1rjcBwKtkJf3SSv87b6n+zxje4VTuCIAK0/6YGnJZnWql90g6UVLC9SYA3golPWykn+SsfsTz+5WFAKhgLz6mibGMTpB0spFOskZzXG8CUPW2Gqt7o0D3xK3+b84y9bkehPEhAKpI20rNCyIdZaVlMjpc0kGSGl3vAlCxRq30tKQ/B9IKY7Vi7nK96HoUCoMAqGLWKti8UgtCq31lNF9W863RXkaaZqXJRposqV5STNIEx3MBlM6Qtl2+T1mp10i9krpltckEWi+rtnygNQterxd5Lr96/X9n+9ZvgYT2JwAAAABJRU5ErkJggg==;" vertex="1" parent="1">
          <mxGeometry x="667" y="374" width="36" height="36" as="geometry" />
        </mxCell>
        <mxCell id="pYpf6Nf2uUUaodTvFNSU-42" value="" style="shape=image;verticalLabelPosition=bottom;labelBackgroundColor=default;verticalAlign=top;aspect=fixed;imageAspect=0;image=data:image/png,iVBORw0KGgoAAAANSUhEUgAAAgAAAAIACAYAAAD0eNT6AAAACXBIWXMAAA7DAAAOwwHHb6hkAAAAGXRFWHRTb2Z0d2FyZQB3d3cuaW5rc2NhcGUub3Jnm+48GgAAIABJREFUeJzt3XuQlfWd5/HP71z6atNcmosoBkyEaLzGSxSDIwIaUIM0sVO1yabK0TAmmUxqaqoyk6pMhd3NVHZnZ3ZnN9GMm8Sk5pKKJHSDbFCjgjeCQlZFQYkGBRGQm0B3Q1/O6fPbPw5E5SJ9zvmd83ue5/d+VaUmNXCe59vpbp73eS6/YwTU2COP2OYjR3KfsNaeJ6UmG2unGGMnWGvaJI2R0Zijf7VFUsbjqEDJCgVp92778Fe/Vj/X9yzAhzG+B0Cy3XefzY4bl7tMBU03xky31l4mo3MlpXzPBlRDoSD94XWrlhEiAhBpBACce/DBvimFXHquNXaurJkpo2bfMwG1ciwAJBEBiDQCAE4sXdr3EWMyHUb285Iu9z0P4Mv7A0AiAhBdBADKtmSJrctkBucb6UuSmSsp7XsmwLfjA0CSRrSYR7/y53U3ehoJOCkCACVbscK25QfzX5GxX5M03vc8QJScLAAkzgQgeggADNuKJUfOGspkvmWlOyQ1+Z4HiKJTBYBEBCBaCACcVmenHWdM7lvG6m4rNfieB4iyDwsAiQhAdBAAOKWjj/B9VVb/SVKr73mAODhdAEjcE4Bo4FlsnNSyX+VuGteWe0VW/yQO/oBT3T12zg++P/Cw7zkQNs4A4AO6uuxIFXL/TUZfFj8fQMmGcwbgmDPOMI997et1c6o8EnBSnAHAHy1bmpstm9sso0Xi4A9UXW+vnc2ZAPjCP/LQkiU2nU0P/q2M+bZ4lh+oSClnAI7hTAB84AxA4Do77bhsJveQjPmOOPgDXvT22tn3fH/wUd9zICwEQMCWLc3NNsq9LIl3HoBnXA5ArREAgVrWOfgla+xKSeN8zwKg6HCvbuJMAGqFAAhQV9fgN6z0M0lZ37MA+CAuB6BWCICAWGvNss6Bvz/6bD83gAIRRQSgFjgIBGL1aps5eCB3n6Q/9T0LkGTlPAVwKjwdgGriDEAAFi+2qUMH8j8XB38gVnp77ex7f8CNgagOAiAAl16c+59W9nbfcwAoXU8PNwaiOgiAhOtaOrDYSn/hew4A5eOeAFQDAZBgnZ2Ddx9d4AdAzBEBcI0ASKiuroGFRrrH9xwA3OGeALhEACTQ8uX9H5M194vvL5A43BMAVzhAJMxPf2obCoXUEkkjfM8CoDq4HAAXCICEGTki979kdZnvOQBUFxGAShEACdLVNdAho0W+5wBQG0QAKkEAJMSvftV/nqz5se85ANQWNwaiXARAAixebFPpVOonklp8zwKg9rgxEOUgABLg0otyd0ua4XsOAP5wOQClIgBibskSO8Eafc/3HAD843IASkEAxFw2nfueeOQPwFFcDsBwEQAxtnTp4Cdl9CXfcwCIFi4HYDgIgBgzRv8gvocAToIIwOlw8Iipzs7cDUaa6XsOANFFBODDEAAxlZL9z75nABB93BiIUyEAYqizM/cnVrrW9xwA4oEbA3EyBEAMGau/8j0DgHjhcgCORwDETGdn/1QZe7PvOQDETzECBh7xPQeigQCIndTd4vsGoEy9vbqRMwGQOJDEysqVtt5IX/Q9B4B443IAJAIgVgYGBtsljfU9B4D443IACIAYMVZf8D0DgOTgckDYCICY6OqyI63MHN9zAEgWLgeEiwCIjdxtkup8TwEgebgcECYCIC4K5hbfIwBILi4HhIcAiIHVq21Gxs7yPQeAZOvttbN/eM/gY77nQG0QADHQ/W5+uqSRvucAkHzd3XbWvfdwOSAEBEAMDBld73sGAOHo6daNnAlIPgIgBowKfPAPgJrq7raziIBkIwAibvFim5LMp3zPASA8XA5INgIg4i68cHCqpFbfcwAIE5cDkosAiLh0Whf7ngFA2LgckEwEQMQZSwAA8I8ISB4CIOIKSk3zPQMASNwTkDQEQMQZ2Sm+ZwCAY7gnIDkIgOib7HsAAHg/LgckAwEQYStW2CZJY3zPAQDH6+62s+75weBvfM+B8hEAUdbX3+Z7BAA4ld4eO4czAfFFAETYYDpNAACINC4HxBcBEGGplBnlewYAOB0uB8QTARBh1ppG3zMAwHBwOSB+CIAIM2ao3vcMADBcXA6IFwIgwqxV1vcMAFAKLgfEBwEQbWnfAwBAqbgcEA8EAADAOS4HRB8BAACoCiIg2ggAAEDVEAHRRQAAAKqKCIgmAgAAUHVEQPQQAACAmiACooUAAADUDBEQHQQAAKCmiIBoIAAAADVHBPhHAAAAvCAC/CIAAADeEAH+EAAAAK+IAD8IAACAd0RA7REAAIBIIAJqiwAAAEQGEVA7BAAAIFKIgNogAAAAkUMEVB8BAACIJCKguggAAEBkEQHVQwAAACKNCKgOAgAAEHnd3XbWvd8ffNz3HElCAAAAYqGn195ABLhDAAAAYoMIcIcAAADEChHgBgEAAIgdIqByBAAAIJaIgMoQAACA2CICykcAAABijQgoDwEAAIg9IqB0BAAAIBGIgNIQAACAxCACho8AAAAkChEwPAQAACBxiIDTIwAAAIlEBHw4AgAAkFhEwKkRAACARCMCTo4AAAAkHhFwIgIAABAEIuCDCAAAQDCIgPcQAACAoBABRQQAACA4RAABAAAIVOgRQAAAAIIVcgQQAACAoIUaAQQAACB4IUYAAQAAgMKLAAIAAICjQooAAgAAgPcJJQIIAAAAjhNCBBAAAACcRNIjgAAAAOAUkhwBBAAAAB8iqRFAAAAAcBpJjAACAACAYUhaBBAAAAAMU5IigAAAAKAESYkAAgAAgBIlIQIIAAAAyhD3CCAAAAAoU0+vveHeewZX+Z6jHAQAAAAV6Om2M+MYAQQAAAAVimMEEAAAADgQtwggAAAAcCROEUAAAADgUFwigAAAAMCxOEQAAQAAQBVEPQIIAAAAqiTKEUAAAABQRVGNAAIAAIAqi2IEEAAAANRA1CKAAAAAoEZ6uu3Me38QjQ8QIgAAwKEU/6riNHp6ovEBQvyoAoBj6bTvCRB1UTgTQAAAgGPZOt8TIA56euwNPiOAAAAAxxobjO8REBM+LwcQAADgWHOz9T0CYsTX5QACAAAca2wySqc5C4Dh83EmgAAAAMeMkUaN4iwASlPrdQIIAACogpEjDU8DoGS1vBxAAABAFaTSUttYLgOgdLV6OoAAAIAqaW2VRrT4ngJxVIt7AggAAKiicROMGup9T4E4qvblAAIAAKoolZLOmkQEoDzVvBxAAABAlaXT0tnnGLVwOQBlqFYEEAAAUAOplHTmRKPxE3g6AKWrRgQQAABQQ62t0pQpRm1tUibDUwIYPtcRQAAAQI2l0tLoMUZTzpXOmiSNGmXU0MCnCOL0XEZAxsVGAAClM0ZqbjJqbpKk984GDA15GwnxcMPKlXbEvHmmu5KNEAAAEDGcCcDp9Paq4utHXAIAACBABAAAAAEiAAAACBABAABAgAgAAAACRAAAABAgAgAAgAARAAAABIgAAAAgQAQAAAABIgAAAAgQAQAAQIAIAAAAAkQAAAAQIAIAAIAAEQAAAASIAAAAIEAEAAAAASIAAAAIEAEAAECACAAAAAJEAAAAECACAACAABEAAAAEiAAAACBABAAAAAEiAAAACBABAABAgAgAAAACRAAAABAgAgAAgAARAAAABIgAAAAgQAQAAAABIgAAAAgQAQAAQIAIAAAAAkQAAAAQIAIAAIAAEQAAAASIAAAAIEAEAAAAASIAAAAIEAEAAECACAAAAAJEAAAAECACAACAABEAAAAEiAAAACBABAAAAAEiAAAACBABAABAgAgAAAACRAAAABAgAgAAgAARAAAABIgAAAAgQAQAAAABIgAAAAgQAQAAQIAIAAAAAkQAAAAQIAIAAIAAZWq1o0WL7EeHhrTASLMkTZI0QdKYWu0/jlb+2vcEAJIsm5Ua6q0aGqS2toImTLBqara+x0KNVD0A7rrLXi+r7xWGdLWp9s4AAMOWy0m5nFFPr7R3X1qvbpZGjrL6+LQhjRlDCCRd1QLgjjvs2LTR/bK6pVr7AAC4dfCA0bPPZjRurNUll+ZVV+d7IlRLVe4BuPNOe2E6pedkOPgDQBzt2Wv09NMZHTrEudukch4Ad91lL05JayRNcb1tAEDt9PcbrV2b0aFuIiCJnAbAokW2TVZdVhrhcrsAAD+GhqTfrU+rv58ISBqnAWCH9O+SznW5TQCAX/39Rhs2pH2PAcecBcCdd9rPWOlGV9sDAETHvn1Ge/ZyFiBJnAWAkb7nalsAgOjZvDkty9OBieEkAL78ZXuppEtdbAsAEE093Ubd3BCYGE4CwFrd5mI7AIBo2/0OK8gnhZvvpNVsJ9sBAETa3v2cAUgKVyn3EUfbAQBEWN8RAiApKg6AxYttStJ4B7MAACJuYEDcCJgQFQfA66/rDElZB7MAAGIgl/M9AVyoOACam8X5IAAAYobbOQEACBABAABAgAgAAAACRAAAABAgAgAAgAARAAAABIgAAAAgQAQAAAABIgAAAAgQAQAAQIAyvgdwoblZOvdcqXWEVX2d1NNrtHOntHOXVCj4nq489fXS5CnSmNFWjfXSkT6jPXukbW9J+Xx19pnNSJMnS2PHSk3NVqkE5uGRI9Khg0ZvvCEdPlKdfUw8U5p4ltTcZFUoSAcPGW17S+o+VJ39RYEx0sSJ0oQJ0hlnWMlK+981emt7bb7uTFaafM7Rn91Gq74Baf9+o61bix9eA+BEsQ6AkSOl62ZYTZ1a/AfoPcWPqurukZ55xuiVV+Lz6VX19dL06VaXXSql0+//k+IXMDAgrV9vtP537kIgm5U+dZXVFVcU/3vyWVkrbf699NRTRt3dbrb6sY9KM66zahtz8v29uVVatcrowAE3+4uKadOkGZ+2GjXq+D8pft1vbJFWPWF08KD7fWey0pWXS1deaVVff+L+83nphRelZ9ca9RMCwAdU/EE+ixbZ1sKQqvCr/eEmf0S69bNWDSf80p/olVelhx82Ghqq/lyVGD1aam+3GjXy9H935y5pWZep+F1sS0txn+PGVraduOrvl5Y/aPTWW+Vvwxhp5vVWl19++r+bz0m/fsjotdfK319UGCPddKPVRRed/u/mctKDDxq98aa7/Tc3SwtuszrzzNP/3QMHpKWdyYsvX+bMyamuzvcUYcvlsyM7OkxF59dieZJ3woTiL/5wDv6SdMH50o03RvsUQHOTdPvtwzv4S8XTzO3tVpkK3rHX10uf+1y4B39JamiQ2hdYjRtX/jaumzG8g79UfMd66y1WHz23/P1FxezZwzv4S8UzS7fdZjXpbDf7zmakhe3DO/hL0qhRUsfnrJqa3OwfSILYBUAqJd1yc+kHvgs/IU2dWp2ZXJg922pES2mvmTBBuubq8sPmuhknO10dnmxWunleefc8nHW2dOWVpb0mlZLmzrU644zS9xcVF5wvXXpJaa9Jp6XPfMY6ucw0fbrV+PGlvWZEqzRrVrTfCAC1FLsAuOACneRa4/Bce200f/nHjpXOO6+8117xSamxsfTXtbRIF19c3j6TqK1NmlZGIF5ztT3u/pPhaWwsHgzLea1vI1qkWbPL+10aOVL6xAWV7b+pSfrkJ8t77bSpxe81gBgGwLRp5R/E28ZE85d/2tTyDwSZbPEJiFKdd54SeZd/JUr92WpuLt6LUq4pk6XLLiv/9T4YUzx7MdzLbydz/gWVhfhHz5UyZd6+bEzx9w1ADAPgzAl+X18NE4Z5HfOUr59Q+j9oZ5bxmqSbUOLPxrhxxz99Uro/uc6qLUb3YFx5hXTOOZVtY3yF/7uV8/P+gddX+PsGJEWsAsCY4k1blWhudjOLS5XOdEYZr+dmqBOV+n1ocXANP5OR5n3GHvfIZzSNHSt9+tOVh2M2q5M8sjd8TRX+vkTx3wDAh1gFQDpd+TuudDp673wrPRWfKuPgMThY2T6TqNQFY1xdQhk/vnhTW5Sl08UbJV2FSiW/x5XOEIfYAmohVgEAd97leegTHKj5ahbvuerK4hMFUXXdDKuxMbpUAeD0CIBAvbElhrefV9kWj/+bpFLSzXNPtpqdf+eco2GvcwAgPgiAQO3YKe3Y4XuK6BgclF5+ye8Mra3SDTOjdSmgob54138cH1cE8OEIgIA9vsoon/M9RTQ8+VTlyyq7cOGF0tQy14SohtlzSl+gCkA8EAAB2727uC591D8jodqe/3/Siy/6nuI9N95oI3Gn+gXnS+d/3PcUAKqFAAjca69JDywxevdd35PUXn+/9MhvjB5fHa3z242N0lzPqwRWstofgHiI9ccBw40dO6T7f2o0bZo09Tyrtrbis9KuDkCV3tiWy0sFR2cp+vqkg4ekLW8YbdoY3c+KnzKluNb+Cx7OTLhY7Q9A9BEAkCRZK23eLG3e7PZt56hR0l13VvZO8vHHjV5+2dFAMXL99Vbb3zbat6+2+3Wx2h+A6OMSABBRmYw0b25tVwlsGxPdD80C4BYBAETY+PHSNdfU5oCcTku33GLL/qAdAPFCAAARd/WnpEmTqr8fVvsDwkIAABFnTPGpgGquEjjpbFb7A0JDAAAx0Noqzby+OpcCGuqleTez2h8QGgIAiImLLpKmTXO/XVb7A8JEAAAxMme221UCWe0PCBcBAMRIY6O7D+dpaZFmzeKRPyBUBAAQM1MmS5dcUtk2jCmuMdDQ4GIiAHFEAAAxdP31VqNHl/96VvsDQAAAMZTNSLfcXN4qgaz2B0AiAIDYGj9euubq0g7krPYH4BgCAIixq68uLuIzXKz2B+AYAgCIsWMf3VtXd/q/y2p/AN6PAABirrVVumHmh18KYLU/AMcjAIAEuOgiaerUU/85q/0BOB4BACTEnNlWzU0n/v/P/7jb1f4sDxAAiUAAAB5teMndtpqapHnzPnia/4wWafZsd0fsfF7a9IqzzQHwiAAAPFq3zmj7dnfbmzxZuvjoKoHGSDc7Xu3vyaeM9u/jRgIgCQgAwCNrpZUPGw0MuNvmzKOrBLpe7W/rNumFF9xtD4BfBADgWfchadUqd++qsxlp/nyrT3/a3an/vj7poYcN1/+BBCEAgAjYuEn6/WZ322sbo7KWCT6Vxx4z6u1xtz0A/hEAQEQ88qhRdwQPshs3SZt/73sKAK4RAEBEDAxIj0TsNHt3j9vLEwCigwAAImTrNumFF31PUWSttHKl2xsUAUQHAQBEzJNPGu3b53sKad16OX1EEUC0BPehoGPGSNOm+Z7ig+qH8UEuCEc+L618yOiLX7BKeUr03XukNWs49Q8kWXABMG2aNG1ahC6yAiexe7e05rdGMxw+yjdcxwJkaKjmuwZQQ1wCACLquef8nIJ/8imjfXtrv18AtUUAABFlbXHxnVrehMdqf0A4CAAgwg4dklatrs21+P4IPoYIoHoIACDiNm50u0rgqTz6m2guRASgOggAIAYefdzo8OHqbX8Tq/0BwSEAgBjo6ysuylON0/PdPdLjrPYHBIcAAGJi6zbpxQ1ut8lqf0C4CAAgRp54wu0qgaz2B4SLAABixOUiPaz2B4SNAABiZvduae3ayg7cQ0Os9geEjgAAYujZClcJfPJJVvsDQkcAADFkrfTwI+XdvLd1q/Q8q/0BwSMAgJg6eFDqWmaUzw//Nfv2SitWsNofAAIAiLXt26WlncNbwe8PW6QHfmnUzyN/ABTgxwEDSfPWW9LPfmZ06SXShRdajR793p8VCtK2rdKGl41ef93biAAiKLgA2PCStGFDtB59mv9Zq9ZW31MgzgYGpOfWSc+tM6qvl1pGSPmc1NMj7vQHcFLBBcDh3uJjVFGSK+EaLnA6AwPSAHf4AzgN7gEAACBABAAAAAEiAAAACBABAABAgAgAAAACRAAAABAgAgAAgAARAAAABIgAAAAgQAQAAAABIgAAAAgQAQAAQIAIAAAAAkQAAAAQIAIAAIAAEQAAAASIAAAAIEAEAAAAASIAAAAIEAEAAECACAAAAAJEAAAAECACAACAABEAAAAEiAAAACBAGd8DAEAtpYxUX+97itINDPieAElDAAAIyujR0l983foeo2T5nHSwW3pji7ThJaODB31PhLgjAAAgBjJZqW1M8T+XX261bp205rdGNn4tg4jgHgAAiJl0WrrmGumzt1oZ43saxBUBAAAxNXWqdO21nAJAeQgAAIixq66URo70PQXiiAAAgBhLp6VLLuYsAEpHAABAzJ07xfcEiCMCAABirnWU7wkQR7EKgEKh+J9K5PPRu2V2aKjC1+fdzFENLmaL6teXdzCXi23Umu+vO6o/Dz6lU+JpAJQsdgHQ11fZNnoPu5nFpcMVznS4180c1XD4iCp+Trknol9fpd83ayv/efah0t+hgQEpl/O3/yQ64uD3DOGJVQBI0o6dfl9fDTt3VJbub++MbvoPDUm7d/t7fTXt2lXZGamdOyo/o+XDzp2VHWx27qhw/xX+viTRjgr/N0WYYhcAmzeX/8v/zjvSwQMOh3Hk1d+XfyDoH5DefNPtPK5V8j3bskUaHHQ4jEP9A9KbW8t//ebfx/NA1tsrvV3BAafSr/uNN1kX/3hx/VmCX7ELgNdeK/8d4VNPR/OX5OABadOm8l773HMmsgfIY158UerpKf111kpr1kTze3bMmmfKW4r10CFpw0vu56mVZ54u7+vet1965dXK9j0wIK1fH+2fi1p65x3p9dd9T4E4il0AWCut+L+m5HcA69ZJ27ZVZyYXVq022re3tNds2yatX1+deVzK5aUHV5iSb3Zctcpo3/7qzOTK7j3SU0+VdjDK54s/w5Xe/OnT2zukZ58r7TW5XPHrdnHZ49nnpG1vVb6duBsYkFb8ms8DQHliFwCSdOCA9MASM+x3levWSU8/E+13DIOD0i+XGu3aNby//4ct0rLl8fnF37lT6uoaXrgVCtLqJ4yef6H6c7mwbr309DDfEff1SUs7h/99jrI1a4zWrh3e/QCHD0tLfll65J6KtdLy5UZb3nCzvTjq7pEeeMBE8rIm4qHio+KiRba1MCQvH0zZ2Chdc7XVxRdL2eyJf75rV/Ef5ji9U0inpU9eJl11lVVT04l/fuiQ9Nu1Rps2xfOu3xEtxbXLzz+/+LW+n7XSW9uL76jfecfPfJU4a6I0Y4bV2Wef+EjW0JD0yivSM7816i3jckiUTZokXTfDauLEE/8sn5M2bip+at2RI+73bYx04YXS9KutRrS6334U5XLShg3S2meN+vv9zDBnTk51dX72jaJcPjuyo8McqmQbsQ6AYzJZ6eyzpNGjpEym+JjQzp2K9edlp1LSmROlMaOlhobiYz5790b3jvhS1ddLZ0+SRo6QTOrojWVvF/9v3I1okc4+W2puLp7NOHSoGDZRv1ejUiNai7+HZzRL+aHivS3btxcvAVWbMdK4cdLYsTppOCdBbrD4b9r2t/2vH0EA+EcAAABqjgDwz0UAxPIeAAAAUBkCAACAABEAAAAEiAAAACBABAAAAAEiAAAACBABAABAgAgAAAACRAAAABAgAgAAgABVHAD5vBx8uCcAAKiligPg/vtNj4z6XAwDAIg2Y8TnACSEm0sAVjH88FYAQKkaGmL4OeQ4KScBYKStLrYDAIi2xkbfE8AVJwFgrR5ysR0AQLSNG8dtX0nhJgCMulxsBwAQbRMmcAkgKZwEwE9+Yv4g6QkX2wIARNOoUVbNzQRAUjhbB8Ck9E1J/GQAQEKdf/6Q7xHgkLMA+NGPzHoZ/dzV9gAA0THxzIJGjeI9XpI4XQmwrk53S3rJ5TYBAH41N1tddDHv/pPGaQDce6/pzQxpvqRdLrcLAPCjvl666qohZTK+J4Frzj8L4J9/ZrYWrK6Q1XrX2wYA1M6IFqtrp+fV1MSp/ySqyocB3X+/2ZnK6HpJP5SUr8Y+AADVYYx0zjkFXTM9r0YO/ollqr2DRYvsx4eG9F0j3SqJFaQBIKKMkcaPL2jq1IJaWjjwR1kunx3Z0WEOVbKNqgfAMYsW2dZCQfOM1WwrTZI0UdJ4SelazRA3xqguk1Gz7zkAJI8xUn29VX291Nhg1dZmNXZcQdms78kwHLEKAJSus3PgC0bm33zPAQCIFhcBUJV7AAAAQLQRAAAABIgAAAAgQAQAAAABIgAAAAgQAQAAQIAIAAAAAkQAAAAQIAIAAIAAEQAAAASIAAAAIEAEAAAAASIAAAAIEAEAAECACAAAAAJEAAAAECACAACAABEAAAAEiAAAACBABAAAAAEiAAAACBABAABAgAgAAAACRAAAABAgAgAAgAARAAAABIgAAAAgQAQAAAABIgAAAAgQAQAAQIAIAAAAAkQAAAAQIAIAAIAAEQAAAASIAAAAIEAEAAAAASIAAAAIEAEAAECACAAAAAJEAAAAECACAACAABEAAAAEiAAAACBABAAAAAEiAAAACBABAABAgAgAAAACRAAAABAgAgAAgAARAAAABIgAAAAgQAQAAAABIgAAAAgQAQAAQIAIAAAAAkQAAAAQIAIAAIAAEQAAAASIAAAAIEAEAAAAASIAAAAIEAEAAECACAAAAAJEAAAAECACAACAABEAAAAEiAAAACBABAAAAAEiAAAACBABAABAgAiAaBvyPQAAIJIqPj4QANE26HsAAED0jB2r/kq3QQBEWpoAAAAcrzBzpslXuhECIMKMsX2+ZwAARIyVk2MDARBpdr/vCQAAEZOSk2MDARBhxuQJAADAB1ntc7EZAiDCBgcbnXyTAQCJwhmApOvoMH2Sm9IDACSE1VsuNkMARJ3RVt8jAACiwxrzpovtEAARZ6ybbzQAIBlStkAAhKHwqu8JAADRYaxxclwgACLOGr3kewYAQGTk3+3JEgAhGBqyBAAA4JjX7rjDVLwMsEQARN7GjfVbJB30PQcAIBKed7UhAiDiFi82Bcmu9T0HAMA/Y/WMq20RADFglVrjewYAgH8pawmAwDzpewAAgHd7nt9Y5+zJMAIgBvL5zFpJ7/qeAwDgkdEjxcvCbhDvQs3+AAAFb0lEQVQAMdDRYYaMzOO+5wAA+GQfcrk1AiAmrLUrfM8AAPAml8vVPeJygwRATNQ3ZpcbycmznwCAmDH20Y4O4/RSMAEQE/PmmW4r47T+AADxYKx5wPU2CYA4MYWf+x4BAFBzRwbz2eWuN0oAxEguV7dM0h7fcwAAauqXHR3mkOuNEgAx0tFhBq3sv/ieAwBQO1bmx9XYLgEQM+m0vU+Ss+dAAQCRtrG9Pets9b/3IwBiZv78hj9YGefXggAA0WOk/16tbRMAMWSt/tH3DACA6rIyOwbz2V9Ua/sEQAwtXJhdIz4fAAASLSX7jx0dZrB620csWZlv+54BAFAtdtdgPvvP1dwDARBTR28KedT3HAAA94w13+3oMH3V3AcBEGdG35Q05HsMAIA7Vtq0e1/2R9XeDwEQYwsW1L1opPt9zwEAcMamrfn6n/2ZyVV7RwRAzBWU/bakg77nAABUzkr/On9hdnUt9kUAxFx7u9ljpW/6ngMAULFua7N/U6udEQAJsGBB9scyesz3HACA8hmrby1caHbVan8EQAIYY6xUuFtSt+9ZAABleXpwKHtfLXdIACTEggUNW6zsXb7nAACU7N2CHfqPHR2mpk91EQAJ0t5e/0tZ/dD3HACAYbMpW7hj4cLGbbXeMQGQMPWN2b+U9LzvOQAAw2Dtf52/sOFBH7smABJm3jwzkEoXPi/pkO9ZAACnZqRn9+yr+47H/SOJOjsH5huZpZLSvmcBAJxgeyafv+bWjqYdvgbgDEBCtbfXL7fSV3zPAQA4wX4re5PPg79EACRae3vdj2TM3/qeAwDwR30Fa+a3t9e/6nsQAiDhFizIfldG/+R7DgCAhmTsf1i4MLvG9yASARCEDRuyfyWjB3zPAQABs0b60wUL6pf5HuQYbgIMxJIlNp1N5+6T0Z2+ZwGAwORldPeCBXU/8T3I+xEAAbHWmmWdg9+RMd4eOwGAwBwxhdTtt30us9L3IMcjAALU1TX4DVn9D3EJCACq6d2CNZ+NyjX/4xEAgerqGviirLlfUtb3LACQPGanSRU+c9tt9S/7nuRUeAcYqAUL6v8tZc1Nkq3ZR08CQCCeKNjMFVE++EsEQNDmL8yuzuXrLpGxj/ieBQASwBrpf+/Zm71x4UIT+TdXXAKArLVmeVf+m1b278TSwQBQjr1W5kvt7dmHfQ8yXAQA/mj50tzMgin8u2TO9D0LAMSFlVZbm/1CHN71vx+XAPBH8xdmV8vUXSCr/yPJ+p4HACLN6rCR+Zt8Pjsnbgd/iTMAOIWurtwsWXuPpGm+ZwGA6DGdBZv7xsKFTW/7nqRcBABO6b77bHbcuNwdsvo7SW2+5wEA34y0uSDzl3G61n8qBABOa8UK25bLDf61kfmqpCbf8wCAB1ut9F9Gjcr+y8yZJu97GBcIAAzb0qX2zJTJ/bWs7pJRs+95AKDqrN60Rn+fz2fv7+gwg77HcYkAQMmWLLGjM5n8V1Iq/LmVmeB7HgBwzuh3pmD/YXCo7lcdHWbI9zjVQACgbEuW2HRdOj9TRous7AJJGd8zAUAFumX1C2vMv7a3Z5/xPUy1EQBwYsWSI2fl05nbjdHnrfQp8bMFIB76JPOQVeEX2Wzdr2+91RzxPVCt8I80nFu27MgkazNzVTBzZewsSS2+ZwKA99lmpYcl+1A+X/d4R4fp9T2QDwQAqmr1aps5eDB3ibW61hhNl9Wlkj4mlhwGUBtHJG2S1e+Usr+VCs8sWNC41fdQUUAAoOaWLLGN9ancJ4ZS9mNSarKxdoqMnSiZMZKO/SclqVlSnddhAUST1WEZDRrZgYLMfkn7jTV7lbLbrdWbqVThzXxemzdurN+yeLEp+B43iv4/bIlWnXzd34EAAAAASUVORK5CYII=;" vertex="1" parent="1">
          <mxGeometry x="636" y="322" width="50" height="50" as="geometry" />
        </mxCell>
        <mxCell id="pYpf6Nf2uUUaodTvFNSU-43" value="" style="shape=image;verticalLabelPosition=bottom;labelBackgroundColor=default;verticalAlign=top;aspect=fixed;imageAspect=0;image=data:image/png,iVBORw0KGgoAAAANSUhEUgAAAgAAAAIACAYAAAD0eNT6AAAABHNCSVQICAgIfAhkiAAAAAlwSFlzAAAN1wAADdcBQiibeAAAABl0RVh0U29mdHdhcmUAd3d3Lmlua3NjYXBlLm9yZ5vuPBoAACAASURBVHic7d15eFTl3T7w+5xZs+8bCTsSlFUFQUSBotSFTavivtSfVvSt1rYUra1ga1+r1KX6uhRfX1xq3S2ItYpSUcGiYZUdgQAhCZN9T2YmM/P7I0BRWSbJnPM9M8/9uS6vGEzOc5uQnHue85znaKFQCERmKfL4HAD6AcgD0OM4bxOlMlLsqm4LSEeIKh88/fCrjz809yrpHGQMjQWAjFbk8SUDuBDADAAXAEiWTUSqYgHonBdm3wIA97/2xsvzhKOQAezSASg2FXl8+QCmoeOkPwGAUzQQEXXV3CsuvxYsAbGHBYAipsjjiwcwC8BMACMBaLKJiChCWAJikC4dgKJfkcdnK/L4bgGwE8CfAIwCT/5EsWbuFZdfO086BEUOCwB1S5HHNwPAJgB/QccCPiKKXSwBMYQFgLqkyOMbW+TxrQTwdwCDpPMQkWlYAmIECwB1SpHH16fI4/s7gJUAxkrnISIRLAExgAWAwlbk8U0AsBodK/uJSG0sAVGOBYDCUuTxzQLwEYAM6SxEZBksAVGMBYCOq8jjcxR5fM8AeBq8bZSIvo8lIEqxANAxFXl8mQCWArhVOgsRWRpLQBRiAaCjKvL4hgD4Ch27+BERnQhLQJRhAaDvOXjy/wJAX+ksRBRVWAKiCAsAfcvBaf93ASRJZyGiqMQSECVYAOiwg4/qfRN85U9E3cMSEAVYAOhIT4DX/IkoMlgCLI4FgAAcvs+fq/2JKJJYAiyMBYAO7fD3hHQOIopJLAEWxQKguCKPrw+At8BNfojIOCwBFsQCQI+B2/sSkfFYAiyGBUBhRR7fWPDBPkRkHpYAC2EBUNt86QBEpByWAItgAVBUkcc3A8BY6RxEpCSWAAtgAVBQkcdnA/CgdA4iUhpLgDAWADXdBGCQdAgiUh5LgCAWAMUUeXzxAOZJ5yAiOoglQAgLgHpmAciTDkFEdASWAAEsAOqZKR2AiOgoWAJMxgKgkCKPLx/ASOkcRETHwBJgIhYAtUwDoEmHICI6DpYAk7AAqIW7/hFRNGAJMAELgCKKPL5kABOkcxARhYklwGAsAOq4EIBTOgQRUSewBBiIBUAdnP4nomjEEmAQFgAFFHl8DgAXSOcgIuoilgADsACooR+AZOkQRETdwBIQYSwAauDOf0QUC1gCIogFQA09pAMQEUUIS0CEsACogTMARBRLWAIigAVADZwBIKJYwxLQTSwAauAMABHFIpaAbmABUANnAIgoVrEEdBELgBo4A0BEsYwloAtYANTAGQAiinUsAZ3EAqCGROkAREQmYAnoBBYAIiKKJSwBYWIBICKiWMMSEAYWACIiikUsASfAAkBERLGKJeA4WACIiCiWsQQcAwsAERHFOpaAo2ABICIiFbAEfAcLABERqYIl4AgsAEREpBKWgINYAIiISDUsAWABICIiNSlfAlgAiIhIVUqXABYAIiJSmbIlgAWAiIhUp2QJYAEgIiJSsASwABAREXVQqgSwABAREf2HMiWABYCIiOjblCgBLABERETfF/MlgAWAiIjo6GK6BLAAEBERHVvMlgAWACIiouOLyRLAAkBERHRiMVcCWACIiIjCE1MlgAWAiIgofDFTAlgAiIiIOicmSgALABERUedFfQlgASAiIuqaqC4BLABERERdF7UlgAWAiIioe6KyBLAAEBERdV/UlQAWACIiosiIqhLAAkBERBQ5UVMCWACIiIgiKypKAAsAERFR5Fm+BLAAEBERGcPSJYAFgIiIyDiWLQEsAERERMayZAlgASAiIjKe5UoACwAREZE5LFUCWACIiIjMY5kSwAJARERkLkuUABYAIiIi84mXABYAIiIiGaIlgAWAiIhIjlgJYAEgIiKSJVICWACIiIjkmV4CWACIiIiswdQSwAJARERkHaaVABYAIiIiazGlBLAAEBERWY/hJYAFgIiIyJoMLQEsAERERNZlWAlgASAiIrI2Q0oACwAREZH1RbwEsAAQERFFh4iWABYAIiKi6BGxEsACQEREFF0iUgJYAIiIiKJPt0sACwARER2Vw+WWjkDH160SwAJARERHFZ+cKh2BTqzLJYAFgIiIjiouOUU6AoWnSyWABYCIiI4qI7+ndAQKX6dLAAsAEREdVc9ThktHoM7pVAlgASAioqPK7nsSnHHx0jGoc8IuASwARER0VLqu4+SzJkrHoM4LqwSwABAR0TENmfBDuBMSpWNQ552wBLAAEBHRMTlcbpx2wSXSMahrjlsCWACIiOi4Bo4eh4FjzpGOQV1zzBLAAkBERCc0ZsaVyDtpkHQM6pqjlgAWACIiOiHdZsN5N93JmYDo9b0SoIVCIaEsZJYij4/fZCIA1W0B6QgxYceXK7D2n++grblJOgp13v2vvfHyPIAFQAksAEQdWAAix+9tw6blH2Lryk/ga22RjkOdc/9rb7w8jwVAASwARB1YACIvGAyiovgblGzZgOrSErQ21KOloQ5+b5t0NDqO3L4DXmUBUAALAFEHFgCi/+AiQCIiIgWxABARESmIBYCIiEhBLABEREQKYgEgIiJSEAsAERGRglgAiIiIFMQCQEREpCAWACIiIgWxABARESmIBYCIiEhBLABEREQKYgEgIiJSEAsAERGRglgAiIiIFMQCQEREpCAWACIiIgWxABARESmIBYCIiEhBLABEREQKYgEgIiJSEAsAERGRglgAiIiIFMQCQEREpCAWACIiIgWxABARESmIBYCIiEhBLABEREQKYgEgIiJSEAsAERGRgrRQKCSd4bDg9EIHgH4A8gD0OM7bRKmMRBTF9jVIJ1BCwB0Pb3oOvGnZ8KYf+ueI99Oy0ZLbCyGbXTqq0sQLQHB6YTKACwHMAHABgGTRQEQUu1gALKM9PhFVp09ExRnnour0iWiP5+s6s4kUgOD0wnwA09Bx0p8AwGl6CCJSDwuAJQXtDtQOGYOKMZNRMWoSvBm50pGUYFoBCE4vjAcwC8BMACMBaKYMTER0CAuA9Wka6gcMhWfcFJScfzUCrjjpRDHL8AIQnF5oA3ATgHnouIZPRCSDBSCqeNOysevKO1F67uUI6TbpODHH0AIQnF44A8CDAAYZNggRUbhYAKJSc0F/fHPtbFSMniwdJaYYUgCC0wvHApgPYGzED05E1FUsAFGtbtBp2HHDr1E36DTpKDEhogUgOL2wD4DH0LG4j4jIWlgAYkLF6MnYftNv0JpdIB0lqkWsAASnF04A8BaAjIgckIgo0lgAYoY/KQ0b5jyFmiFjpKNErYjsBBicXjgLwEfgyZ+IiEzgaKzF6XOvRc8PXpGOErW6NQNwcOe+JwDcGrFERERG4QxATCo5/2psu3kudxbspC4XgOD0wkwAb6JjIx8iIutjAYhZNUPGYMOvnoI/OU06StTo0iWA4PTCIQC+Ak/+RERkAembVmHM7BlI3LdDOkrU6PQMwMGT/xcAkgxJRERkFM4AxLz2uAR89dDbaOo1UDqK5XVqBuDgtP+74MmfiIgsyN7ajFP/cDMcDbXSUSwv7AJwcMHfmwD6GheHiIioe+I8JRj+8O3QAu3SUSytMzMAT4DX/ImIKAqkb1qFQc/dLx3D0sIqAAfv8+etfkREFDV6fvAK9wk4jhMWgIM7/D1hfBQiIqLIGvTcPKRvWiUdw5KOWwAO7u3/FgDurkBERFFHCwQw/KHbEVexXzqK5ZxoBuAxcHtfIiKKYo7GWhQ+/4B0DMs5ZgE4+EhfPtWPiIiiXvaXS5G6ba10DEs53gzAfNNSEBERGWzgC/8tHcFSjloAgtMLZwAYa3IWIiIiw6RuW4vsL5dKx7CM7xWA4PRCG4AHBbIQEREZ6qSX50MLBqRjWMLRZgBuAjDI7CBERERGS9i/C/kfvyEdwxK+VQCC0wvjAcyTiUJERGS8/q/+GTZvq3QMcd+dAZgFIE8iCBERkRlctRXcIRDfLwAzRVIQERGZKGfFe9IRxB0uAMHphfkARgpmISIiMkXKzo1wVR+QjiHqyBmAaQA0qSBERESmCYWQXbRMOoWoIwsAd/0jIiJlZK9Se08AHQCC0wuTAUyQjUJERGSetE2rYG9pko4h5tAMwIUAnJJBiIiIzKS3+5G55hPpGGIOFQBO/xMRkXKyv/xIOoIYPTi90AHgAukgREREZstcuxxaoF06hggdQD8AydJBiIiIzGZvaUL8gX3SMUTo4M5/RESkMFdthXQEETqAHtIhiIiIpLhq1C0AnAEgIiJlcQaAiIhIQa4aj3QEEZwBICIipal8CYAzAEREpCyVCwBnAIiISFlcA0BERKQgldcAJEqHICIikmJra5GOIEI/8YcQERFRrGEBICIiUhALABERkYJYAIiIiBTEAkBERKQgFgAiIiIFsQAQEREpiAWAiIhIQSwARERECmIBICIiUhALABERkYJYAIiIiBTEAkBERKQgFgAiIiIF2aUDqC5ks8ObmQ9/Shb8qdkH32Z1vD34Z77ULACAs64SjvpKOOoqDr49+P7BP3NVlUILtAv/H9GxhOxOtOb1Q1uP/mhPSEXQ6ULQ4UbI4Tr47y5owQCctR44aivgrD0AR10FnLUe6F41H1cabYJ2J1oL+nX8k9cHrdn58GXkwpecDltrM1w1HsRV7Edc+V7ElexCwr7t0L1t0rFJUSwAAgLuBDQMPgt1p05C/ZCzEYhPCuvz2nJ6oy2n9zH/u62lESmbPkfqumVI3rwStrbmSEWmTgq64tA4aDRaCgrRWjAQrfknwZvdGyG9a5Nu9uY6JOxcj6QdRUjaXoT4ku1AKBjh1NQZ/rQslF50HSpHn4em3N4I2J0Ialqnj6MjBFu7H+66SmSuWY6CdxcirnS3AYmJvk0LTBsYkg6hAn9KFuqHj0fdiEloGHQGQnanoeNp7T4kb/sKqeuXIWXDp3DUVxo6HgHtSWmoGzYBdSN+gMZTzkTQ4TJsLFtrExK/WYOk7UVIL/onHHUVho0VU/Y1dP1zdR0VZ0/FgR/8CHUDh6MtLrzi3hUubwtSd36NvGVvIXv5IiDIsme0pYvUK10sAAYKOlyoGn85akaej+a+Q4EuvDqIiFAICcUbkb76A2R++gZ0v1cmRwwKuBNRfdYM1J52HpoGjAA085fVaMEAUtctQ9YnryJpx2rTx48qXSgAFT+4BLuvuBNNWQVdeoXfXXooiMSK/Sj458soWPS86eOrggWAIkPTUTV2Osqn3Q5fWo50mm9x1nqQ9+5TyPxiMaeQu8GfkoWKSdegcsLlCLgTpeMcFle6E1nLX0XGqiXQva3ScaynEwWgbMp12HXFnWhNTDMwUOe4Wxpw0ksPI++Dv0lHiTksANRt9cPGo/SSn6G1xwDpKMcVV7YT+e88jpSvP5WOElXacnrDM/kGVJ85zfDLON1ha21CjyVPI+tfr0Dj9PF/hFEA9l1+O4ov/gm8cdYpdt8V31iLgf/7O2R/ulg6SsxgAaAua+47DKU/uguNA0dKR+mUpB2rkf/2Y0go/lo6iqW1J6Wh5PI5qDnjApFp/q6K37cVvV75PRKKN0pHsYZjFQBdR/G1v8Tei66HzxlnbqZuSKirwKBnfouMLz+SjhL1WACo03zpudh/2WzUnj5ZOkq3pK1ZioI358NZc0A6iuXUjJmCkplz0J6QKh2la0JBZH32JvLfeRy21ibpNLKOUgCaBgzF2t//1dBFfUZLqizFiPuuQVz5XukoUYsFgDqlqf8I7Lrtz2hPSpeOEhH2xhr0f/pOJO5aLx3FEnzpudh39X2oH3q2dJSIcDRUo+er/420NUulo8j5TgHYe/Vd+Oay/0IQQgt0I8gWbMfw+T9F5r8/lI4SlVQsALa5hRnzpENEo+qx07H71scQtPB1ws4KuuJQM2YqnLUHOu4zV1jlOZdh921PoDXf2ms5OiPoikftyB8Cug1JO4qk48io77gDJuCOx9pHFmH/2IsQioGTPwCENB0Hxk2B7nIjbcNK6ThRZ9cVd0pHMB1nADpL07H/0p/Dc9710kkMlfPRiyh461Hl7hQI6TpKrrwXleMvl45iqLSiD9Dnhd+od0vovgbUnToO63+9AD6HWzqNYbK3fIURv7mK+wd0goozACwAnRBwJ6L4lvmoHzJOOoopUjatQN8Fs2FrU+O6cdAVh903z0f9sPHSUUyRsHsDBjx1B+yNNdJRTLNj6hzsPe9KqPBLL6GuEmfcNQWOWm4CFg4VC0D0LGcW5s3uhW33vKLMyR8A6oeMw7Z7XoE3u5d0FMP5kzOw/ZcLlTn5A0Bzv+HY+utX0ZbXXzqKKcov+gn2KHLyB4Dm1CyseO5z1A07UzoKWRQLQBgOnfzb8vpJRzFdW16/mC8Bbbl9sf3uV9DSe7B0FNP5Mnpg25yX0ZbbRzqKoTyTb0DZ9P+SjmE6v92J1b/7K0sAHRULwAkE3InYefuT0XsLWAS0J6Ri5+1PWmrHu0jxpedixy+ehzczXzqKmEB8Enbd9kRMfn8BoOIHV2H/pb+QjiEmCA1r71sIX3q2dBSyGBaA49F0FN8yX8lX/t/VltcPxbfMj6pNcE4k4E7Azv96Cv6ULOko4tpy+2LvDb+TjhFxVedcipKZd0vHENdud6Lo0XelY5DFxM5vcwPsv/TnSl3zP5H6IeOw/9KfS8eIiJCuo/jm+WgtGCgdxTJqTzsv6nayPJ7qM6dj79X3yT2Ey2KaU7NR8qOfSMcgC2EBOIbqsdNj/la/rvCcdz2qx06XjtFt+2feHTMb/ERS6SU/k44QETVnXIg9N/yOJ//v2DXzTkDnr33qwL8JR9HUfwT2XjNXOoZl7b1mLpr6j5CO0WUVP7gKFROvlI5hSc39hqO53zDpGN3SOGg09vz4v2PqclWk+JxulFx8s3QMsgj+hHyHLz0Xu277M0J2h3QUywrZHdh125/hS8+VjtJpbXn9sP/SX0rHsLRovhUyEJ+EPTf+ASHdJh3Fsg6MnyEdgSyCBeA79l82O2b29jdSe1I69l82WzpGp+295j6WuxOoH3qOdIQuK7niHvjScqRjWFpDQexsb03dwwJwhOa+w6L+qX5mqj19Mpr7Rs90cfXY6Wg66XTpGJbXmn9SVE6f1512LqrHTJWOYXkB3YbWfN7ZRCwA31L6o7ukI0SdaPmatSekKn0veGeEdBv8SWnSMTol6IrDvit/LR0jajT34t0vxAJwWP2w8TF1C5RZGgeOjIprxvsv/QXaE6PrpCapPTlTOkKneM69jvs5dEJrAWcAiAWgg6bHzO1PEkov+Zmlp4yb+w6NiVsXzaT526QjhK09KR2eH94oHSOq6G2t0hHIAqz7W9tEVWOno7UHF8Z0VWuPAaiy8Am2YtI1vB+8kxz1VdIRwlY2dRYC7gTpGFElfv8u6QhkAcoXgKDDhfJpt0vHiHrl025H0OGSjvE9/uQM1J52nnSMqGJra4atrVk6Rljak9JRdfal0jGiTuKerdIRyAKULwBV4y/nbUMR4EvLQdX4y6VjfE/VuB/xtr9OStxeJB0hbFVnXYyQzS4dI6o4fa1w1FZKxyALUL4A1Iw8XzpCzLDa1zKk66g65zLpGFEndeOn0hHCo/H72xVp29dJRyCLULoA+FOy0Nx3qHSMmNHcd6ilVmLXD58YlbsVStLafUjZEB0FoOGUsUo/xrmrei16TjoCWYTSc2f1w8dbb3FYKIjEXRuQuuETxO/ZDEd9BRx1HdN1/tQs+FOy0dJnMOqGT0RT/+HWWn2vaagfPh6Zn70lnQQAUGnBSxIA4KrYi5RNKxG/dzMc9ZVw1B/8/qZkwZ+ShZbeg1E/5Cx4s3ubni3rszcP57G6qrOsuaWtHgohrr4KKTu/RtrGfyNks8OfkIxAQhL8iamoHXwGmtNyEBLIllxRgrQ10VHwyHhKF4C6EZOkIxym+73I+uRV5Cx9AY6G6qN+jO1AM9wH9iBp+1fI+XAh/MkZ8Ey+AZUTr7TMAry6EZMsUQCCDhcaB46SjnGYFgwg44tFyP1gIVwVe4/6MXGlOwEAGf9+Fz0BeLN748D5N6J67AxT9rbXva3I+8cCw8eJhJBuQ8Pgs6RjfEtCXQUKn/sdMle+f8KP9aVnY+8Vd8Bz5gVoMXHTpVMe52ZY9B9aYNpAiSIqLuBOwIZHP0PI7pSOgtR1y9Dz9YfgrCnv0uf70vNQMnMO6k6VLzRauw/Df36O+CryppNOw/bZL4pmOCRl0wr0fO1BuCr2denzvdm9UHLFPagfMi7Cyb6t90tzkbniHUPHiJSufn+r2wIRz+L0tWLgC39Ej/df7tLnF1//K+y6+CcIwtjZyB6rl2HIA3wS4LEsXbRbOoLpLDR/bK6GwWfJn/xDIfRY8jT6P3tXl0/+AOCsKUf/Z+9CjyVPAyHZPheyOy3xyswSe/6HQsh7fwEGPHlbl0/+AOCq2IcBT96GvPcXGPb9zf745ag5+QNA/ZCzpSMAAPLWfYoJVwzt8skfAPq++DBGz/kRXK1NEUz2bckVJTz50/coWwDEXy2HQuiz8F7kLXkmMr/UQyHkLXkGfRbeK14CxL+2AJoGnCYdAX1eug89Fj0Zse9vj0VPot+CX0L3RnYXt/Sv3kfBW3+K6DGN1mDwbEg48tZ9iqH33wgEg90+VtL29Tj72pHI3hr5WzDjmusx6mcXRfy4FP2ULAAhm138FUSP955BxqolET9uxqol6PHeMxE/bmfUDzlb9t5sTUdT/xFy4wPIXPE2MlYuivhx09YsxaCHroWzuqz7BwsFkf/3P6Pv/86BFoGTmFmCDhdaCmQfZpOz8YuOk38E6e0+jLhnJgpfewx6hJYIpu/dirOuHw1bi3GzCxS9lCwA3sx8BOKTxMZPXbcMee89a9jx8957Fqnrlhl2/BMJxCeJ3p7Vmn8SAnGJYuPHle1Ez1cfNO74+7fj5D9cgcwV73T5xB23fzsGPnYLcv/5vxFOZzxvTh/Ru1+SPfsw/LfXGHb83q89iTN+PROJtZ4uH8MWDKD/ewsx8s6LoLf7IpiOYomSdwFI3quu+73o+fpDxk7Th0Lo+fpDaBgyTuzuAH9KFtyeo692N1pT/+Ei4wId39++C2ZD93sNHcfeVIveL81FztKFKJ8yC/XDxp94P/xQCAl7NiL7478iffUH4peKuqo1T/ZJdmaspE/eshpjbzwTVeMuxI4f/wbN6blhzQk42n3I/XIpCp/4FXRv9DzQiWSoWQBSs8XGzvrk1W4t+AuXs6YcWZ+8Cs/kGwwf62gkv8aSY2d//DLiynaaNp77wB70/d85CNnsaDrpdDQWjoI/NRv+lCwEHS44GqrgqK9EXMkOpGz6HPbGGtOyGaVNsACklu5E8tY1po2XueJ9ZK54HwF3PMrPvxLVZ5yLtvRs+BNSELQ7YG9pgrOxFol7tyP//ZeRtH29adko+qlZAKRmAEJB5Cx9wbThcpa+AM9514lMl0rOsrQnpIiNnV70T5FxtUA7krZ9iaRtX4qMb6a23L4i42oATn58tsjYtrYWFCx6HgWLnhcZn2KTkmsA/KkyJ6fEXRuOucmPERwN1UjctcG08Y4k9TUGgPaEVJFx3QeKEbd/h8jYKvGnZIqMG19XiaRvZH6eiIygZgEQenWauuETJcYEhGcATNxZ7Uhpqz8UGVc1wROtdTBIXOV+kXGJjMICYKL4PZuVGBOQLQABoUsAyVu+EBlXNQG3zB0eifvMW9tBZAY1C4DQIjFHfYUSYwKyC/GkLgHY2lpExlVNIE5mBiB5Bx+jS7FFyQLgE7o+feipfrE+JiD3NQbkLgFo7cbe+kcdpGYAUjauEhmXyChKFoCgK15kXIkH5NjamkXG1STvMQ9G/oEv4dD93HAllnGGh2KNkgVANSrNPACAU2rsKN1YJ9rYvDJPmmzue7LIuERGYQFQgEprDwDAUSczdkufwSLjqkYXeiXe3HOAyLhERmEBUIBKdx8AgKNeZgagofAMkXFVI3FJCwDqhowWGZfIKCwAClBp/wFArgA0njxGZFzV2FplnmxXcwoLHsUWFgAFqLQDISB3CaAtty986bkiY6vEjGdpHE1bfDK82XJPuSSKNBYAFQg8gwAhuefLSy5ALJ8yS2xsVbjLdomNve2Oh8XGJoo0FgBFmP0UQklOoRkAAKg6awZaep8iNr4K4srlCkDFkDPRmi/7OGKiSGEBUITu96Ln6w8Ze6taKISerz8E3S+7IY7UGgAAgKajZObdcuMrwC1YAEIAvv7Nc2LjE0USC4BCUtctQ957zxp2/Lz3nkXqumWGHT9czqr9sDfXiY3fNODUjscwkyFcFftES2Z9Xl9s+8VjYuMTRQoLgGJ6vPcMMlYtifhxM1YtQY/3non4cbtCCwaR8vVnohn2XzYbB87/sWiGWKUFg0j8Zq1ohn1nT8f+S24RzUDUXSwAqgmF0Gfhvchb8kxkLgeEQshb8gz6LLzXUjvhpWxYLh0BpZfchbIZP5WOEZOs8OTFLdfdzZkAimosACoKhdBjydPo/+xd3VoY6KwpR/9n70KPJU9b6uQPACmbV0Jrl9+bv/zCW1B888PwZveSjhJTrFAAgI6ZgC+fWcaFgRSVWAAUlrpuGQb/dioK3nqkU/sEOBqqUfDWIxj826mWuOZ/NLq3Bclbv5SOAQCoGXUBNv9uCfbc+ACLQITE7d8BR0OVdAwAHWsCVjz1MTY88Ar3CaCoYpcOQLJ0vxc5S19Azkcvoan/cNQNn4iWPoPhT8mG/+AjfR11lXDUVyB+z2akbvikY5Mfwfv8w5Wy4RPUDz1bOgYAIKTrqD5zOmpGT0Xy5hWIK9sJ14E9cB8ohvvAHtFFi9Eqdf0nqDznMukYADruDvAMOROeBZ/D3dKA9C1fIXXTl0go2YmE4q1w1sjdmkp0LFpg2kBrzd2aYM2CjSLjnn7LUJFxVeVPycLXDy8DNE06ygnZ2poPFy1HbQWc9RUd79dVwFFXAWddBRy1B6AFrV+8rfSqMQAAIABJREFUzNLSezC23vtapz6nuk3mUdEaAFvAD7u3FY7mRjgbquGuPgC3Zz/iy4sRv+8bJO3YAN0newutypYu2i0dwXScAaCY5aivRMKeTWjua/3iFXAnIJCbgLbcPsf8GFtLA1K//hQp6z9ByuaV0L1qP58+fu9mxJdsQ0vPQdJRTigEoN3mQHu8A23xyUBWPtB/2Lc+RkMIiVVlyF61FAV/fw6u6gMyYUkZLAAU09KKPoiKAhCOQHwyqsdMRfWYqdDafUjeugqp6z9ByobllrkebrbMz9/GvqvulY4RESFoaMzMR+OUG7Fryo2Ia6pF5oaV6Pn355C4U2bWkmIbLwGYiJcAzBd0uLD5gX/Al5YjHcU4oRASir9G2pqlyPr0Dei+NulEpgnEJWLjQx8h4E4M6+OlLgF0l9PXivStq1H4xBzODBhExUsAvAuAYpru9yLv3aekYxhL09Dcbzj2XzYbm/7wPqrOvhQhXY0fbVtrE/LetcYGVEbyOeNwYPjZ+Pz5ldh899MIutzSkSgGqPFbgpSW8e/FiCvbKR3DFP6ULOy9di62zH0H9cMnSMcxRfa/XhF9PoCZgtBQOuZ8LH/1a+y66TfScSjKsQBQzNOCQeT//c/SMUzVltcfO29/Ejt+uTBm1kAcixYMoNerD0rHMFW7bseuqT/G8tc3oWzqDdJxKEqxAJASUjYsF98/XkLjwJHYdvcr2H3Ln+BLz5OOY5ikbV8ibc1S6Rim87nisemm+7Dyxa9QN/ws6TgUZVgASBkFbz8iHUGGpqF25A+x9d7X0XTSadJpDFPw5nylFkAeqTklE0X3v4SSy26TjkJRhAWAlJGw+2ukrv1YOoaY9qQ07Pj586ga9yPpKIZw1hxA7vvPSccQE4KGrVf/ElvujvFFrxQxLACklJ6v/1HZe+YBIGSzY+9181Ayc05M3imQu/QFuCpLpGOI2j/mAnz1Px8i6HRJRyGLi73fAETH4az1oP/TP4PW7peOIqpi0jXYecczCMQnSUeJKK3dh16vPKD8lsl1BSdhxcJV8Ob0lI5CFsYCQMpJ2L0BvV/5nXQMcQ2njMW2e15FW05v6SgRlbzlC/T66/3SMcS1JaRg5dMfo/bUc6SjkEWxAJCSMlYuQvayv0rHENeW0xvb7vkb2vL6S0eJqMwV76Dg7UelY4hrtzmweu5CVI8+TzoKWRALACmr4M35SN66SjqGuEB8Mnbe/gQC8cnSUSIq58OFyP3g/6RjiAtBw/o5T6G1Rx/pKGQxLACkLC0YRL+//AKuin3SUcR5s3th908eibmFgfnvPIbMz9+SjiEuoNtR9KdFXBhI3xJbP+1EnWRracCAp+6AraVBOoq4hpPHYP9ls6VjRFzvv/5eyU2CvqstPhlrHlksHYMshAWAlOcu34VBD14Ft2evdBRxFZOuQfVZM6RjRFYoiL7P343kLf+WTiKutudAbP3F49IxyCJYAIgAuD17MejBK5G85QvpKOL2Xn0fmvsNl44RUVq7H/2fuRPxCu8BcUjJ2dNQOvVG6RhkASwARAfZWhox4IlZyt8dELI7sOu2x+FLy5GOElG6txXjbhiDnI0seVtv+g0aThkpHYOEsQAQHUELBtHz9YfQ+6V50ALt0nHE+JMzUTLzbukYkRcMYvhvr8Ggvz0CHSHpNGKC0PD13c9IxyBhLABER5G54m0MfPQm2BtrpaOIqTvtXDT3GyYdwxC93ngKZ/x6Jpx+NR8eBAAtyRl8lLDiWACIjiHxm7U4+Q8zkbb6QyCk5qvF/T/6hXQEwyRvWY1xN4xB8oE90lHEfHNN7H5/6cRYAIiOw1lTjn4LfolBf7waSTtWS8cxXdNJp6F++ATpGIaxNzdgzK0/QL/3X4JdwUs+XlcCiq+LvVs/KTwsAERhSCjeiIF/uhEDnvop3OW7pOOYqvTiO2Nug6DvGrBgHiZcORS9l78NWzAgHcdUxdNuQtDulI5BAmL7p5oowlI2LMcp91+C3i/fD0d9pXQcU7T2GIDqM6dLxzCc7vOi8PHZmHDVcPRc+R5sITWeKNhud2LnbQ9IxyABLABEnaQFg8j8/C0MufdCFLw5Hwm7N8T8GoHyabcj6FBjG1lbWwtOnn8Hxl9zGvKLPoKuQBEomXgxAvGJ0jHIZLa5hRnzpEOYrXzqbSLj9ljC225iiRZoR+LuDchc8Q6yPnuzYydBXYcvIw/QbdLxIioQlwh7cz0Sd2+QjtI99d6wP1T3e5H9+Xvo8/e/IL6hBsGkZPiT0xG02Q0MKCOk6fAV9EP2in9IRxGz64o7pSOYLvb+JhMJcDRUIfPzt5D5+VsIuuJRP/gs1I+YiLph42PmKXu1o85HzscvSccwne7zoseSF9BjyQsAgOa+p6B0yvWoOnUcmtNzEYImGzBCqkacLR2BTMYCQBRhurcFaWs/QtrajxDSdfjTcuFLzYb/8D9Z8KVkw5+WDX9Kx/sBd4J07BNq7jME/pQsZdY+HEtC8RYMfHIOBgII2p2oOvtCNPcaiLbMHvBl5MCbnA5/Ygra3QkIOF0I6Pao2HLI64pHc59BSNizTToKmYQFgDpoOpr6D0fd8Ilo6TP48IkJABx1lXDUVyB+z2akbvgEibs2AApcF40ELRiEs7oMzuqy435cwJ0Af2oW/CnZaOkzGHXDJ6Kp/3BAs9AyHU1D3fAJyPrsTekklqG3+5D9yaITfpwvPRvNfU9Gc88BqBsyGjWnnIE2C84MlVxyCwY9+nPpGGQSLTBtYDSU04has2CjyLin3zJUZNzjCTpcqJx4JTyTb4A/OSOsz3E0VCNn6QvI+uRV6P7wr6lS5/iTM+A573pU/uAqyyzAS9n4OQY8KbOGJiL2Weexz97sfGy742FUDDnTMjME8Q3VGHfdKOkYIpYu2i0dwXQWenlBZqs7dRI2/34J9l/6i7BP/kDHiWn/pb/A5t8vQd2pkwxMqDZHQzUK3n4Ug39zUcduhBbQcPJoBF3x0jFigquiFMN/czXG3X4uUsqLpeMAAFqTM+BPCf93AUU3FgAVaRrKpt6GXbc+Bl96XpcP40vPw65bH0PZ1NsALTYWQlmRs9aDfgt+ifx3Hhe/3TBkd6J+8FmiGWJNXOlujJ41Cb0+XywdBSEA+y+5WToGmYQFQDWahj03/gHlU2dF5qStaSifOgt7bvwDS4DBcj94Hv2emy1eAmJ5a2BJgx65C6e89EfpGPCceYF0BDIJC4BiyqbMQvWYqRE/bvWYqSibMivix6VvS1v9IXos/h/RDPXDzon5rYGlFLyzQHwmoCm7gFsDK4I/xQqpO3USyqfcatjxy6fcyjUBJsh7fwFS1y0TG789IRW+zAKx8WPdoEfuEl0TEISGhsFqLgRUDQuAIoIOF0pmzjF2ml7TUDJzjmVWrMeynm88DK3dJza+PyVLbGwVDHvgZtHthVp6nSQ4OpmFBUARlROv7NaCv3D50vNQOfFKw8dRnbO6DNnLXxMb35eaLTa2CuJKdyN707/Fxm/J6yM2NpmHBUAFmg7P5BtMG84z+QZrbWATo3I+fEFsQeChTaLIOIOe+JXY2G3Z+WJjk3n4W1oBTf2Hd+o+/+7yJ2d07GJHhnLUVyKhWGZTK14CMJ6rohTuFpmNi7xpnOFRAQuAAuqGT1RiTBWlrpdZDOjnJQBTpG/5SmRcX0q6yLhkLhYABbT0GazEmCpK2LNZZFzOAJgjddOXIuP6LficAoo8FgAF+FPMf7UmMaaKHHUekXE5A2COhJKdIuO2u9wi45K5WAAUILFgi4vEzOGok3k0r4/fX1MkFG8VGTdgc4iMS+ZSsgDo3haRcSWe+R5wJ4iMG+K2wKYISf2i1m0y4yom4OaDl8g4ShYAp9CrJpVeiUt9jVXjzektMq69sVZkXNXUDx0jMq4eCoiMS+ZSsgA46ipExlXpWrzU11g1bbl9RMa1N7EAmKFh4Kki4+rt7SLjkrnULAD1Mq9OVVqNL/U1Vk1bTh+Rce1NdSLjqqap1wCRcW2+NpFxyVwsACZS6X58FgBztOX1ExmXMwDmaM2SeeiSvU1mnRSZS80CIHR9WqUd+aS+xirxpeeifsg4kbE5A2C8xpOGo0VoDY+jtVFkXDKXXTqABLFXpwf35C946xFThpPckz9WZgDak9JRP+RstPYcCH9KFvzJmdD9XjjqK+Goq0DS9iIkfrMGWsD8a6blF/0EIaHntsfKDIA3Ox91w8aipWd/tOT2hjcjF96UTLjqq5Cx7jPkfvwWXJ4SkWxbfzYfMk96ABxNMlsQk7nULACCC9QqJ16J7H/9Dc6ackPHkX4qX1QvAtQ01Iw8HxXnXoPmPkOP+wjl8ot+AltbM1K+/hR57z0D94E9pkT0ZvVE9VkXmzLW0Tiry8TGjoTSqTdi34yb0JTR46gn2casfFQNGI7tl/0UDr8XiQf2YsALDyJtzaem5Gs4+XTU5ctc/weAhH07xMYm86hZAARfnQYdLpTMnIP+z95l3JPcNA0lM+cg6HAZc/wwROsMQOOg0Si5fDZaCwrD/pyAOwE1Z1yI2pHnI+OLRch/53HDXyGXzfgpQoL34ifuXCc2dne09DoJ6+e9iKb03LA/x+9wobbnQKz+7ULkrv8Mgx+4BXq7z8CUwJafmTNLeCw5yxeJjk/mUHINgKuqFLYWuWtcdadOQvmUWw07fvmUW1F36iTDjn8itpZGuKpKxcbvqgMX/D/suGtBp07+RwrpOqrGXYKt977W5WOEo2za7agZdYFhxz8RR0MVXJUy0+LdUTNmCr544oNOnfyPFAJQPuIcfPa3dag68/zIhjvCht//FQ05vQw7/onooSCSt6wWG5/Mo2QB0ALtSNn0uWiGsimzUD1masSPWz1mKsqmzIr4cTsjZdPnItfEuyqk6yj+fw+h9OI7I7JmwpfRA9vmvIzakT+MQLpvO3DhzYaWx3BE26v/kN2JXbc/geIfP4ggur9Dpc8Zh7VznsaGB15BMMJrMDbOXQjP0LERPWZnxdfKPF+CzKdkAQCA1HUyj1E9TNOw58Y/oHzqrONeY+7M8cqnzsKeG/8QmeN1g/jXtpP2X/pL1JxxYUSPGXTFYfctf8K+a+6L2KWYAz/8MUpn3BGRY3VHws710hE6Ze+1cw25HdYz5Ex8/vJqNBaO6P7BdB0b5y5E+anju3+sbkr55mvpCGQSZQtA8uaV0Ay+jndCmoayqbdh162PwZee1+XD+NLzsOvWx1A29Tbxk7/W7kPy5pWiGTqjatwlqDj3WsOOX3nOZdj261fRlte/y8doGnAqtt3zCkp/dFcEk3Vd4s610hHC5jnvOlSfOc2w43vjEvHlQ2+j+PpfdfkYZRdei+WvbbTEyR8Asr74QDoCmUTJRYAAYGtrRvK2r8Tuoz5S3amT0DBkHLI+eRU5S1+Ao6E6rM/zJ2fAM/kGVE68UnTB35GSt30FW1uzdIywtCelo2Tm3YaP05p/Erbe+xqyPn0Daas/REJxeK+wWnsMQNm021F32rkGJwyf7mtD/D6ZJ9R1ljczH6UX/8zwcYLQ8M3Ft6L03JnI+fc/0fu1J+CsOfFdMFVnXYjtN9+HZgs9WllDCJkr/ykdg0yibAEAgNT1yyxRAICOuwM8k2+A57zrkLhrA1I3fIL4PZvhqK84vKmOPzUL/pRstPQZjLrhEzs2+RG6z/9YUtdHz/R/+UW3IOiKM2WsoNMNz3nXwXPedXBWlyFtzVIkfrMWNm8LNL8Xuq8N0DQ09x2GxoEj0XTSafBb6MRwSOr6f0ELRseDYspm3IGQ3bynJbYkpaF48lXYM/kqJNR6kLb5Kzia6mBrboSjuQFaoB21Q89E/YBhaE3JRNCCT8xMKd1l+B0OZB1KF4CUDZ8CV4fEp82/RdPRNOBUNA2QeQhIt4RCHV/TKOBPyULlOZeJjO3L6NFR9ibfIDJ+d2Qtf106Qlja8vqL3SkRAtCUloOmcZFf5Gu0Pq8/KR2BTGStl48mc9RXIqF4o3SMmJFQvDFq7v+vHz5ebBe9aBVXujNqrv/XnnautYp9FHD6WpH92RLpGGQipQsAAKSv5oKXSImmr2XdUGssuIomWZ9Gx6t/AKgbIfMQrGiW++VS6QhkMuULQOanb8DJ+167zVnrQeanb0jHCFtT4SjpCFFF97YgfdV70jHCEnTFo6XXKdIxoooGoN/CB6VjkMmULwC634u8d5+SjhH18t59CrrfKx0jLAF3AgLuBOkYUSX9y/dha2uSjhEWX2oWp/87KaV0Z1h3LlBsUb4AAEDmF4sRV7ZTOkbUiivbicwvFkvHCJs/JVM6QlTR2v3IXfqCdIyw+VNkHqEbrTQApzxqjT0myFwsAAAQCiL/ncelU0St/HceB0JB6RhhCznc0hGiSs5HL8JVsVc6Rti4uLNzctcuR+KuzdIxSAALwEEpX3+KpB18AEZnJe1YjZSvo+PWv0PsDVXSEaKGs9aDvPcXSMfolGi5E8UK7AE/Bj90m3QMEsICcIT8tx+TjhB1ovFr5misjZrNbKQVvDkfurdVOkanOOpZ8MI14PUnoHvbpGOQEBaAIyQUf420NbwVJlxpa5aGva2tpYSCiCv9RjqF5SVt+xJpqz+UjtFp9qZaOKvLpGNYXkJ9JXq9wQXQKmMB+I6CN+fD3lgjHcPy7I01KHhzvnSMLkvZ+Jl0BEvT2v3o9Wr03haWGmWXpcymh0IY9sAt0jFIGAvAdzhrDqD/03dCa/dLR7Esrd2P/k/fCWfNAekoXRZt6xbM1vuV38Fdvks6RpelrP+XdARLO/mFPyDpmw3SMUgYC8BRJO5aj95/vV86hmX1/uv9SNwVXc+E/66E3V8jYTd/AR5NzscvIWPlIukY3ZK87UvE790iHcOS8r9aivzF/ycdgyyABeAYMr5YjJyPXpSOYTk5H72IjCi65/94eOvn9yVvXon8tx6RjtF9oRDy34m+BapGS6rcj8H/fat0DLIIFoDjKHjrUaRsWiEdwzJSNq1AwVuPSseImKQdq5G29iPpGJbhPrAH/Z6bDS0YPXs6HE/y1lVIXRc9j6c2mtPfhlF3TZOOQRbCAnA8oSD6LpgNd/lu6STi3OW70XfB7Kja8CccvV+4D+4DxdIxxNmb69D/qf+CraVROkpE9Vl4b1SvZYgUe8CPkXdfBntTnXQUshAWgBOwtTVhwFM/hb1Z3R8ce3MdBjz106jZC74zbG1N6P/0HTF34usMZ60HhQ9fD7cnenb7C5etrRkD/kftn1+nvw1n3nkRd/uj72EBCIOrYh8GPXi1kjMB7vLdGPTg1XBV7JOOYhj3gT0ofPg6Je8ddx8oRuFD18T0321XZYmyP7+utmacedskxO3ns07o+1gAwnSoBKi0JiBl04qYP/kfEle2E4MevAoJxRulo5gmoXgjCh+6Lqpv5wyXq2IfBv3xasQrtA10XHMdxv5kAlyV5dJRyKJYADrB1taEAU/ersTdATkfvYgBT94ek9P+x+JoqMbAP92I1LUfS0cxXPKWLzDw0ZuUmhq3tTZh3A1jkLPp39JRDJdcUYKxN58DR321dBSyMNvcwox50iGiSwjJW76Aq7oM9UPOBnSbdKCI0tr96PPSXOR+uBBASDqO6bRgAOlrPkLQFYfm/iOk40ScFgwg7x8L0Pvl+6G3+6TjmK+uDbn/egeOUBDVQ8eg42G4sUNDCP3ffxHD5t0I3a/g97cbdl1xp3QE02mBaQPV+y0fIU39R2DXbX9Ge1K6dJSIsDfWoP/Td0b9Jj+RUnX2pSi5/FcIuuKko0SE27MXff7vHqUuc3zPvobD/1o/5Aysnfsi/A6XYKDIcbc04NS513OHvy5auki9NSIsAN3kS8/F/stmo/b0ydJRuiVtzVIUvDlfievBneFLz8O+K3+N+uETpKN0XSiE7OWvIf+tR6D7vdJpZB1RAACgPTEVa+a/jfq8vkKBIiNv7XIMeeAWaMF26ShRiwWAuqy57zCU/uguNA4cKR2lU5J2rEb+249F51P9TFQ34gcoueIe+NJzpaN0iqtiH3r97QEkb4n9695h+U4BOKTiB5dg281z0RaXZHKg7kmsLscp/zMHqevUWZxsFBYA6rb6YeNResnP0NpjgHSU44or24n8dx7nQ3E6IeiKR9m021Ex6RqEdGuvn3VVliDvH39B+qr3oAUD0nGs4xgF4JDi63+F4mn/D+02u0mBuiauqRaFC+Yh+7Ml0lFiBgsARYamo2rsdJRPux2+tBzpNN/irPUg792nkPnF4pjb1c8srfkDUHHudag540IELXb9mCf+EzhBAQCAoMuNrT9/DOWjJyNosUWCrrZmnPTKI+ix5AXpKDGHBYAiKuhwoWr85agZeT6a+w4FNKFfJqEQEoo3In31B8j89A1eB46Q9oQUVJ91MSrHz4Q3q0AuSCiIpG/WImPl35H+5T944j+eMArAIe0Jydhz7S9QfvY0tCakGBjq+PRQCKl7t6L3O88i67P3xHLEOhYAMow/JQv1w8ejbsQkNAw6AyG709DxtHYfkrd9hdT1y5Cy4VM46isNHU9pmo76IeNQOeEKNJw8BiG7w/gxQyEk7lqHtNUfIm3NR/z+hqsTBeBIDYNORfE1v0TVKaMQ0I2/PKABSKg5gPxlb6Lnm09D97G0G40FgEwRcCegYfBZqDt1EuqHnI1AfGQWHtlaGpGy6XOkrluG5M0rYWtrjshxKXxBpxtN/UegqXAUGgvPQHOfIQhF6Hqyq3I/4vdtQeI3a5G29iM46ioiclyldLEAHKbrKJ98BarOOBeNfU9Ga0omAhHYC0RDCO6mOiTt+wbp6z9HzrK34armHTlmYgEg04Vsdngz8+FPyYI/Nfvg26yOtwf/zJeaBQBw1lXCUV8JR13FwbcH3z/4Z66qUmgB3gZkJUFXHJr6j0BLr1OO+L5mwp+cCX9K1uE9BrR2H2xtzbC1tUD3tsDW1gxndRni925B/L6tiC/ZqvQDiyKmuwXgKJp7D0TVuItQO2QMvKmZCLjiEHC5EbA7EbQ7EDxYEGztftj8Xthbm+FoaYSzsRZx5fuQuepDpK9ZDsTIY5ijFQsAEZkq6HRDa/fzur1ZDCgAFBtULADWvteFKMbpvjbpCESkKGvfzExERESGYAEgIiJSEAsAERGRglgAiIiIFMQCQEREpCAWACIiIgWxABARESmIBYCIiEhBLABEREQKYgEgIiJSEAsAERGRglgAiIiIFMQCQEREpCAdQJN0CCIiIikBd7x0BBE6gDLpEERERFK86TnSEUToAMqlQxAREUnxpmVLRxDBGQAiIlKaN13dAsAZACIiUpbKBYAzAEREpCyuASAiIlIQ1wAQEREpSOVLAJwBICIiZak8A7AbQIN0ECIiIrO1xyeiJbeXdAwRur54ux/AP6WDEBERma3qtAkI2ezSMUQcehbAItEUREREAipGnycdQcyhAvA+AJ9kECIiIjMF7Q5UnT5ROoYYHQD0xdsbACyXjUJERGSe2iFj0B6fKB1DzJGPA+ZlACIiUkbFmMnSEUQdWQDeBRCSCkJERGQaTUPFqEnSKUQdLgD64u2lAFYLZiEiIjJF/YCh8GbkSscQpX/n/ddFUhAREZnIM26KdARx3y0Az4A7AxIRUQzzpmWj5PyrpWOI+1YB0BdvbwEwTyYKERGR8XZdeScCrjjpGOK+OwMAAM8D2GZ2ECIiIqM1F/RH6bmXS8ewhO8VAH3x9gCAewSyEBERGeqba2cjpNukY1jC0WYAoC/evgjAFyZnISIiMkzdoNNQMVrte/+PdNQCcNBs01IQEREZbMcNv5aOYCnHLAD64u1fgLsDEhFRDKgYPRl1g06TjmEpx5sBAIC7AFSbEYSIiMgI/qQ0bL/pN9IxLOe4BUBfvH0PgEsBtJuShoiIKIJCNhs2zHkKrdkF0lEs50QzANAXb18O4A7joxAREUXWtpvnoWbIGOkYlnTCAgAA+uLtzwB41uAsREREEVNy/tXc8e84wioAB90BYLlBOYiIiCKmZsgYbLt5rnQMSwu7AOiLt/sBXAag2Lg4RERE3dOa0xMbfvUUQja7dBRL68wMAPTF26sATAPQaEwcIiKirmuPS8C6e5+DPzlNOorldaoAAIC+ePsmAGPBmQAiIrKQ1pye+Oqht9HUa6B0lKjQ6QIAHC4BZ4BrAoiIyAJqhozBqvmLePLvhC4VAODw5YDJ4N0BREQkqOT8q7Hm/pc47d9JWigU6vZBgtMLZwF4AgBXXBCRde1rkE5AERSy2bDt5nm81a+LIlIAACA4vXACgLcAZETkgEREkcYCEDP8SWnYMOcpbvLTDV2+BPC9A3XsGDgSfIAQEREZqGL0ZKx6ZDFP/t0UsRmAIwWnF44FMB8ddwsQEVkDZwCiWt2g07Djhl/zqX4RYkgBOCQ4vXAGgAcBDDJsECKicLEARKXmgv745trZqBg9WTpKTDG0AABAcHqhDcBNAOYByDN0MCKi42EBiCretGzsuvJOlJ57OUK6TTpOzDG8ABwSnF4YD2AWgJnoWCugmTIwEdEhLADWp2moHzAUnnFTUHL+1Qi44qQTxSzTCsCRgtML89GxpfAMABMAOE0PQUTqYQGwpKDdgdohY1AxZjIqRk2CNyNXOpISRArAkYLTC5MBXIiOMnABgGTRQEQUu1gALKM9PhFVp09ExRnnour0iWiPT5SOpBzxAnCk4PRCB4B+6Fgr0OM4b/k3hYg6jwXAFAF3PLzpOfCmZcObfuifI95Py0ZLbi8+rU+YpQoAGaPI4+M3mQhAdVtAOgKRZURsIyAiIiKKHiwARERECmIBICIiUhALABERkYJYAIiIiBTEAkBERKQgFgAiIiIFsQAQEREpiAWAiIhIQSwARERECmIBICIiUhALABERkYJYAIiIiBTEAkBERKQgFgAiIiIFsQAQEREpiAWAiIhIQSwARERECmIBICIUIOT4AAAFCUlEQVQiUhALABERkYJYAIiIiBTEAkBERKQgFgAiIiIFsQAQEREpiAWAiIhIQSwARERECmIBICIiUhALABERkYJYAIiIiBTEAkBERKQgFgAiIiIFsQAQEREpiAWAiIhIQSwARERECmIBICIiUhALABERkYJYAIiIiBTEAkBERKQgFgAiIiIFsQAQEREpiAWAiIhIQSwARERECmIBICIiUhALABERkYJYAIiIiBTEAqCGJukARERkHRoQYgFQQ5l0ACIisg5Ng58FQA3l0gGIiMg6dE1rYQFQA2cAiIjoMA2oZwFQA2cAiIjoMA2oYgFQA2cAiIjoME1DGQuAGjgDQERER9rHAqAGzgAQEdFhGrCTBUANnAEgIqLDNA3bWADUsBtAg3QIIiKSpwEhAJ+xAChgVI7TD+Cf0jmIiEieXddKxue7uQ+AQhZJByAiInk2DYsBPgtAJe8D8EmHICIiWZqGhwAWAGWMynE2AFgunYOIiOTYda16fL67FGABUA0vAxARKcym4aND/84CoJZ30bH6k4iIFKRr+NPhf5cMQuYaleMsBbBaOgcREZnPpmnN4/Pdaw69zwKgntelAxARkfnsOv515PssAOp5BtwZkIhIKbqGoK7hx9/6M6kwJGNUjrMFwDzpHEREZB6Hrv1tfL676sg/YwFQ0/MAtkmHICIi49k0+HQNN333z1kAFDQqxxkAcI90DiIiMp5D1x4dn+/+3kZwWijEu8JUVeTxrQQwVjoHkVmq2wLSEYhMZde0xnN7uZOP9t84A6C22dIBiIjIOHb92L/nOQOguCKP7+8AZkjnIDIDZwBIJQ5dK5/U093jWP+dMwB0F4Bq6RBERBQ5moaQXcflx/sYFgDFjcpx7gFwKYB24ShERBQhLl37+fh894rjfQwLAGFUjnM5gDuEYxARUQS4bNprEwrcj5/o47gGgA4r8vieAXCrdA4io3ANAMU6p65t+UFP9+BwPpYzAHSkOwAslw5BRESdZ9e1OpuOUeF+PAsAHTYqx+kHcBmAYuksREQUPl1Du0PH6PH57pawP8fIQBR9RuU4qwBMA9AonYWIiE5MA0Ium3bZ+Hz3js58HgsAfc+oHOcmdOwQyJkAIiIL0zW0u+3aJePz3Ys6/blGBKLod7AEnAGuCSAisiS7rtW5bNrgrpz8ARYAOo6DlwMmA3hWOgsREf2HU9e2OHTkd3ba/0i8DZDCUuTxzQLwBAC7dBairuJtgBQLXDbttYkF7iu7exzOAFBYRuU4nwFwHrhtMBGRCE1DyG3T7orEyR9gAaBOOLhj4EgAXbreREREXePQtXK3TTsnnB3+wsVLANQlRR7fWADz0XG3AFFU4CUAijZ2TWu065g9ocD9l0gfmwWAuqXI45sB4EEAg6SzEJ0ICwBFC5sGn0PXHp1Q4L7HqDFYAKjbijw+G4CbAMwDkCebhujYWADI6nQNQYeu/U3XcNP4fLfPyLFYAChiijy+eACzAMxEx1oBTTYR0bexAJBV2TSt2a7jX7qGH4/Pd1eZMSYLABmiyOPLR8eWwjMATADgFA1EBBYAsha7rlXbNHyka/jT+Hz3GrPHZwEgwxV5fMkALkRHGbgAQLJsIlIVCwBJ0oCQXddKbBoWaxoeGp/vLhXNwwJAZiry+BwA+qFjrUCP47xNlMpIsYsFgIyiASFNg1/XtBYNqNeAKk1DGYB9GrBT07ANwGedeVqf0f4/HpR5AfH+c6YAAAAASUVORK5CYII=;" vertex="1" parent="1">
          <mxGeometry x="697" y="323" width="50" height="50" as="geometry" />
        </mxCell>
      </root>
    </mxGraphModel>
  </diagram>
</mxfile>
